G04 Layer: TopLayer*
G04 EasyEDA v6.1.33, Sat, 27 Apr 2019 13:28:37 GMT*
G04 c1ca82668c2d4d1491ff35bdc25fb94a,6a163e1b02164d1f80322a9964b4fc45,10*
G04 Gerber Generator version 0.2*
G04 Scale: 100 percent, Rotated: No, Reflected: No *
G04 Dimensions in inches *
G04 leading zeros omitted , absolute positions ,2 integer and 4 decimal *
%FSLAX24Y24*%
%MOIN*%
G90*
G70D02*

%ADD11C,0.024000*%
%ADD12C,0.032000*%
%ADD13C,0.065000*%
%ADD14R,0.065000X0.065000*%
%ADD15C,0.078740*%
%ADD16C,0.075000*%
%ADD17C,0.062000*%
%ADD18R,0.062000X0.062000*%
%ADD19C,0.060000*%
%ADD20C,0.074000*%

%LPD*%
G54D11*
G01X35800Y11700D02*
G01X34268Y10169D01*
G01X10767Y10169D01*
G01X9972Y10963D01*
G01X2663Y10963D01*
G01X1800Y10098D01*
G01X10900Y33901D02*
G01X9976Y34825D01*
G01X9976Y37240D01*
G01X8659Y38557D01*
G01X2300Y38557D01*
G01X44972Y26202D02*
G01X45259Y25915D01*
G01X53515Y25915D01*
G01X56550Y28950D01*
G01X44100Y27075D02*
G01X44972Y26202D01*
G01X44972Y26202D02*
G01X36184Y17413D01*
G01X35610Y17413D01*
G01X19200Y11701D02*
G01X18171Y10671D01*
G01X12793Y10671D01*
G01X11582Y11882D01*
G01X11582Y12057D01*
G01X5390Y18250D01*
G01X5003Y18250D01*
G01X1448Y21805D01*
G01X1448Y29248D01*
G01X2700Y30500D01*
G01X27650Y19326D02*
G01X27650Y19494D01*
G01X28981Y20825D01*
G01X29197Y20825D01*
G01X30721Y22348D01*
G01X30721Y23103D01*
G01X52450Y2350D02*
G01X51481Y1380D01*
G01X11189Y1380D01*
G01X10906Y1663D01*
G01X50450Y2350D02*
G01X50450Y2521D01*
G01X49950Y3021D01*
G01X43217Y3021D01*
G01X42057Y1861D01*
G01X21423Y1861D01*
G01X20943Y2342D01*
G01X7539Y2342D01*
G01X6306Y3576D01*
G01X5500Y3576D01*
G01X3846Y16150D02*
G01X2463Y16150D01*
G01X2236Y16376D01*
G01X1284Y36500D02*
G01X2700Y36500D01*
G01X53450Y2350D02*
G01X52269Y3530D01*
G01X42235Y3530D01*
G01X41075Y2369D01*
G01X22217Y2369D01*
G01X21760Y2825D01*
G01X12793Y2825D01*
G01X11582Y4034D01*
G01X11582Y4159D01*
G01X8581Y7161D01*
G01X1453Y7161D01*
G01X19531Y20127D02*
G01X24246Y15411D01*
G01X25757Y15411D01*
G01X27998Y13171D01*
G01X41504Y13171D01*
G01X42459Y12217D01*
G01X24700Y23884D02*
G01X41761Y23884D01*
G01X24198Y25913D02*
G01X24135Y25848D01*
G01X10351Y25848D01*
G01X8700Y27500D01*
G01X52638Y31615D02*
G01X21956Y31615D01*
G01X34009Y27417D02*
G01X32150Y25557D01*
G01X26315Y25557D01*
G01X45938Y27465D02*
G01X45560Y27842D01*
G01X43800Y27842D01*
G01X43214Y27257D01*
G01X43214Y27028D01*
G01X40590Y24405D01*
G01X20230Y24405D01*
G01X18231Y22407D01*
G01X18231Y21098D01*
G01X37538Y12215D02*
G01X34639Y9317D01*
G01X20500Y9317D01*
G01X18089Y6907D01*
G01X18089Y6069D01*
G01X17927Y5907D01*
G01X2700Y28500D02*
G01X10750Y20450D01*
G01X10750Y19326D01*
G01X10750Y26901D02*
G01X12278Y28430D01*
G01X14168Y28430D01*
G01X19350Y33611D01*
G01X19350Y33901D01*
G01X10750Y3901D02*
G01X10438Y4213D01*
G01X2665Y4213D01*
G01X1800Y3348D01*
G01X19200Y19326D02*
G01X18186Y18313D01*
G01X10434Y18313D01*
G01X6514Y22232D01*
G01X6514Y22626D01*
G01X3842Y25298D01*
G01X2932Y25298D01*
G01X1986Y26242D01*
G01X1986Y28786D01*
G01X2700Y29500D01*
G01X21657Y30530D02*
G01X21393Y30794D01*
G01X21393Y31813D01*
G01X21863Y32282D01*
G01X26181Y32282D01*
G01X27800Y33901D01*
G01X19200Y26901D02*
G01X19439Y26661D01*
G01X21347Y26661D01*
G01X21840Y27153D01*
G01X21840Y27811D01*
G01X35800Y26900D02*
G01X33785Y24886D01*
G01X9314Y24886D01*
G01X2700Y31500D01*
G01X36297Y20667D02*
G01X36297Y19823D01*
G01X35800Y19325D01*
G01X30586Y13694D02*
G01X31322Y13694D01*
G01X35089Y17461D01*
G01X35089Y18615D01*
G01X35800Y19325D01*
G01X57559Y31617D02*
G01X54494Y31617D01*
G01X53690Y30813D01*
G01X50854Y30813D01*
G01X50672Y30994D01*
G01X34196Y30994D01*
G01X32526Y29325D01*
G01X30142Y29325D01*
G01X29101Y28284D01*
G01X27956Y28284D01*
G01X25039Y25367D01*
G01X9832Y25367D01*
G01X8700Y26500D01*
G01X26059Y34417D02*
G01X22407Y34417D01*
G01X21652Y33661D01*
G01X20785Y33661D01*
G01X19257Y35188D01*
G01X13260Y35188D01*
G01X12488Y34415D01*
G01X10900Y36901D02*
G01X11971Y36901D01*
G01X12488Y36384D01*
G01X34159Y34417D02*
G01X33385Y35190D01*
G01X21911Y35190D01*
G01X21138Y34415D01*
G01X19350Y36901D02*
G01X20621Y36901D01*
G01X21138Y36384D01*
G01X42609Y34417D02*
G01X41072Y32880D01*
G01X30773Y32880D01*
G01X29238Y34415D01*
G01X27800Y36901D02*
G01X28721Y36901D01*
G01X29238Y36384D01*
G01X51009Y34467D02*
G01X50221Y35255D01*
G01X38527Y35255D01*
G01X37688Y34415D01*
G01X35950Y36900D02*
G01X37172Y36900D01*
G01X37688Y36384D01*
G01X44300Y37075D02*
G01X45447Y37075D01*
G01X46088Y36434D01*
G01X12338Y27415D02*
G01X13968Y27415D01*
G01X14885Y28332D01*
G01X24993Y28332D01*
G01X25909Y27417D01*
G01X10750Y29901D02*
G01X11821Y29901D01*
G01X12338Y29384D01*
G01X19200Y29901D02*
G01X20471Y29901D01*
G01X20988Y29384D01*
G01X42459Y27417D02*
G01X41655Y28221D01*
G01X29893Y28221D01*
G01X29088Y27415D01*
G01X27650Y29901D02*
G01X28571Y29901D01*
G01X29088Y29384D01*
G01X35800Y29900D02*
G01X37022Y29900D01*
G01X37538Y29384D01*
G01X44100Y30075D02*
G01X45297Y30075D01*
G01X45938Y29434D01*
G01X25909Y19842D02*
G01X25102Y20648D01*
G01X18517Y20648D01*
G01X18447Y20578D01*
G01X18015Y20578D01*
G01X17947Y20648D01*
G01X13144Y20648D01*
G01X12338Y19840D01*
G01X10750Y22326D02*
G01X11821Y22326D01*
G01X12338Y21809D01*
G01X34009Y19842D02*
G01X32478Y18311D01*
G01X22517Y18311D01*
G01X20988Y19840D01*
G01X19200Y22326D02*
G01X20471Y22326D01*
G01X20988Y21809D01*
G01X29088Y19840D02*
G01X30260Y21013D01*
G01X35909Y21013D01*
G01X36081Y21188D01*
G01X36514Y21188D01*
G01X36688Y21013D01*
G01X38029Y21013D01*
G01X27650Y22326D02*
G01X28571Y22326D01*
G01X29088Y21809D01*
G01X35800Y22325D02*
G01X37022Y22325D01*
G01X37538Y21809D01*
G01X1800Y13098D02*
G01X2723Y13098D01*
G01X3688Y12134D01*
G01X1800Y6348D02*
G01X2723Y6348D01*
G01X3688Y5384D01*
G01X25909Y12217D02*
G01X25139Y12986D01*
G01X13109Y12986D01*
G01X12338Y12215D01*
G01X10750Y14763D02*
G01X11759Y14763D01*
G01X12338Y14184D01*
G01X34009Y12217D02*
G01X32442Y10650D01*
G01X22553Y10650D01*
G01X20988Y12215D01*
G01X19200Y14701D02*
G01X20471Y14701D01*
G01X20988Y14184D01*
G01X27650Y14701D02*
G01X28571Y14701D01*
G01X29088Y14184D01*
G01X35800Y14700D02*
G01X37022Y14700D01*
G01X37538Y14184D01*
G01X25909Y4417D02*
G01X25135Y5190D01*
G01X13111Y5190D01*
G01X12338Y4415D01*
G01X10750Y6901D02*
G01X11821Y6901D01*
G01X12338Y6384D01*
G01X34009Y4417D02*
G01X32443Y2851D01*
G01X22552Y2851D01*
G01X20988Y4415D01*
G01X19200Y6901D02*
G01X20471Y6901D01*
G01X20988Y6384D01*
G01X42459Y4417D02*
G01X41685Y5190D01*
G01X29861Y5190D01*
G01X29088Y4415D01*
G01X27650Y6901D02*
G01X28571Y6901D01*
G01X29088Y6384D01*
G01X35800Y6900D02*
G01X37022Y6900D01*
G01X37538Y6384D01*
G01X3896Y33525D02*
G01X5011Y33525D01*
G01X3896Y25819D02*
G01X3380Y25819D01*
G01X2700Y26500D01*
G01X8700Y30500D02*
G01X7961Y29761D01*
G01X7917Y29761D01*
G01X2700Y32500D02*
G01X4286Y32500D01*
G01X7677Y29109D01*
G01X3650Y24400D02*
G01X5853Y22196D01*
G01X5853Y20350D01*
G54D13*
G01X2700Y26500D03*
G01X2700Y27500D03*
G01X2700Y28500D03*
G01X2700Y29500D03*
G01X2700Y30500D03*
G01X2700Y31500D03*
G01X2700Y32500D03*
G01X2700Y33500D03*
G01X2700Y34500D03*
G01X2700Y35500D03*
G01X2700Y36500D03*
G54D14*
G01X2700Y37500D03*
G54D13*
G01X8700Y37500D03*
G01X8700Y36500D03*
G01X8700Y35500D03*
G01X8700Y34500D03*
G01X8700Y33500D03*
G01X8700Y32500D03*
G01X8700Y31500D03*
G01X8700Y30500D03*
G01X8700Y29500D03*
G01X8700Y28500D03*
G01X8700Y27500D03*
G01X8700Y26500D03*
G54D15*
G01X17409Y34417D03*
G01X12488Y34415D03*
G01X17411Y36382D03*
G01X12488Y36384D03*
G01X26059Y34417D03*
G01X21138Y34415D03*
G01X26061Y36382D03*
G01X21138Y36384D03*
G01X34159Y34417D03*
G01X29238Y34415D03*
G01X34161Y36382D03*
G01X29238Y36384D03*
G01X42609Y34417D03*
G01X37688Y34415D03*
G01X42611Y36382D03*
G01X37688Y36384D03*
G01X51009Y34467D03*
G01X46088Y34465D03*
G01X51011Y36432D03*
G01X46088Y36434D03*
G01X57559Y31617D03*
G01X52638Y31615D03*
G01X57561Y33582D03*
G01X52638Y33584D03*
G01X17259Y27417D03*
G01X12338Y27415D03*
G01X17261Y29382D03*
G01X12338Y29384D03*
G01X25909Y27417D03*
G01X20988Y27415D03*
G01X25911Y29382D03*
G01X20988Y29384D03*
G01X34009Y27417D03*
G01X29088Y27415D03*
G01X34011Y29382D03*
G01X29088Y29384D03*
G01X42459Y27417D03*
G01X37538Y27415D03*
G01X42461Y29382D03*
G01X37538Y29384D03*
G01X50859Y27467D03*
G01X45938Y27465D03*
G01X50861Y29432D03*
G01X45938Y29434D03*
G01X17259Y19842D03*
G01X12338Y19840D03*
G01X17261Y21807D03*
G01X12338Y21809D03*
G01X25909Y19842D03*
G01X20988Y19840D03*
G01X25911Y21807D03*
G01X20988Y21809D03*
G01X34009Y19842D03*
G01X29088Y19840D03*
G01X34011Y21807D03*
G01X29088Y21809D03*
G01X42459Y19842D03*
G01X37538Y19840D03*
G01X42461Y21807D03*
G01X37538Y21809D03*
G01X8609Y10167D03*
G01X3688Y10165D03*
G01X8611Y12132D03*
G01X3688Y12134D03*
G01X8609Y3417D03*
G01X3688Y3415D03*
G01X8611Y5382D03*
G01X3688Y5384D03*
G01X17259Y12217D03*
G01X12338Y12215D03*
G01X17261Y14182D03*
G01X12338Y14184D03*
G01X25909Y12217D03*
G01X20988Y12215D03*
G01X25911Y14182D03*
G01X20988Y14184D03*
G01X34009Y12217D03*
G01X29088Y12215D03*
G01X34011Y14182D03*
G01X29088Y14184D03*
G01X42459Y12217D03*
G01X37538Y12215D03*
G01X42461Y14182D03*
G01X37538Y14184D03*
G01X17259Y4417D03*
G01X12338Y4415D03*
G01X17261Y6382D03*
G01X12338Y6384D03*
G01X25909Y4417D03*
G01X20988Y4415D03*
G01X25911Y6382D03*
G01X20988Y6384D03*
G01X34009Y4417D03*
G01X29088Y4415D03*
G01X34011Y6382D03*
G01X29088Y6384D03*
G01X42459Y4417D03*
G01X37538Y4415D03*
G01X42461Y6382D03*
G01X37538Y6384D03*
G54D16*
G01X10900Y33901D03*
G01X10900Y36901D03*
G01X56550Y28950D03*
G01X53550Y28950D03*
G01X44100Y27075D03*
G01X44100Y30075D03*
G01X1800Y10098D03*
G01X1800Y13098D03*
G01X35800Y11700D03*
G01X35800Y14700D03*
G01X19350Y33901D03*
G01X19350Y36901D03*
G01X10750Y26901D03*
G01X10750Y29901D03*
G01X10750Y19326D03*
G01X10750Y22326D03*
G01X1800Y3348D03*
G01X1800Y6348D03*
G01X10750Y3901D03*
G01X10750Y6901D03*
G01X27800Y33901D03*
G01X27800Y36901D03*
G01X19200Y26901D03*
G01X19200Y29901D03*
G01X19200Y19326D03*
G01X19200Y22326D03*
G01X10750Y11763D03*
G01X10750Y14763D03*
G01X19200Y3901D03*
G01X19200Y6901D03*
G01X35950Y33900D03*
G01X35950Y36900D03*
G01X27650Y26901D03*
G01X27650Y29901D03*
G01X27650Y19326D03*
G01X27650Y22326D03*
G01X19200Y11701D03*
G01X19200Y14701D03*
G01X27650Y3901D03*
G01X27650Y6901D03*
G01X44300Y34075D03*
G01X44300Y37075D03*
G01X35800Y26900D03*
G01X35800Y29900D03*
G01X35800Y19325D03*
G01X35800Y22325D03*
G01X27650Y11701D03*
G01X27650Y14701D03*
G01X35800Y3900D03*
G01X35800Y6900D03*
G54D17*
G01X54450Y2350D03*
G01X53450Y2350D03*
G01X52450Y2350D03*
G01X51450Y2350D03*
G01X50450Y2350D03*
G54D18*
G01X49450Y2350D03*
G54D19*
G01X3846Y20350D03*
G01X4869Y20350D03*
G01X5853Y20350D03*
G01X3846Y16150D03*
G01X4869Y16150D03*
G01X5853Y16150D03*
G54D20*
G01X3650Y24400D03*
G01X8650Y24400D03*
G01X8350Y16500D03*
G01X8350Y21500D03*
G54D12*
G01X2300Y38557D03*
G01X35610Y17413D03*
G01X30721Y23103D03*
G01X10906Y1663D03*
G01X5500Y3576D03*
G01X2236Y16376D03*
G01X1284Y36500D03*
G01X1453Y7161D03*
G01X19531Y20127D03*
G01X24198Y25913D03*
G01X24700Y23884D03*
G01X41761Y23884D03*
G01X21956Y31615D03*
G01X26315Y25557D03*
G01X18231Y21098D03*
G01X17927Y5907D03*
G01X21657Y30530D03*
G01X21840Y27811D03*
G01X36297Y20667D03*
G01X30586Y13694D03*
G01X38029Y21013D03*
G01X3896Y25819D03*
G01X3896Y33525D03*
G01X5011Y33525D03*
G01X7917Y29761D03*
G01X7677Y29109D03*
M00*
M02*
