;Layer: Drill PTH
;EasyEDA v6.1.33, Sat, 27 Apr 2019 13:28:37 GMT
;c1ca82668c2d4d1491ff35bdc25fb94a,6a163e1b02164d1f80322a9964b4fc45,10
;Gerber Generator version 0.2
M48
INCH,LZ,00.0000
;Holesize 1 = 0.012 INCH
T01C0.012
;Holesize 2 = 0.035 INCH
T02C0.035
;Holesize 3 = 0.035 INCH
T03C0.035
;Holesize 4 = 0.035 INCH
T04C0.035
;Holesize 5 = 0.043 INCH
T05C0.043
;Holesize 6 = 0.051 INCH
T06C0.051
%
G05
G90
T01
X+002300Y+038557
X+035610Y+017413
X+030721Y+023103
X+010906Y+001663
X+005500Y+003576
X+002236Y+016376
X+001284Y+036500
X+001453Y+007161
X+019531Y+020127
X+024198Y+025913
X+024700Y+023884
X+041761Y+023884
X+021956Y+031615
X+026315Y+025557
X+018231Y+021098
X+017927Y+005907
X+021657Y+030530
X+021840Y+027811
X+036297Y+020667
X+030586Y+013694
X+038029Y+021013
X+003896Y+025819
X+003896Y+033525
X+005011Y+033525
X+007917Y+029761
X+007677Y+029109
T02
X+054450Y+002350
X+053450Y+002350
X+052450Y+002350
X+051450Y+002350
X+050450Y+002350
X+049450Y+002350
X+003846Y+020350
X+004869Y+020350
X+005853Y+020350
X+003846Y+016150
X+004869Y+016150
X+005853Y+016150
T03
X+003650Y+024400
X+008650Y+024400
X+008350Y+016500
X+008350Y+021500
T04
X+002700Y+026500
X+002700Y+027500
X+002700Y+028500
X+002700Y+029500
X+002700Y+030500
X+002700Y+031500
X+002700Y+032500
X+002700Y+033500
X+002700Y+034500
X+002700Y+035500
X+002700Y+036500
X+002700Y+037500
X+008700Y+037500
X+008700Y+036500
X+008700Y+035500
X+008700Y+034500
X+008700Y+033500
X+008700Y+032500
X+008700Y+031500
X+008700Y+030500
X+008700Y+029500
X+008700Y+028500
X+008700Y+027500
X+008700Y+026500
T05
X+010900Y+033901
X+010900Y+036901
X+056550Y+028950
X+053550Y+028950
X+044100Y+027075
X+044100Y+030075
X+001800Y+010098
X+001800Y+013098
X+035800Y+011700
X+035800Y+014700
X+019350Y+033901
X+019350Y+036901
X+010750Y+026901
X+010750Y+029901
X+010750Y+019326
X+010750Y+022326
X+001800Y+003348
X+001800Y+006348
X+010750Y+003901
X+010750Y+006901
X+027800Y+033901
X+027800Y+036901
X+019200Y+026901
X+019200Y+029901
X+019200Y+019326
X+019200Y+022326
X+010750Y+011763
X+010750Y+014763
X+019200Y+003901
X+019200Y+006901
X+035950Y+033900
X+035950Y+036900
X+027650Y+026901
X+027650Y+029901
X+027650Y+019326
X+027650Y+022326
X+019200Y+011701
X+019200Y+014701
X+027650Y+003901
X+027650Y+006901
X+044300Y+034075
X+044300Y+037075
X+035800Y+026900
X+035800Y+029900
X+035800Y+019325
X+035800Y+022325
X+027650Y+011701
X+027650Y+014701
X+035800Y+003900
X+035800Y+006900
T06
X+017409Y+034417
X+012488Y+034415
X+017411Y+036382
X+012488Y+036384
X+026059Y+034417
X+021138Y+034415
X+026061Y+036382
X+021138Y+036384
X+034159Y+034417
X+029238Y+034415
X+034161Y+036382
X+029238Y+036384
X+042609Y+034417
X+037688Y+034415
X+042611Y+036382
X+037688Y+036384
X+051009Y+034467
X+046088Y+034465
X+051011Y+036432
X+046088Y+036434
X+057559Y+031617
X+052638Y+031615
X+057561Y+033582
X+052638Y+033584
X+017259Y+027417
X+012338Y+027415
X+017261Y+029382
X+012338Y+029384
X+025909Y+027417
X+020988Y+027415
X+025911Y+029382
X+020988Y+029384
X+034009Y+027417
X+029088Y+027415
X+034011Y+029382
X+029088Y+029384
X+042459Y+027417
X+037538Y+027415
X+042461Y+029382
X+037538Y+029384
X+050859Y+027467
X+045938Y+027465
X+050861Y+029432
X+045938Y+029434
X+017259Y+019842
X+012338Y+019840
X+017261Y+021807
X+012338Y+021809
X+025909Y+019842
X+020988Y+019840
X+025911Y+021807
X+020988Y+021809
X+034009Y+019842
X+029088Y+019840
X+034011Y+021807
X+029088Y+021809
X+042459Y+019842
X+037538Y+019840
X+042461Y+021807
X+037538Y+021809
X+008609Y+010167
X+003688Y+010165
X+008611Y+012132
X+003688Y+012134
X+008609Y+003417
X+003688Y+003415
X+008611Y+005382
X+003688Y+005384
X+017259Y+012217
X+012338Y+012215
X+017261Y+014182
X+012338Y+014184
X+025909Y+012217
X+020988Y+012215
X+025911Y+014182
X+020988Y+014184
X+034009Y+012217
X+029088Y+012215
X+034011Y+014182
X+029088Y+014184
X+042459Y+012217
X+037538Y+012215
X+042461Y+014182
X+037538Y+014184
X+017259Y+004417
X+012338Y+004415
X+017261Y+006382
X+012338Y+006384
X+025909Y+004417
X+020988Y+004415
X+025911Y+006382
X+020988Y+006384
X+034009Y+004417
X+029088Y+004415
X+034011Y+006382
X+029088Y+006384
X+042459Y+004417
X+037538Y+004415
X+042461Y+006382
X+037538Y+006384
M30
