G04 Layer: TopSilkLayer*
G04 EasyEDA v6.1.33, Sat, 27 Apr 2019 13:28:37 GMT*
G04 c1ca82668c2d4d1491ff35bdc25fb94a,6a163e1b02164d1f80322a9964b4fc45,10*
G04 Gerber Generator version 0.2*
G04 Scale: 100 percent, Rotated: No, Reflected: No *
G04 Dimensions in inches *
G04 leading zeros omitted , absolute positions ,2 integer and 4 decimal *
%FSLAX24Y24*%
%MOIN*%
G90*
G70D02*

%ADD10C,0.010000*%
%ADD21C,0.008000*%
%ADD22C,0.008000*%
%ADD23C,0.009000*%
%ADD24C,0.007992*%
%ADD26C,0.006000*%

%LPD*%
G54D21*
G01X2200Y39000D02*
G01X2200Y26000D01*
G01X9200Y26000D01*
G01X9200Y39000D01*
G01X2200Y39000D01*
G54D22*
G01X4200Y39000D02*
G01X4200Y39500D01*
G01X4200Y39500D02*
G01X7200Y39500D01*
G01X7200Y39500D02*
G01X7200Y39000D01*
G54D10*
G01X12591Y37369D02*
G01X12591Y37763D01*
G01X17316Y37763D01*
G01X17316Y33038D01*
G01X12591Y33038D01*
G01X12591Y37369D01*
G01X14953Y34613D02*
G01X14953Y35007D01*
G01X15544Y35597D01*
G01X14953Y35794D02*
G01X14953Y36188D01*
G01X14757Y36188D02*
G01X15150Y36188D01*
G01X14757Y34613D02*
G01X15150Y34613D01*
G01X21241Y37369D02*
G01X21241Y37763D01*
G01X25966Y37763D01*
G01X25966Y33038D01*
G01X21241Y33038D01*
G01X21241Y37369D01*
G01X23603Y34613D02*
G01X23603Y35007D01*
G01X24194Y35597D01*
G01X23603Y35794D02*
G01X23603Y36188D01*
G01X23407Y36188D02*
G01X23800Y36188D01*
G01X23407Y34613D02*
G01X23800Y34613D01*
G01X29341Y37369D02*
G01X29341Y37763D01*
G01X34066Y37763D01*
G01X34066Y33038D01*
G01X29341Y33038D01*
G01X29341Y37369D01*
G01X31703Y34613D02*
G01X31703Y35007D01*
G01X32294Y35597D01*
G01X31703Y35794D02*
G01X31703Y36188D01*
G01X31507Y36188D02*
G01X31900Y36188D01*
G01X31507Y34613D02*
G01X31900Y34613D01*
G01X37791Y37369D02*
G01X37791Y37763D01*
G01X42516Y37763D01*
G01X42516Y33038D01*
G01X37791Y33038D01*
G01X37791Y37369D01*
G01X40154Y34613D02*
G01X40154Y35007D01*
G01X40744Y35597D01*
G01X40154Y35794D02*
G01X40154Y36188D01*
G01X39957Y36188D02*
G01X40350Y36188D01*
G01X39957Y34613D02*
G01X40350Y34613D01*
G01X46191Y37419D02*
G01X46191Y37813D01*
G01X50916Y37813D01*
G01X50916Y33088D01*
G01X46191Y33088D01*
G01X46191Y37419D01*
G01X48554Y34663D02*
G01X48554Y35057D01*
G01X49144Y35647D01*
G01X48554Y35844D02*
G01X48554Y36238D01*
G01X48357Y36238D02*
G01X48750Y36238D01*
G01X48357Y34663D02*
G01X48750Y34663D01*
G01X52741Y34569D02*
G01X52741Y34963D01*
G01X57466Y34963D01*
G01X57466Y30238D01*
G01X52741Y30238D01*
G01X52741Y34569D01*
G01X55104Y31813D02*
G01X55104Y32207D01*
G01X55694Y32797D01*
G01X55104Y32994D02*
G01X55104Y33388D01*
G01X54907Y33388D02*
G01X55300Y33388D01*
G01X54907Y31813D02*
G01X55300Y31813D01*
G01X12441Y30369D02*
G01X12441Y30763D01*
G01X17166Y30763D01*
G01X17166Y26038D01*
G01X12441Y26038D01*
G01X12441Y30369D01*
G01X14803Y27613D02*
G01X14803Y28007D01*
G01X15394Y28597D01*
G01X14803Y28794D02*
G01X14803Y29188D01*
G01X14607Y29188D02*
G01X15000Y29188D01*
G01X14607Y27613D02*
G01X15000Y27613D01*
G01X21091Y30369D02*
G01X21091Y30763D01*
G01X25816Y30763D01*
G01X25816Y26038D01*
G01X21091Y26038D01*
G01X21091Y30369D01*
G01X23453Y27613D02*
G01X23453Y28007D01*
G01X24044Y28597D01*
G01X23453Y28794D02*
G01X23453Y29188D01*
G01X23257Y29188D02*
G01X23650Y29188D01*
G01X23257Y27613D02*
G01X23650Y27613D01*
G01X29191Y30369D02*
G01X29191Y30763D01*
G01X33916Y30763D01*
G01X33916Y26038D01*
G01X29191Y26038D01*
G01X29191Y30369D01*
G01X31553Y27613D02*
G01X31553Y28007D01*
G01X32144Y28597D01*
G01X31553Y28794D02*
G01X31553Y29188D01*
G01X31357Y29188D02*
G01X31750Y29188D01*
G01X31357Y27613D02*
G01X31750Y27613D01*
G01X37641Y30369D02*
G01X37641Y30763D01*
G01X42366Y30763D01*
G01X42366Y26038D01*
G01X37641Y26038D01*
G01X37641Y30369D01*
G01X40004Y27613D02*
G01X40004Y28007D01*
G01X40594Y28597D01*
G01X40004Y28794D02*
G01X40004Y29188D01*
G01X39807Y29188D02*
G01X40200Y29188D01*
G01X39807Y27613D02*
G01X40200Y27613D01*
G01X46041Y30419D02*
G01X46041Y30813D01*
G01X50766Y30813D01*
G01X50766Y26088D01*
G01X46041Y26088D01*
G01X46041Y30419D01*
G01X48404Y27663D02*
G01X48404Y28057D01*
G01X48994Y28647D01*
G01X48404Y28844D02*
G01X48404Y29238D01*
G01X48207Y29238D02*
G01X48600Y29238D01*
G01X48207Y27663D02*
G01X48600Y27663D01*
G01X12441Y22794D02*
G01X12441Y23188D01*
G01X17166Y23188D01*
G01X17166Y18463D01*
G01X12441Y18463D01*
G01X12441Y22794D01*
G01X14803Y20038D02*
G01X14803Y20432D01*
G01X15394Y21022D01*
G01X14803Y21219D02*
G01X14803Y21613D01*
G01X14607Y21613D02*
G01X15000Y21613D01*
G01X14607Y20038D02*
G01X15000Y20038D01*
G01X21091Y22794D02*
G01X21091Y23188D01*
G01X25816Y23188D01*
G01X25816Y18463D01*
G01X21091Y18463D01*
G01X21091Y22794D01*
G01X23453Y20038D02*
G01X23453Y20432D01*
G01X24044Y21022D01*
G01X23453Y21219D02*
G01X23453Y21613D01*
G01X23257Y21613D02*
G01X23650Y21613D01*
G01X23257Y20038D02*
G01X23650Y20038D01*
G01X29191Y22794D02*
G01X29191Y23188D01*
G01X33916Y23188D01*
G01X33916Y18463D01*
G01X29191Y18463D01*
G01X29191Y22794D01*
G01X31553Y20038D02*
G01X31553Y20432D01*
G01X32144Y21022D01*
G01X31553Y21219D02*
G01X31553Y21613D01*
G01X31357Y21613D02*
G01X31750Y21613D01*
G01X31357Y20038D02*
G01X31750Y20038D01*
G01X37641Y22794D02*
G01X37641Y23188D01*
G01X42366Y23188D01*
G01X42366Y18463D01*
G01X37641Y18463D01*
G01X37641Y22794D01*
G01X40004Y20038D02*
G01X40004Y20432D01*
G01X40594Y21022D01*
G01X40004Y21219D02*
G01X40004Y21613D01*
G01X39807Y21613D02*
G01X40200Y21613D01*
G01X39807Y20038D02*
G01X40200Y20038D01*
G01X3791Y13119D02*
G01X3791Y13513D01*
G01X8516Y13513D01*
G01X8516Y8788D01*
G01X3791Y8788D01*
G01X3791Y13119D01*
G01X6153Y10363D02*
G01X6153Y10757D01*
G01X6744Y11347D01*
G01X6153Y11544D02*
G01X6153Y11938D01*
G01X5957Y11938D02*
G01X6350Y11938D01*
G01X5957Y10363D02*
G01X6350Y10363D01*
G01X3791Y6369D02*
G01X3791Y6763D01*
G01X8516Y6763D01*
G01X8516Y2038D01*
G01X3791Y2038D01*
G01X3791Y6369D01*
G01X6153Y3613D02*
G01X6153Y4007D01*
G01X6744Y4597D01*
G01X6153Y4794D02*
G01X6153Y5188D01*
G01X5957Y5188D02*
G01X6350Y5188D01*
G01X5957Y3613D02*
G01X6350Y3613D01*
G01X12441Y15169D02*
G01X12441Y15563D01*
G01X17166Y15563D01*
G01X17166Y10838D01*
G01X12441Y10838D01*
G01X12441Y15169D01*
G01X14803Y12413D02*
G01X14803Y12807D01*
G01X15394Y13397D01*
G01X14803Y13594D02*
G01X14803Y13988D01*
G01X14607Y13988D02*
G01X15000Y13988D01*
G01X14607Y12413D02*
G01X15000Y12413D01*
G01X21091Y15169D02*
G01X21091Y15563D01*
G01X25816Y15563D01*
G01X25816Y10838D01*
G01X21091Y10838D01*
G01X21091Y15169D01*
G01X23453Y12413D02*
G01X23453Y12807D01*
G01X24044Y13397D01*
G01X23453Y13594D02*
G01X23453Y13988D01*
G01X23257Y13988D02*
G01X23650Y13988D01*
G01X23257Y12413D02*
G01X23650Y12413D01*
G01X29191Y15169D02*
G01X29191Y15563D01*
G01X33916Y15563D01*
G01X33916Y10838D01*
G01X29191Y10838D01*
G01X29191Y15169D01*
G01X31553Y12413D02*
G01X31553Y12807D01*
G01X32144Y13397D01*
G01X31553Y13594D02*
G01X31553Y13988D01*
G01X31357Y13988D02*
G01X31750Y13988D01*
G01X31357Y12413D02*
G01X31750Y12413D01*
G01X37641Y15169D02*
G01X37641Y15563D01*
G01X42366Y15563D01*
G01X42366Y10838D01*
G01X37641Y10838D01*
G01X37641Y15169D01*
G01X40004Y12413D02*
G01X40004Y12807D01*
G01X40594Y13397D01*
G01X40004Y13594D02*
G01X40004Y13988D01*
G01X39807Y13988D02*
G01X40200Y13988D01*
G01X39807Y12413D02*
G01X40200Y12413D01*
G01X12441Y7369D02*
G01X12441Y7763D01*
G01X17166Y7763D01*
G01X17166Y3038D01*
G01X12441Y3038D01*
G01X12441Y7369D01*
G01X14803Y4613D02*
G01X14803Y5007D01*
G01X15394Y5597D01*
G01X14803Y5794D02*
G01X14803Y6188D01*
G01X14607Y6188D02*
G01X15000Y6188D01*
G01X14607Y4613D02*
G01X15000Y4613D01*
G01X21091Y7369D02*
G01X21091Y7763D01*
G01X25816Y7763D01*
G01X25816Y3038D01*
G01X21091Y3038D01*
G01X21091Y7369D01*
G01X23453Y4613D02*
G01X23453Y5007D01*
G01X24044Y5597D01*
G01X23453Y5794D02*
G01X23453Y6188D01*
G01X23257Y6188D02*
G01X23650Y6188D01*
G01X23257Y4613D02*
G01X23650Y4613D01*
G01X29191Y7369D02*
G01X29191Y7763D01*
G01X33916Y7763D01*
G01X33916Y3038D01*
G01X29191Y3038D01*
G01X29191Y7369D01*
G01X31553Y4613D02*
G01X31553Y5007D01*
G01X32144Y5597D01*
G01X31553Y5794D02*
G01X31553Y6188D01*
G01X31357Y6188D02*
G01X31750Y6188D01*
G01X31357Y4613D02*
G01X31750Y4613D01*
G01X37641Y7369D02*
G01X37641Y7763D01*
G01X42366Y7763D01*
G01X42366Y3038D01*
G01X37641Y3038D01*
G01X37641Y7369D01*
G01X40004Y4613D02*
G01X40004Y5007D01*
G01X40594Y5597D01*
G01X40004Y5794D02*
G01X40004Y6188D01*
G01X39807Y6188D02*
G01X40200Y6188D01*
G01X39807Y4613D02*
G01X40200Y4613D01*
G54D23*
G01X10450Y34401D02*
G01X10450Y36401D01*
G01X11350Y36401D01*
G01X11350Y34401D01*
G01X10450Y34401D01*
G01X10450Y36151D02*
G01X11350Y36151D01*
G01X56050Y28500D02*
G01X54050Y28500D01*
G01X54050Y29400D01*
G01X56050Y29400D01*
G01X56050Y28500D01*
G01X54300Y28500D02*
G01X54300Y29400D01*
G01X43650Y27575D02*
G01X43650Y29575D01*
G01X44550Y29575D01*
G01X44550Y27575D01*
G01X43650Y27575D01*
G01X43650Y29325D02*
G01X44550Y29325D01*
G01X1350Y10598D02*
G01X1350Y12598D01*
G01X2250Y12598D01*
G01X2250Y10598D01*
G01X1350Y10598D01*
G01X1350Y12348D02*
G01X2250Y12348D01*
G01X35350Y12200D02*
G01X35350Y14200D01*
G01X36250Y14200D01*
G01X36250Y12200D01*
G01X35350Y12200D01*
G01X35350Y13950D02*
G01X36250Y13950D01*
G01X18900Y34401D02*
G01X18900Y36401D01*
G01X19800Y36401D01*
G01X19800Y34401D01*
G01X18900Y34401D01*
G01X18900Y36151D02*
G01X19800Y36151D01*
G01X10300Y27401D02*
G01X10300Y29401D01*
G01X11200Y29401D01*
G01X11200Y27401D01*
G01X10300Y27401D01*
G01X10300Y29151D02*
G01X11200Y29151D01*
G01X10300Y19826D02*
G01X10300Y21826D01*
G01X11200Y21826D01*
G01X11200Y19826D01*
G01X10300Y19826D01*
G01X10300Y21576D02*
G01X11200Y21576D01*
G01X1350Y3848D02*
G01X1350Y5848D01*
G01X2250Y5848D01*
G01X2250Y3848D01*
G01X1350Y3848D01*
G01X1350Y5598D02*
G01X2250Y5598D01*
G01X10300Y4401D02*
G01X10300Y6401D01*
G01X11200Y6401D01*
G01X11200Y4401D01*
G01X10300Y4401D01*
G01X10300Y6151D02*
G01X11200Y6151D01*
G01X27350Y34401D02*
G01X27350Y36401D01*
G01X28250Y36401D01*
G01X28250Y34401D01*
G01X27350Y34401D01*
G01X27350Y36151D02*
G01X28250Y36151D01*
G01X18750Y27401D02*
G01X18750Y29401D01*
G01X19650Y29401D01*
G01X19650Y27401D01*
G01X18750Y27401D01*
G01X18750Y29151D02*
G01X19650Y29151D01*
G01X18750Y19826D02*
G01X18750Y21826D01*
G01X19650Y21826D01*
G01X19650Y19826D01*
G01X18750Y19826D01*
G01X18750Y21576D02*
G01X19650Y21576D01*
G01X10300Y12263D02*
G01X10300Y14263D01*
G01X11200Y14263D01*
G01X11200Y12263D01*
G01X10300Y12263D01*
G01X10300Y14013D02*
G01X11200Y14013D01*
G01X18750Y4401D02*
G01X18750Y6401D01*
G01X19650Y6401D01*
G01X19650Y4401D01*
G01X18750Y4401D01*
G01X18750Y6151D02*
G01X19650Y6151D01*
G01X35500Y34400D02*
G01X35500Y36400D01*
G01X36400Y36400D01*
G01X36400Y34400D01*
G01X35500Y34400D01*
G01X35500Y36150D02*
G01X36400Y36150D01*
G01X27200Y27401D02*
G01X27200Y29401D01*
G01X28100Y29401D01*
G01X28100Y27401D01*
G01X27200Y27401D01*
G01X27200Y29151D02*
G01X28100Y29151D01*
G01X27200Y19826D02*
G01X27200Y21826D01*
G01X28100Y21826D01*
G01X28100Y19826D01*
G01X27200Y19826D01*
G01X27200Y21576D02*
G01X28100Y21576D01*
G01X18750Y12201D02*
G01X18750Y14201D01*
G01X19650Y14201D01*
G01X19650Y12201D01*
G01X18750Y12201D01*
G01X18750Y13951D02*
G01X19650Y13951D01*
G01X27200Y4401D02*
G01X27200Y6401D01*
G01X28100Y6401D01*
G01X28100Y4401D01*
G01X27200Y4401D01*
G01X27200Y6151D02*
G01X28100Y6151D01*
G01X43850Y34575D02*
G01X43850Y36575D01*
G01X44750Y36575D01*
G01X44750Y34575D01*
G01X43850Y34575D01*
G01X43850Y36325D02*
G01X44750Y36325D01*
G01X35350Y27400D02*
G01X35350Y29400D01*
G01X36250Y29400D01*
G01X36250Y27400D01*
G01X35350Y27400D01*
G01X35350Y29150D02*
G01X36250Y29150D01*
G01X35350Y19825D02*
G01X35350Y21825D01*
G01X36250Y21825D01*
G01X36250Y19825D01*
G01X35350Y19825D01*
G01X35350Y21575D02*
G01X36250Y21575D01*
G01X27200Y12201D02*
G01X27200Y14201D01*
G01X28100Y14201D01*
G01X28100Y12201D01*
G01X27200Y12201D01*
G01X27200Y13951D02*
G01X28100Y13951D01*
G01X35350Y4400D02*
G01X35350Y6400D01*
G01X36250Y6400D01*
G01X36250Y4400D01*
G01X35350Y4400D01*
G01X35350Y6150D02*
G01X36250Y6150D01*
G54D22*
G01X49700Y2850D02*
G01X48950Y2850D01*
G01X48950Y1850D01*
G01X54950Y1850D01*
G01X54950Y2850D01*
G54D24*
G01X54950Y2850D02*
G01X49700Y2850D01*
G54D10*
G01X6725Y19730D02*
G01X6798Y19730D01*
G01X6798Y21503D01*
G01X2846Y21503D01*
G01X2846Y19730D01*
G01X3674Y21502D02*
G01X3674Y22782D01*
G01X5642Y22782D01*
G01X5642Y21502D01*
G01X3871Y21502D02*
G01X3871Y22683D01*
G01X4363Y22683D01*
G01X4363Y21502D01*
G01X6719Y19719D02*
G01X3846Y19719D01*
G01X2861Y19719D02*
G01X3924Y19719D01*
G01X6725Y15530D02*
G01X6798Y15530D01*
G01X6798Y17303D01*
G01X2846Y17303D01*
G01X2846Y15530D01*
G01X3674Y17302D02*
G01X3674Y18582D01*
G01X5642Y18582D01*
G01X5642Y17302D01*
G01X3871Y17302D02*
G01X3871Y18483D01*
G01X4363Y18483D01*
G01X4363Y17302D01*
G01X6719Y15519D02*
G01X3846Y15519D01*
G01X2861Y15519D02*
G01X3924Y15519D01*
G01X4380Y23750D02*
G01X4380Y25050D01*
G01X4380Y25050D02*
G01X7919Y25050D01*
G01X7919Y25050D02*
G01X7919Y23750D01*
G01X7919Y23750D02*
G01X4380Y23750D01*
G01X9000Y17230D02*
G01X7700Y17230D01*
G01X7700Y17230D02*
G01X7700Y20769D01*
G01X7700Y20769D02*
G01X9000Y20769D01*
G01X9000Y20769D02*
G01X9000Y17230D01*

%LPD*%
G36*
G01X54418Y16431D02*
G01X54393Y16434D01*
G01X54369Y16431D01*
G01X54347Y16424D01*
G01X54326Y16413D01*
G01X54308Y16398D01*
G01X54293Y16378D01*
G01X54281Y16356D01*
G01X54274Y16330D01*
G01X54272Y16301D01*
G01X54274Y16274D01*
G01X54281Y16250D01*
G01X54293Y16228D01*
G01X54308Y16209D01*
G01X54326Y16194D01*
G01X54347Y16183D01*
G01X54369Y16176D01*
G01X54393Y16173D01*
G01X54418Y16176D01*
G01X54442Y16183D01*
G01X54463Y16194D01*
G01X54481Y16209D01*
G01X54496Y16228D01*
G01X54508Y16250D01*
G01X54515Y16274D01*
G01X54518Y16301D01*
G01X54515Y16330D01*
G01X54508Y16356D01*
G01X54496Y16378D01*
G01X54481Y16398D01*
G01X54463Y16413D01*
G01X54442Y16424D01*
G01X54418Y16431D01*
G37*

%LPD*%
G36*
G01X50792Y17307D02*
G01X50747Y17307D01*
G01X50726Y17305D01*
G01X50704Y17303D01*
G01X50683Y17300D01*
G01X50662Y17296D01*
G01X50641Y17290D01*
G01X50621Y17284D01*
G01X50601Y17277D01*
G01X50561Y17261D01*
G01X50542Y17251D01*
G01X50523Y17240D01*
G01X50506Y17229D01*
G01X50488Y17216D01*
G01X50471Y17203D01*
G01X50454Y17189D01*
G01X50438Y17174D01*
G01X50422Y17158D01*
G01X50408Y17142D01*
G01X50393Y17124D01*
G01X50380Y17106D01*
G01X50367Y17087D01*
G01X50355Y17067D01*
G01X50343Y17046D01*
G01X50333Y17025D01*
G01X50323Y17002D01*
G01X50314Y16979D01*
G01X50298Y16931D01*
G01X50286Y16879D01*
G01X50278Y16825D01*
G01X50274Y16767D01*
G01X50273Y16738D01*
G01X50274Y16708D01*
G01X50278Y16652D01*
G01X50282Y16624D01*
G01X50286Y16598D01*
G01X50292Y16572D01*
G01X50298Y16547D01*
G01X50314Y16499D01*
G01X50323Y16476D01*
G01X50333Y16454D01*
G01X50343Y16433D01*
G01X50367Y16393D01*
G01X50380Y16374D01*
G01X50393Y16356D01*
G01X50408Y16338D01*
G01X50422Y16322D01*
G01X50438Y16306D01*
G01X50454Y16292D01*
G01X50488Y16264D01*
G01X50506Y16252D01*
G01X50523Y16241D01*
G01X50542Y16230D01*
G01X50561Y16220D01*
G01X50581Y16211D01*
G01X50641Y16190D01*
G01X50662Y16185D01*
G01X50683Y16181D01*
G01X50704Y16178D01*
G01X50726Y16176D01*
G01X50747Y16174D01*
G01X50769Y16173D01*
G01X50792Y16174D01*
G01X50813Y16176D01*
G01X50835Y16178D01*
G01X50856Y16181D01*
G01X50877Y16185D01*
G01X50898Y16190D01*
G01X50918Y16197D01*
G01X50939Y16204D01*
G01X50959Y16211D01*
G01X50978Y16220D01*
G01X50997Y16230D01*
G01X51016Y16241D01*
G01X51034Y16252D01*
G01X51052Y16264D01*
G01X51086Y16292D01*
G01X51102Y16306D01*
G01X51118Y16322D01*
G01X51132Y16338D01*
G01X51147Y16356D01*
G01X51160Y16374D01*
G01X51173Y16393D01*
G01X51197Y16433D01*
G01X51208Y16454D01*
G01X51218Y16476D01*
G01X51227Y16499D01*
G01X51243Y16547D01*
G01X51249Y16572D01*
G01X51255Y16598D01*
G01X51259Y16624D01*
G01X51263Y16652D01*
G01X51267Y16708D01*
G01X51268Y16738D01*
G01X51267Y16767D01*
G01X51263Y16825D01*
G01X51255Y16879D01*
G01X51243Y16931D01*
G01X51227Y16979D01*
G01X51218Y17002D01*
G01X51208Y17025D01*
G01X51197Y17046D01*
G01X51185Y17067D01*
G01X51173Y17087D01*
G01X51160Y17106D01*
G01X51147Y17124D01*
G01X51132Y17142D01*
G01X51118Y17158D01*
G01X51102Y17174D01*
G01X51086Y17189D01*
G01X51069Y17203D01*
G01X51052Y17216D01*
G01X51034Y17229D01*
G01X51016Y17240D01*
G01X50997Y17251D01*
G01X50978Y17261D01*
G01X50959Y17269D01*
G01X50939Y17277D01*
G01X50918Y17284D01*
G01X50898Y17290D01*
G01X50877Y17296D01*
G01X50856Y17300D01*
G01X50835Y17303D01*
G01X50813Y17305D01*
G01X50792Y17307D01*
G37*

%LPC*%
G36*
G01X50790Y17169D02*
G01X50749Y17169D01*
G01X50729Y17167D01*
G01X50709Y17164D01*
G01X50690Y17159D01*
G01X50672Y17153D01*
G01X50654Y17146D01*
G01X50636Y17138D01*
G01X50620Y17129D01*
G01X50604Y17119D01*
G01X50588Y17107D01*
G01X50573Y17094D01*
G01X50559Y17081D01*
G01X50546Y17066D01*
G01X50533Y17050D01*
G01X50521Y17034D01*
G01X50510Y17016D01*
G01X50499Y16997D01*
G01X50489Y16978D01*
G01X50481Y16957D01*
G01X50472Y16936D01*
G01X50465Y16914D01*
G01X50459Y16891D01*
G01X50454Y16867D01*
G01X50450Y16843D01*
G01X50446Y16817D01*
G01X50443Y16792D01*
G01X50442Y16765D01*
G01X50442Y16710D01*
G01X50443Y16684D01*
G01X50446Y16658D01*
G01X50450Y16633D01*
G01X50454Y16609D01*
G01X50459Y16585D01*
G01X50465Y16563D01*
G01X50472Y16541D01*
G01X50481Y16520D01*
G01X50489Y16499D01*
G01X50499Y16480D01*
G01X50510Y16461D01*
G01X50521Y16444D01*
G01X50533Y16428D01*
G01X50546Y16412D01*
G01X50559Y16397D01*
G01X50573Y16384D01*
G01X50588Y16371D01*
G01X50604Y16360D01*
G01X50636Y16340D01*
G01X50654Y16332D01*
G01X50690Y16320D01*
G01X50709Y16315D01*
G01X50729Y16312D01*
G01X50749Y16310D01*
G01X50769Y16309D01*
G01X50790Y16310D01*
G01X50810Y16312D01*
G01X50830Y16315D01*
G01X50849Y16320D01*
G01X50868Y16326D01*
G01X50885Y16332D01*
G01X50903Y16340D01*
G01X50920Y16350D01*
G01X50936Y16360D01*
G01X50952Y16371D01*
G01X50967Y16384D01*
G01X50981Y16397D01*
G01X50994Y16412D01*
G01X51007Y16428D01*
G01X51019Y16444D01*
G01X51031Y16461D01*
G01X51051Y16499D01*
G01X51060Y16520D01*
G01X51068Y16541D01*
G01X51075Y16563D01*
G01X51081Y16585D01*
G01X51087Y16609D01*
G01X51092Y16633D01*
G01X51095Y16658D01*
G01X51099Y16710D01*
G01X51100Y16738D01*
G01X51099Y16765D01*
G01X51097Y16792D01*
G01X51095Y16817D01*
G01X51092Y16843D01*
G01X51087Y16867D01*
G01X51081Y16891D01*
G01X51075Y16914D01*
G01X51068Y16936D01*
G01X51060Y16957D01*
G01X51051Y16978D01*
G01X51031Y17016D01*
G01X51019Y17034D01*
G01X51007Y17050D01*
G01X50994Y17066D01*
G01X50981Y17081D01*
G01X50967Y17094D01*
G01X50952Y17107D01*
G01X50936Y17119D01*
G01X50920Y17129D01*
G01X50903Y17138D01*
G01X50885Y17146D01*
G01X50868Y17153D01*
G01X50849Y17159D01*
G01X50830Y17164D01*
G01X50810Y17167D01*
G01X50790Y17169D01*
G37*

%LPD*%
G36*
G01X49211Y17307D02*
G01X49159Y17307D01*
G01X49131Y17305D01*
G01X49105Y17302D01*
G01X49080Y17297D01*
G01X49056Y17291D01*
G01X49032Y17284D01*
G01X49010Y17276D01*
G01X48989Y17267D01*
G01X48951Y17245D01*
G01X48934Y17233D01*
G01X48902Y17205D01*
G01X48876Y17175D01*
G01X48865Y17159D01*
G01X48855Y17141D01*
G01X48846Y17123D01*
G01X48839Y17105D01*
G01X48832Y17086D01*
G01X48828Y17067D01*
G01X48824Y17047D01*
G01X48822Y17026D01*
G01X48822Y17005D01*
G01X48823Y16979D01*
G01X48827Y16953D01*
G01X48832Y16930D01*
G01X48841Y16908D01*
G01X48851Y16887D01*
G01X48863Y16867D01*
G01X48877Y16849D01*
G01X48892Y16832D01*
G01X48909Y16816D01*
G01X48927Y16802D01*
G01X48946Y16788D01*
G01X48966Y16775D01*
G01X48987Y16762D01*
G01X49031Y16740D01*
G01X49055Y16730D01*
G01X49078Y16720D01*
G01X49124Y16702D01*
G01X49147Y16694D01*
G01X49171Y16685D01*
G01X49193Y16677D01*
G01X49216Y16667D01*
G01X49238Y16658D01*
G01X49260Y16648D01*
G01X49281Y16638D01*
G01X49301Y16627D01*
G01X49319Y16615D01*
G01X49336Y16602D01*
G01X49352Y16588D01*
G01X49366Y16573D01*
G01X49377Y16557D01*
G01X49387Y16540D01*
G01X49394Y16522D01*
G01X49398Y16503D01*
G01X49400Y16482D01*
G01X49399Y16463D01*
G01X49396Y16445D01*
G01X49392Y16428D01*
G01X49385Y16411D01*
G01X49378Y16396D01*
G01X49368Y16381D01*
G01X49357Y16367D01*
G01X49344Y16354D01*
G01X49329Y16342D01*
G01X49312Y16332D01*
G01X49294Y16323D01*
G01X49274Y16315D01*
G01X49252Y16309D01*
G01X49228Y16305D01*
G01X49203Y16303D01*
G01X49176Y16301D01*
G01X49151Y16302D01*
G01X49126Y16304D01*
G01X49103Y16307D01*
G01X49081Y16311D01*
G01X49059Y16316D01*
G01X49037Y16322D01*
G01X49017Y16329D01*
G01X48997Y16337D01*
G01X48977Y16346D01*
G01X48958Y16356D01*
G01X48939Y16367D01*
G01X48921Y16378D01*
G01X48903Y16390D01*
G01X48885Y16403D01*
G01X48867Y16417D01*
G01X48850Y16432D01*
G01X48768Y16321D01*
G01X48787Y16306D01*
G01X48808Y16291D01*
G01X48829Y16277D01*
G01X48852Y16263D01*
G01X48875Y16250D01*
G01X48899Y16238D01*
G01X48924Y16226D01*
G01X48949Y16216D01*
G01X48975Y16207D01*
G01X49002Y16198D01*
G01X49029Y16191D01*
G01X49056Y16185D01*
G01X49084Y16180D01*
G01X49112Y16176D01*
G01X49141Y16174D01*
G01X49169Y16173D01*
G01X49200Y16174D01*
G01X49230Y16176D01*
G01X49258Y16180D01*
G01X49285Y16185D01*
G01X49311Y16191D01*
G01X49359Y16207D01*
G01X49381Y16217D01*
G01X49402Y16228D01*
G01X49421Y16240D01*
G01X49439Y16253D01*
G01X49456Y16267D01*
G01X49472Y16282D01*
G01X49486Y16298D01*
G01X49499Y16314D01*
G01X49511Y16331D01*
G01X49521Y16349D01*
G01X49530Y16367D01*
G01X49538Y16387D01*
G01X49544Y16406D01*
G01X49549Y16427D01*
G01X49553Y16447D01*
G01X49555Y16468D01*
G01X49556Y16490D01*
G01X49555Y16515D01*
G01X49552Y16538D01*
G01X49548Y16560D01*
G01X49542Y16581D01*
G01X49534Y16601D01*
G01X49526Y16619D01*
G01X49504Y16653D01*
G01X49492Y16668D01*
G01X49478Y16682D01*
G01X49463Y16696D01*
G01X49448Y16709D01*
G01X49431Y16720D01*
G01X49414Y16732D01*
G01X49397Y16742D01*
G01X49378Y16752D01*
G01X49360Y16762D01*
G01X49340Y16771D01*
G01X49321Y16780D01*
G01X49241Y16812D01*
G01X49222Y16819D01*
G01X49198Y16828D01*
G01X49176Y16836D01*
G01X49153Y16844D01*
G01X49131Y16853D01*
G01X49110Y16862D01*
G01X49090Y16872D01*
G01X49071Y16882D01*
G01X49053Y16892D01*
G01X49037Y16904D01*
G01X49022Y16916D01*
G01X49009Y16930D01*
G01X48998Y16944D01*
G01X48989Y16959D01*
G01X48983Y16976D01*
G01X48979Y16994D01*
G01X48977Y17013D01*
G01X48979Y17035D01*
G01X48983Y17056D01*
G01X48990Y17076D01*
G01X49000Y17095D01*
G01X49013Y17113D01*
G01X49029Y17128D01*
G01X49047Y17142D01*
G01X49069Y17155D01*
G01X49094Y17164D01*
G01X49122Y17171D01*
G01X49153Y17176D01*
G01X49188Y17178D01*
G01X49211Y17177D01*
G01X49235Y17174D01*
G01X49257Y17170D01*
G01X49280Y17165D01*
G01X49301Y17158D01*
G01X49322Y17150D01*
G01X49342Y17140D01*
G01X49361Y17130D01*
G01X49381Y17119D01*
G01X49419Y17095D01*
G01X49438Y17082D01*
G01X49515Y17188D01*
G01X49500Y17200D01*
G01X49483Y17212D01*
G01X49466Y17223D01*
G01X49448Y17234D01*
G01X49429Y17244D01*
G01X49410Y17255D01*
G01X49389Y17264D01*
G01X49369Y17272D01*
G01X49347Y17280D01*
G01X49326Y17287D01*
G01X49304Y17293D01*
G01X49281Y17298D01*
G01X49258Y17302D01*
G01X49235Y17305D01*
G01X49211Y17307D01*
G37*

%LPD*%
G36*
G01X46644Y17307D02*
G01X46599Y17307D01*
G01X46578Y17305D01*
G01X46558Y17303D01*
G01X46538Y17300D01*
G01X46498Y17290D01*
G01X46478Y17283D01*
G01X46459Y17276D01*
G01X46439Y17268D01*
G01X46421Y17259D01*
G01X46402Y17249D01*
G01X46384Y17238D01*
G01X46367Y17226D01*
G01X46333Y17200D01*
G01X46317Y17186D01*
G01X46301Y17171D01*
G01X46285Y17155D01*
G01X46271Y17138D01*
G01X46243Y17102D01*
G01X46231Y17082D01*
G01X46219Y17063D01*
G01X46207Y17042D01*
G01X46187Y16998D01*
G01X46178Y16975D01*
G01X46170Y16951D01*
G01X46163Y16927D01*
G01X46156Y16902D01*
G01X46146Y16850D01*
G01X46142Y16823D01*
G01X46138Y16767D01*
G01X46138Y16708D01*
G01X46139Y16680D01*
G01X46142Y16652D01*
G01X46150Y16598D01*
G01X46162Y16548D01*
G01X46169Y16523D01*
G01X46177Y16500D01*
G01X46186Y16477D01*
G01X46197Y16455D01*
G01X46207Y16434D01*
G01X46218Y16413D01*
G01X46244Y16375D01*
G01X46257Y16357D01*
G01X46272Y16339D01*
G01X46287Y16323D01*
G01X46303Y16307D01*
G01X46319Y16292D01*
G01X46336Y16278D01*
G01X46354Y16265D01*
G01X46390Y16241D01*
G01X46410Y16230D01*
G01X46450Y16212D01*
G01X46470Y16204D01*
G01X46492Y16197D01*
G01X46513Y16191D01*
G01X46557Y16181D01*
G01X46580Y16178D01*
G01X46626Y16174D01*
G01X46650Y16173D01*
G01X46677Y16174D01*
G01X46704Y16176D01*
G01X46730Y16178D01*
G01X46755Y16182D01*
G01X46803Y16192D01*
G01X46826Y16199D01*
G01X46847Y16206D01*
G01X46869Y16214D01*
G01X46890Y16222D01*
G01X46910Y16232D01*
G01X46930Y16241D01*
G01X46968Y16261D01*
G01X46986Y16272D01*
G01X47004Y16284D01*
G01X46943Y16392D01*
G01X46923Y16378D01*
G01X46903Y16366D01*
G01X46882Y16355D01*
G01X46860Y16345D01*
G01X46839Y16336D01*
G01X46816Y16327D01*
G01X46793Y16320D01*
G01X46770Y16314D01*
G01X46746Y16310D01*
G01X46721Y16306D01*
G01X46696Y16304D01*
G01X46669Y16303D01*
G01X46647Y16304D01*
G01X46624Y16306D01*
G01X46603Y16309D01*
G01X46581Y16313D01*
G01X46561Y16318D01*
G01X46541Y16325D01*
G01X46522Y16332D01*
G01X46504Y16341D01*
G01X46485Y16351D01*
G01X46468Y16361D01*
G01X46436Y16385D01*
G01X46422Y16399D01*
G01X46407Y16413D01*
G01X46381Y16445D01*
G01X46369Y16463D01*
G01X46359Y16481D01*
G01X46339Y16519D01*
G01X46331Y16540D01*
G01X46324Y16561D01*
G01X46317Y16583D01*
G01X46307Y16629D01*
G01X46304Y16653D01*
G01X46301Y16678D01*
G01X46300Y16703D01*
G01X47038Y16703D01*
G01X47041Y16725D01*
G01X47044Y16749D01*
G01X47045Y16775D01*
G01X47046Y16802D01*
G01X47045Y16830D01*
G01X47044Y16859D01*
G01X47042Y16886D01*
G01X47038Y16913D01*
G01X47034Y16939D01*
G01X47029Y16964D01*
G01X47017Y17012D01*
G01X47010Y17035D01*
G01X47001Y17057D01*
G01X46992Y17078D01*
G01X46982Y17099D01*
G01X46960Y17137D01*
G01X46947Y17155D01*
G01X46934Y17171D01*
G01X46920Y17188D01*
G01X46905Y17203D01*
G01X46889Y17217D01*
G01X46873Y17230D01*
G01X46856Y17242D01*
G01X46838Y17253D01*
G01X46819Y17263D01*
G01X46800Y17272D01*
G01X46780Y17280D01*
G01X46759Y17288D01*
G01X46738Y17294D01*
G01X46715Y17298D01*
G01X46692Y17303D01*
G01X46669Y17305D01*
G01X46644Y17307D01*
G37*

%LPC*%
G36*
G01X46643Y17175D02*
G01X46622Y17176D01*
G01X46602Y17175D01*
G01X46582Y17173D01*
G01X46563Y17169D01*
G01X46543Y17165D01*
G01X46525Y17159D01*
G01X46506Y17152D01*
G01X46489Y17143D01*
G01X46471Y17134D01*
G01X46455Y17123D01*
G01X46438Y17110D01*
G01X46423Y17097D01*
G01X46393Y17067D01*
G01X46380Y17050D01*
G01X46368Y17032D01*
G01X46356Y17013D01*
G01X46345Y16993D01*
G01X46335Y16971D01*
G01X46326Y16949D01*
G01X46318Y16926D01*
G01X46311Y16901D01*
G01X46306Y16876D01*
G01X46301Y16849D01*
G01X46297Y16821D01*
G01X46902Y16821D01*
G01X46901Y16850D01*
G01X46899Y16877D01*
G01X46897Y16903D01*
G01X46893Y16928D01*
G01X46888Y16952D01*
G01X46882Y16975D01*
G01X46876Y16996D01*
G01X46868Y17016D01*
G01X46859Y17036D01*
G01X46850Y17053D01*
G01X46839Y17070D01*
G01X46827Y17086D01*
G01X46815Y17100D01*
G01X46802Y17113D01*
G01X46788Y17125D01*
G01X46756Y17145D01*
G01X46739Y17153D01*
G01X46722Y17160D01*
G01X46684Y17170D01*
G01X46664Y17173D01*
G01X46643Y17175D01*
G37*

%LPD*%
G36*
G01X55334Y17663D02*
G01X55210Y17663D01*
G01X55190Y17652D01*
G01X55170Y17642D01*
G01X55149Y17632D01*
G01X55127Y17622D01*
G01X55104Y17613D01*
G01X55080Y17605D01*
G01X55055Y17596D01*
G01X55029Y17589D01*
G01X55002Y17582D01*
G01X54974Y17575D01*
G01X54914Y17563D01*
G01X54914Y17457D01*
G01X55172Y17457D01*
G01X55172Y16336D01*
G01X54843Y16336D01*
G01X54843Y16200D01*
G01X55631Y16200D01*
G01X55631Y16336D01*
G01X55334Y16336D01*
G01X55334Y17663D01*
G37*

%LPD*%
G36*
G01X53696Y17663D02*
G01X53572Y17663D01*
G01X53552Y17652D01*
G01X53532Y17642D01*
G01X53511Y17632D01*
G01X53489Y17622D01*
G01X53466Y17613D01*
G01X53442Y17605D01*
G01X53417Y17596D01*
G01X53391Y17589D01*
G01X53364Y17582D01*
G01X53336Y17575D01*
G01X53276Y17563D01*
G01X53276Y17457D01*
G01X53534Y17457D01*
G01X53534Y16336D01*
G01X53206Y16336D01*
G01X53206Y16200D01*
G01X53993Y16200D01*
G01X53993Y16336D01*
G01X53696Y16336D01*
G01X53696Y17663D01*
G37*

%LPD*%
G36*
G01X52103Y17307D02*
G01X52052Y17307D01*
G01X52026Y17304D01*
G01X52000Y17299D01*
G01X51975Y17293D01*
G01X51951Y17285D01*
G01X51927Y17276D01*
G01X51904Y17265D01*
G01X51881Y17253D01*
G01X51859Y17240D01*
G01X51837Y17225D01*
G01X51816Y17210D01*
G01X51796Y17194D01*
G01X51775Y17177D01*
G01X51755Y17159D01*
G01X51715Y17121D01*
G01X51710Y17121D01*
G01X51693Y17280D01*
G01X51561Y17280D01*
G01X51561Y16200D01*
G01X51723Y16200D01*
G01X51723Y16990D01*
G01X51744Y17011D01*
G01X51784Y17049D01*
G01X51803Y17066D01*
G01X51822Y17082D01*
G01X51840Y17096D01*
G01X51859Y17109D01*
G01X51877Y17121D01*
G01X51895Y17131D01*
G01X51914Y17140D01*
G01X51932Y17148D01*
G01X51951Y17154D01*
G01X51970Y17159D01*
G01X51990Y17163D01*
G01X52010Y17165D01*
G01X52053Y17165D01*
G01X52074Y17163D01*
G01X52093Y17159D01*
G01X52111Y17154D01*
G01X52128Y17148D01*
G01X52144Y17140D01*
G01X52158Y17131D01*
G01X52172Y17120D01*
G01X52184Y17107D01*
G01X52195Y17094D01*
G01X52205Y17078D01*
G01X52213Y17061D01*
G01X52221Y17042D01*
G01X52228Y17022D01*
G01X52233Y17000D01*
G01X52238Y16977D01*
G01X52241Y16951D01*
G01X52243Y16925D01*
G01X52245Y16896D01*
G01X52246Y16865D01*
G01X52246Y16200D01*
G01X52410Y16200D01*
G01X52410Y16886D01*
G01X52409Y16915D01*
G01X52408Y16943D01*
G01X52406Y16970D01*
G01X52403Y16996D01*
G01X52400Y17021D01*
G01X52395Y17045D01*
G01X52390Y17068D01*
G01X52384Y17090D01*
G01X52377Y17111D01*
G01X52369Y17131D01*
G01X52360Y17150D01*
G01X52351Y17167D01*
G01X52340Y17184D01*
G01X52329Y17200D01*
G01X52317Y17215D01*
G01X52304Y17228D01*
G01X52290Y17241D01*
G01X52276Y17252D01*
G01X52260Y17263D01*
G01X52244Y17272D01*
G01X52227Y17280D01*
G01X52208Y17288D01*
G01X52189Y17294D01*
G01X52169Y17299D01*
G01X52148Y17303D01*
G01X52126Y17305D01*
G01X52103Y17307D01*
G37*

%LPD*%
G36*
G01X49981Y17280D02*
G01X49819Y17280D01*
G01X49819Y16200D01*
G01X49981Y16200D01*
G01X49981Y17280D01*
G37*

%LPD*%
G36*
G01X48518Y17280D02*
G01X48356Y17280D01*
G01X48356Y16200D01*
G01X48518Y16200D01*
G01X48518Y17280D01*
G37*

%LPD*%
G36*
G01X47339Y17280D02*
G01X47169Y17280D01*
G01X47564Y16200D01*
G01X47754Y16200D01*
G01X48139Y17280D01*
G01X47980Y17280D01*
G01X47765Y16652D01*
G01X47749Y16598D01*
G01X47732Y16545D01*
G01X47714Y16491D01*
G01X47706Y16464D01*
G01X47697Y16438D01*
G01X47689Y16411D01*
G01X47680Y16385D01*
G01X47672Y16359D01*
G01X47664Y16334D01*
G01X47656Y16334D01*
G01X47647Y16359D01*
G01X47638Y16385D01*
G01X47630Y16411D01*
G01X47621Y16438D01*
G01X47612Y16464D01*
G01X47604Y16491D01*
G01X47595Y16518D01*
G01X47587Y16545D01*
G01X47578Y16571D01*
G01X47570Y16598D01*
G01X47561Y16625D01*
G01X47554Y16652D01*
G01X47339Y17280D01*
G37*

%LPD*%
G36*
G01X45479Y17663D02*
G01X45004Y17663D01*
G01X45004Y16200D01*
G01X45169Y16200D01*
G01X45169Y16832D01*
G01X45443Y16832D01*
G01X45810Y16200D01*
G01X45996Y16200D01*
G01X45618Y16848D01*
G01X45643Y16854D01*
G01X45668Y16861D01*
G01X45691Y16869D01*
G01X45714Y16878D01*
G01X45736Y16888D01*
G01X45757Y16899D01*
G01X45778Y16911D01*
G01X45797Y16923D01*
G01X45816Y16937D01*
G01X45850Y16967D01*
G01X45865Y16984D01*
G01X45879Y17001D01*
G01X45892Y17019D01*
G01X45904Y17039D01*
G01X45915Y17059D01*
G01X45925Y17080D01*
G01X45941Y17126D01*
G01X45947Y17151D01*
G01X45951Y17176D01*
G01X45955Y17202D01*
G01X45957Y17229D01*
G01X45957Y17285D01*
G01X45955Y17311D01*
G01X45952Y17337D01*
G01X45948Y17361D01*
G01X45943Y17384D01*
G01X45929Y17428D01*
G01X45920Y17448D01*
G01X45911Y17467D01*
G01X45900Y17484D01*
G01X45889Y17502D01*
G01X45876Y17518D01*
G01X45863Y17533D01*
G01X45848Y17547D01*
G01X45832Y17561D01*
G01X45816Y17573D01*
G01X45799Y17584D01*
G01X45781Y17595D01*
G01X45762Y17605D01*
G01X45743Y17614D01*
G01X45701Y17630D01*
G01X45679Y17636D01*
G01X45656Y17642D01*
G01X45633Y17647D01*
G01X45609Y17652D01*
G01X45559Y17658D01*
G01X45533Y17661D01*
G01X45479Y17663D01*
G37*

%LPC*%
G36*
G01X45426Y17530D02*
G01X45169Y17530D01*
G01X45169Y16967D01*
G01X45426Y16967D01*
G01X45455Y16968D01*
G01X45482Y16969D01*
G01X45509Y16972D01*
G01X45535Y16975D01*
G01X45559Y16980D01*
G01X45582Y16985D01*
G01X45604Y16992D01*
G01X45625Y16999D01*
G01X45645Y17007D01*
G01X45664Y17017D01*
G01X45681Y17028D01*
G01X45697Y17039D01*
G01X45712Y17052D01*
G01X45726Y17065D01*
G01X45738Y17080D01*
G01X45749Y17095D01*
G01X45759Y17112D01*
G01X45768Y17130D01*
G01X45775Y17148D01*
G01X45781Y17168D01*
G01X45785Y17189D01*
G01X45789Y17211D01*
G01X45791Y17234D01*
G01X45792Y17257D01*
G01X45791Y17282D01*
G01X45789Y17305D01*
G01X45785Y17327D01*
G01X45781Y17347D01*
G01X45775Y17366D01*
G01X45768Y17384D01*
G01X45759Y17401D01*
G01X45749Y17417D01*
G01X45738Y17432D01*
G01X45726Y17445D01*
G01X45712Y17457D01*
G01X45697Y17469D01*
G01X45681Y17479D01*
G01X45664Y17488D01*
G01X45645Y17496D01*
G01X45625Y17503D01*
G01X45604Y17510D01*
G01X45582Y17515D01*
G01X45559Y17520D01*
G01X45535Y17523D01*
G01X45509Y17526D01*
G01X45482Y17528D01*
G01X45455Y17529D01*
G01X45426Y17530D01*
G37*

%LPD*%
G36*
G01X49925Y17732D02*
G01X49902Y17734D01*
G01X49877Y17732D01*
G01X49854Y17726D01*
G01X49834Y17717D01*
G01X49817Y17704D01*
G01X49803Y17688D01*
G01X49792Y17669D01*
G01X49786Y17646D01*
G01X49784Y17621D01*
G01X49786Y17598D01*
G01X49792Y17577D01*
G01X49803Y17559D01*
G01X49817Y17542D01*
G01X49834Y17530D01*
G01X49854Y17520D01*
G01X49877Y17514D01*
G01X49902Y17511D01*
G01X49925Y17514D01*
G01X49947Y17520D01*
G01X49967Y17530D01*
G01X49985Y17542D01*
G01X49999Y17559D01*
G01X50010Y17577D01*
G01X50017Y17598D01*
G01X50019Y17621D01*
G01X50017Y17646D01*
G01X50010Y17669D01*
G01X49999Y17688D01*
G01X49985Y17704D01*
G01X49967Y17717D01*
G01X49947Y17726D01*
G01X49925Y17732D01*
G37*

%LPD*%
G36*
G01X48461Y17732D02*
G01X48438Y17734D01*
G01X48413Y17732D01*
G01X48390Y17726D01*
G01X48370Y17717D01*
G01X48353Y17704D01*
G01X48339Y17688D01*
G01X48328Y17669D01*
G01X48322Y17646D01*
G01X48319Y17621D01*
G01X48322Y17598D01*
G01X48328Y17577D01*
G01X48339Y17559D01*
G01X48353Y17542D01*
G01X48370Y17530D01*
G01X48390Y17520D01*
G01X48413Y17514D01*
G01X48438Y17511D01*
G01X48461Y17514D01*
G01X48483Y17520D01*
G01X48503Y17530D01*
G01X48521Y17542D01*
G01X48535Y17559D01*
G01X48546Y17577D01*
G01X48553Y17598D01*
G01X48556Y17621D01*
G01X48553Y17646D01*
G01X48546Y17669D01*
G01X48535Y17688D01*
G01X48521Y17704D01*
G01X48503Y17717D01*
G01X48483Y17726D01*
G01X48461Y17732D01*
G37*

%LPD*%
G36*
G01X47372Y19680D02*
G01X47202Y19680D01*
G01X47638Y18594D01*
G01X47614Y18509D01*
G01X47594Y18459D01*
G01X47583Y18435D01*
G01X47571Y18412D01*
G01X47559Y18391D01*
G01X47545Y18371D01*
G01X47531Y18352D01*
G01X47516Y18335D01*
G01X47500Y18319D01*
G01X47483Y18306D01*
G01X47465Y18294D01*
G01X47447Y18284D01*
G01X47427Y18276D01*
G01X47406Y18270D01*
G01X47384Y18267D01*
G01X47361Y18265D01*
G01X47339Y18267D01*
G01X47317Y18271D01*
G01X47296Y18276D01*
G01X47277Y18282D01*
G01X47243Y18150D01*
G01X47271Y18140D01*
G01X47300Y18133D01*
G01X47333Y18129D01*
G01X47368Y18128D01*
G01X47393Y18128D01*
G01X47418Y18131D01*
G01X47442Y18135D01*
G01X47465Y18141D01*
G01X47486Y18148D01*
G01X47507Y18157D01*
G01X47528Y18167D01*
G01X47547Y18178D01*
G01X47565Y18191D01*
G01X47583Y18205D01*
G01X47600Y18220D01*
G01X47616Y18236D01*
G01X47632Y18253D01*
G01X47647Y18272D01*
G01X47660Y18291D01*
G01X47674Y18311D01*
G01X47687Y18332D01*
G01X47699Y18355D01*
G01X47711Y18377D01*
G01X47722Y18401D01*
G01X47732Y18424D01*
G01X47743Y18449D01*
G01X47752Y18474D01*
G01X47761Y18500D01*
G01X48173Y19680D01*
G01X48014Y19680D01*
G01X47811Y19061D01*
G01X47804Y19038D01*
G01X47796Y19013D01*
G01X47789Y18988D01*
G01X47781Y18963D01*
G01X47773Y18937D01*
G01X47758Y18885D01*
G01X47742Y18833D01*
G01X47735Y18807D01*
G01X47719Y18757D01*
G01X47710Y18757D01*
G01X47701Y18782D01*
G01X47691Y18807D01*
G01X47637Y18963D01*
G01X47610Y19038D01*
G01X47602Y19061D01*
G01X47372Y19680D01*
G37*

%LPD*%
G36*
G01X53496Y20192D02*
G01X53334Y20192D01*
G01X53334Y19767D01*
G01X53342Y19580D01*
G01X53323Y19594D01*
G01X53305Y19608D01*
G01X53288Y19621D01*
G01X53252Y19645D01*
G01X53216Y19665D01*
G01X53198Y19673D01*
G01X53179Y19681D01*
G01X53160Y19688D01*
G01X53140Y19694D01*
G01X53120Y19699D01*
G01X53099Y19703D01*
G01X53055Y19707D01*
G01X53011Y19707D01*
G01X52990Y19705D01*
G01X52970Y19703D01*
G01X52950Y19700D01*
G01X52910Y19690D01*
G01X52872Y19676D01*
G01X52854Y19668D01*
G01X52835Y19659D01*
G01X52817Y19648D01*
G01X52800Y19638D01*
G01X52782Y19626D01*
G01X52765Y19613D01*
G01X52749Y19600D01*
G01X52734Y19585D01*
G01X52718Y19570D01*
G01X52704Y19554D01*
G01X52689Y19537D01*
G01X52663Y19501D01*
G01X52651Y19482D01*
G01X52639Y19461D01*
G01X52628Y19441D01*
G01X52618Y19419D01*
G01X52609Y19397D01*
G01X52600Y19374D01*
G01X52592Y19351D01*
G01X52585Y19326D01*
G01X52579Y19301D01*
G01X52574Y19276D01*
G01X52569Y19249D01*
G01X52566Y19222D01*
G01X52564Y19195D01*
G01X52562Y19166D01*
G01X52561Y19138D01*
G01X52562Y19108D01*
G01X52563Y19079D01*
G01X52565Y19051D01*
G01X52568Y19023D01*
G01X52571Y18997D01*
G01X52576Y18971D01*
G01X52586Y18921D01*
G01X52600Y18875D01*
G01X52608Y18853D01*
G01X52617Y18831D01*
G01X52626Y18811D01*
G01X52636Y18791D01*
G01X52647Y18772D01*
G01X52658Y18754D01*
G01X52670Y18737D01*
G01X52682Y18721D01*
G01X52696Y18705D01*
G01X52710Y18690D01*
G01X52724Y18676D01*
G01X52739Y18663D01*
G01X52755Y18651D01*
G01X52771Y18640D01*
G01X52788Y18629D01*
G01X52805Y18620D01*
G01X52823Y18611D01*
G01X52842Y18603D01*
G01X52860Y18596D01*
G01X52880Y18590D01*
G01X52900Y18585D01*
G01X52921Y18581D01*
G01X52963Y18575D01*
G01X53007Y18573D01*
G01X53032Y18574D01*
G01X53080Y18580D01*
G01X53126Y18592D01*
G01X53148Y18600D01*
G01X53170Y18609D01*
G01X53192Y18619D01*
G01X53213Y18630D01*
G01X53233Y18642D01*
G01X53252Y18655D01*
G01X53272Y18669D01*
G01X53290Y18683D01*
G01X53308Y18698D01*
G01X53325Y18713D01*
G01X53342Y18730D01*
G01X53346Y18730D01*
G01X53361Y18600D01*
G01X53496Y18600D01*
G01X53496Y20192D01*
G37*

%LPC*%
G36*
G01X53081Y19569D02*
G01X53038Y19569D01*
G01X53019Y19567D01*
G01X52981Y19559D01*
G01X52964Y19553D01*
G01X52946Y19546D01*
G01X52929Y19538D01*
G01X52897Y19518D01*
G01X52881Y19506D01*
G01X52866Y19493D01*
G01X52852Y19480D01*
G01X52838Y19465D01*
G01X52826Y19449D01*
G01X52813Y19432D01*
G01X52802Y19415D01*
G01X52791Y19396D01*
G01X52781Y19377D01*
G01X52772Y19356D01*
G01X52764Y19335D01*
G01X52756Y19313D01*
G01X52744Y19267D01*
G01X52740Y19243D01*
G01X52736Y19218D01*
G01X52732Y19166D01*
G01X52731Y19140D01*
G01X52732Y19111D01*
G01X52733Y19084D01*
G01X52735Y19058D01*
G01X52738Y19032D01*
G01X52742Y19007D01*
G01X52747Y18983D01*
G01X52752Y18961D01*
G01X52758Y18938D01*
G01X52765Y18917D01*
G01X52773Y18897D01*
G01X52791Y18859D01*
G01X52801Y18842D01*
G01X52812Y18826D01*
G01X52836Y18796D01*
G01X52850Y18783D01*
G01X52864Y18771D01*
G01X52878Y18760D01*
G01X52893Y18750D01*
G01X52910Y18741D01*
G01X52926Y18733D01*
G01X52962Y18721D01*
G01X52981Y18717D01*
G01X53000Y18714D01*
G01X53021Y18712D01*
G01X53042Y18711D01*
G01X53067Y18713D01*
G01X53093Y18716D01*
G01X53118Y18721D01*
G01X53142Y18729D01*
G01X53167Y18738D01*
G01X53190Y18750D01*
G01X53214Y18764D01*
G01X53238Y18780D01*
G01X53262Y18798D01*
G01X53286Y18819D01*
G01X53310Y18841D01*
G01X53334Y18865D01*
G01X53334Y19450D01*
G01X53309Y19470D01*
G01X53285Y19488D01*
G01X53262Y19505D01*
G01X53239Y19519D01*
G01X53217Y19531D01*
G01X53194Y19542D01*
G01X53172Y19551D01*
G01X53149Y19557D01*
G01X53127Y19563D01*
G01X53104Y19567D01*
G01X53081Y19569D01*
G37*

%LPD*%
G36*
G01X51213Y19707D02*
G01X51160Y19707D01*
G01X51134Y19705D01*
G01X51109Y19703D01*
G01X51084Y19699D01*
G01X51060Y19694D01*
G01X51036Y19688D01*
G01X51013Y19682D01*
G01X50989Y19675D01*
G01X50967Y19668D01*
G01X50946Y19660D01*
G01X50924Y19651D01*
G01X50884Y19633D01*
G01X50865Y19623D01*
G01X50846Y19614D01*
G01X50829Y19604D01*
G01X50811Y19594D01*
G01X50796Y19584D01*
G01X50780Y19575D01*
G01X50765Y19565D01*
G01X50831Y19452D01*
G01X50847Y19463D01*
G01X50864Y19473D01*
G01X50881Y19484D01*
G01X50899Y19495D01*
G01X50937Y19515D01*
G01X50977Y19533D01*
G01X50998Y19542D01*
G01X51020Y19549D01*
G01X51042Y19555D01*
G01X51065Y19561D01*
G01X51111Y19569D01*
G01X51135Y19571D01*
G01X51186Y19571D01*
G01X51211Y19567D01*
G01X51234Y19562D01*
G01X51255Y19555D01*
G01X51274Y19547D01*
G01X51292Y19536D01*
G01X51307Y19525D01*
G01X51321Y19511D01*
G01X51334Y19497D01*
G01X51345Y19481D01*
G01X51355Y19465D01*
G01X51363Y19447D01*
G01X51370Y19428D01*
G01X51376Y19409D01*
G01X51381Y19388D01*
G01X51384Y19368D01*
G01X51387Y19346D01*
G01X51389Y19325D01*
G01X51389Y19282D01*
G01X51352Y19277D01*
G01X51314Y19272D01*
G01X51244Y19262D01*
G01X51211Y19256D01*
G01X51179Y19250D01*
G01X51148Y19244D01*
G01X51118Y19237D01*
G01X51089Y19230D01*
G01X51061Y19222D01*
G01X51035Y19214D01*
G01X50985Y19198D01*
G01X50962Y19188D01*
G01X50940Y19179D01*
G01X50919Y19169D01*
G01X50899Y19159D01*
G01X50881Y19148D01*
G01X50863Y19138D01*
G01X50846Y19126D01*
G01X50816Y19102D01*
G01X50802Y19089D01*
G01X50790Y19076D01*
G01X50768Y19048D01*
G01X50759Y19033D01*
G01X50751Y19018D01*
G01X50743Y19002D01*
G01X50737Y18986D01*
G01X50731Y18969D01*
G01X50727Y18952D01*
G01X50724Y18934D01*
G01X50722Y18916D01*
G01X50720Y18897D01*
G01X50719Y18878D01*
G01X50721Y18849D01*
G01X50723Y18821D01*
G01X50728Y18795D01*
G01X50735Y18771D01*
G01X50743Y18747D01*
G01X50765Y18705D01*
G01X50779Y18686D01*
G01X50793Y18668D01*
G01X50810Y18652D01*
G01X50827Y18637D01*
G01X50846Y18624D01*
G01X50866Y18612D01*
G01X50887Y18602D01*
G01X50909Y18594D01*
G01X50932Y18586D01*
G01X50956Y18581D01*
G01X50981Y18577D01*
G01X51007Y18574D01*
G01X51034Y18573D01*
G01X51059Y18574D01*
G01X51109Y18580D01*
G01X51157Y18592D01*
G01X51181Y18600D01*
G01X51205Y18609D01*
G01X51227Y18619D01*
G01X51250Y18631D01*
G01X51272Y18643D01*
G01X51294Y18656D01*
G01X51316Y18670D01*
G01X51337Y18684D01*
G01X51357Y18700D01*
G01X51378Y18715D01*
G01X51397Y18732D01*
G01X51404Y18732D01*
G01X51418Y18600D01*
G01X51552Y18600D01*
G01X51552Y19269D01*
G01X51551Y19297D01*
G01X51550Y19324D01*
G01X51548Y19350D01*
G01X51545Y19376D01*
G01X51541Y19400D01*
G01X51537Y19425D01*
G01X51531Y19448D01*
G01X51525Y19470D01*
G01X51518Y19492D01*
G01X51500Y19532D01*
G01X51490Y19551D01*
G01X51479Y19569D01*
G01X51467Y19586D01*
G01X51454Y19602D01*
G01X51425Y19631D01*
G01X51408Y19644D01*
G01X51391Y19655D01*
G01X51373Y19666D01*
G01X51353Y19676D01*
G01X51333Y19684D01*
G01X51311Y19691D01*
G01X51288Y19697D01*
G01X51264Y19702D01*
G01X51239Y19705D01*
G01X51213Y19707D01*
G37*

%LPC*%
G36*
G01X51389Y18855D02*
G01X51389Y19171D01*
G01X51350Y19167D01*
G01X51311Y19161D01*
G01X51275Y19156D01*
G01X51241Y19150D01*
G01X51208Y19143D01*
G01X51177Y19136D01*
G01X51148Y19129D01*
G01X51121Y19122D01*
G01X51095Y19114D01*
G01X51071Y19106D01*
G01X51048Y19097D01*
G01X51028Y19088D01*
G01X50990Y19069D01*
G01X50974Y19058D01*
G01X50959Y19048D01*
G01X50945Y19036D01*
G01X50933Y19025D01*
G01X50922Y19013D01*
G01X50912Y19001D01*
G01X50904Y18988D01*
G01X50897Y18975D01*
G01X50891Y18961D01*
G01X50886Y18948D01*
G01X50882Y18933D01*
G01X50878Y18903D01*
G01X50877Y18888D01*
G01X50879Y18857D01*
G01X50885Y18829D01*
G01X50893Y18804D01*
G01X50905Y18782D01*
G01X50919Y18764D01*
G01X50936Y18748D01*
G01X50956Y18734D01*
G01X50977Y18724D01*
G01X51000Y18716D01*
G01X51025Y18710D01*
G01X51051Y18707D01*
G01X51077Y18705D01*
G01X51098Y18706D01*
G01X51118Y18708D01*
G01X51138Y18711D01*
G01X51157Y18715D01*
G01X51177Y18721D01*
G01X51196Y18727D01*
G01X51214Y18735D01*
G01X51234Y18744D01*
G01X51252Y18754D01*
G01X51272Y18765D01*
G01X51290Y18777D01*
G01X51310Y18791D01*
G01X51329Y18805D01*
G01X51349Y18821D01*
G01X51389Y18855D01*
G37*

%LPD*%
G36*
G01X50052Y19707D02*
G01X50007Y19707D01*
G01X49986Y19705D01*
G01X49964Y19703D01*
G01X49943Y19700D01*
G01X49922Y19696D01*
G01X49901Y19690D01*
G01X49881Y19684D01*
G01X49860Y19677D01*
G01X49841Y19669D01*
G01X49821Y19661D01*
G01X49802Y19651D01*
G01X49784Y19640D01*
G01X49765Y19629D01*
G01X49731Y19603D01*
G01X49714Y19589D01*
G01X49698Y19574D01*
G01X49682Y19558D01*
G01X49668Y19542D01*
G01X49640Y19506D01*
G01X49627Y19487D01*
G01X49615Y19467D01*
G01X49593Y19425D01*
G01X49583Y19402D01*
G01X49574Y19379D01*
G01X49558Y19331D01*
G01X49546Y19279D01*
G01X49538Y19225D01*
G01X49534Y19167D01*
G01X49534Y19108D01*
G01X49538Y19052D01*
G01X49542Y19024D01*
G01X49546Y18998D01*
G01X49552Y18972D01*
G01X49558Y18947D01*
G01X49574Y18899D01*
G01X49583Y18876D01*
G01X49593Y18854D01*
G01X49604Y18833D01*
G01X49615Y18813D01*
G01X49627Y18793D01*
G01X49640Y18774D01*
G01X49668Y18738D01*
G01X49682Y18722D01*
G01X49698Y18706D01*
G01X49714Y18692D01*
G01X49748Y18664D01*
G01X49765Y18652D01*
G01X49784Y18641D01*
G01X49802Y18630D01*
G01X49821Y18620D01*
G01X49841Y18611D01*
G01X49860Y18604D01*
G01X49881Y18597D01*
G01X49901Y18590D01*
G01X49922Y18585D01*
G01X49943Y18581D01*
G01X49964Y18578D01*
G01X49986Y18576D01*
G01X50007Y18574D01*
G01X50030Y18573D01*
G01X50052Y18574D01*
G01X50073Y18576D01*
G01X50095Y18578D01*
G01X50116Y18581D01*
G01X50137Y18585D01*
G01X50158Y18590D01*
G01X50179Y18597D01*
G01X50219Y18611D01*
G01X50238Y18620D01*
G01X50257Y18630D01*
G01X50276Y18641D01*
G01X50294Y18652D01*
G01X50312Y18664D01*
G01X50346Y18692D01*
G01X50362Y18706D01*
G01X50377Y18722D01*
G01X50393Y18738D01*
G01X50407Y18756D01*
G01X50420Y18774D01*
G01X50433Y18793D01*
G01X50446Y18813D01*
G01X50457Y18833D01*
G01X50468Y18854D01*
G01X50478Y18876D01*
G01X50487Y18899D01*
G01X50495Y18923D01*
G01X50502Y18947D01*
G01X50509Y18972D01*
G01X50519Y19024D01*
G01X50523Y19052D01*
G01X50527Y19108D01*
G01X50527Y19167D01*
G01X50523Y19225D01*
G01X50519Y19252D01*
G01X50514Y19279D01*
G01X50509Y19305D01*
G01X50502Y19331D01*
G01X50495Y19355D01*
G01X50487Y19379D01*
G01X50478Y19402D01*
G01X50468Y19425D01*
G01X50446Y19467D01*
G01X50433Y19487D01*
G01X50420Y19506D01*
G01X50407Y19524D01*
G01X50393Y19542D01*
G01X50377Y19558D01*
G01X50362Y19574D01*
G01X50346Y19589D01*
G01X50329Y19603D01*
G01X50312Y19616D01*
G01X50294Y19629D01*
G01X50276Y19640D01*
G01X50257Y19651D01*
G01X50238Y19661D01*
G01X50219Y19669D01*
G01X50199Y19677D01*
G01X50179Y19684D01*
G01X50137Y19696D01*
G01X50116Y19700D01*
G01X50095Y19703D01*
G01X50073Y19705D01*
G01X50052Y19707D01*
G37*

%LPC*%
G36*
G01X50050Y19569D02*
G01X50009Y19569D01*
G01X49989Y19567D01*
G01X49969Y19564D01*
G01X49950Y19559D01*
G01X49932Y19553D01*
G01X49914Y19546D01*
G01X49897Y19538D01*
G01X49880Y19529D01*
G01X49864Y19519D01*
G01X49848Y19507D01*
G01X49833Y19494D01*
G01X49819Y19481D01*
G01X49806Y19466D01*
G01X49793Y19450D01*
G01X49781Y19434D01*
G01X49769Y19416D01*
G01X49759Y19397D01*
G01X49750Y19378D01*
G01X49740Y19357D01*
G01X49732Y19336D01*
G01X49726Y19314D01*
G01X49719Y19291D01*
G01X49714Y19267D01*
G01X49710Y19243D01*
G01X49706Y19217D01*
G01X49704Y19192D01*
G01X49702Y19165D01*
G01X49702Y19110D01*
G01X49706Y19058D01*
G01X49710Y19033D01*
G01X49714Y19009D01*
G01X49719Y18985D01*
G01X49726Y18963D01*
G01X49732Y18941D01*
G01X49740Y18920D01*
G01X49750Y18899D01*
G01X49759Y18880D01*
G01X49769Y18861D01*
G01X49781Y18844D01*
G01X49793Y18828D01*
G01X49806Y18812D01*
G01X49819Y18797D01*
G01X49833Y18784D01*
G01X49848Y18771D01*
G01X49864Y18760D01*
G01X49880Y18750D01*
G01X49897Y18740D01*
G01X49914Y18732D01*
G01X49950Y18720D01*
G01X49969Y18715D01*
G01X49989Y18712D01*
G01X50009Y18710D01*
G01X50030Y18709D01*
G01X50050Y18710D01*
G01X50070Y18712D01*
G01X50090Y18715D01*
G01X50109Y18720D01*
G01X50127Y18726D01*
G01X50146Y18732D01*
G01X50163Y18740D01*
G01X50180Y18750D01*
G01X50196Y18760D01*
G01X50212Y18771D01*
G01X50227Y18784D01*
G01X50241Y18797D01*
G01X50255Y18812D01*
G01X50279Y18844D01*
G01X50291Y18861D01*
G01X50311Y18899D01*
G01X50320Y18920D01*
G01X50328Y18941D01*
G01X50342Y18985D01*
G01X50352Y19033D01*
G01X50355Y19058D01*
G01X50359Y19110D01*
G01X50360Y19138D01*
G01X50359Y19165D01*
G01X50357Y19192D01*
G01X50355Y19217D01*
G01X50352Y19243D01*
G01X50342Y19291D01*
G01X50335Y19314D01*
G01X50328Y19336D01*
G01X50320Y19357D01*
G01X50311Y19378D01*
G01X50291Y19416D01*
G01X50279Y19434D01*
G01X50255Y19466D01*
G01X50241Y19481D01*
G01X50227Y19494D01*
G01X50212Y19507D01*
G01X50196Y19519D01*
G01X50180Y19529D01*
G01X50163Y19538D01*
G01X50146Y19546D01*
G01X50127Y19553D01*
G01X50109Y19559D01*
G01X50090Y19564D01*
G01X50070Y19567D01*
G01X50050Y19569D01*
G37*

%LPD*%
G36*
G01X48552Y20192D02*
G01X48389Y20192D01*
G01X48389Y18600D01*
G01X48518Y18600D01*
G01X48535Y18711D01*
G01X48539Y18711D01*
G01X48558Y18696D01*
G01X48576Y18680D01*
G01X48595Y18666D01*
G01X48615Y18653D01*
G01X48634Y18640D01*
G01X48654Y18629D01*
G01X48694Y18609D01*
G01X48714Y18601D01*
G01X48734Y18594D01*
G01X48754Y18588D01*
G01X48774Y18583D01*
G01X48794Y18579D01*
G01X48813Y18576D01*
G01X48832Y18574D01*
G01X48852Y18573D01*
G01X48872Y18574D01*
G01X48893Y18576D01*
G01X48913Y18578D01*
G01X48934Y18581D01*
G01X48954Y18586D01*
G01X48973Y18591D01*
G01X48993Y18597D01*
G01X49031Y18613D01*
G01X49049Y18622D01*
G01X49067Y18632D01*
G01X49085Y18643D01*
G01X49119Y18667D01*
G01X49151Y18695D01*
G01X49167Y18711D01*
G01X49181Y18727D01*
G01X49196Y18744D01*
G01X49222Y18780D01*
G01X49234Y18800D01*
G01X49246Y18821D01*
G01X49257Y18842D01*
G01X49267Y18864D01*
G01X49276Y18886D01*
G01X49285Y18910D01*
G01X49293Y18934D01*
G01X49300Y18960D01*
G01X49306Y18986D01*
G01X49311Y19013D01*
G01X49315Y19040D01*
G01X49319Y19068D01*
G01X49322Y19097D01*
G01X49323Y19127D01*
G01X49323Y19185D01*
G01X49322Y19212D01*
G01X49318Y19264D01*
G01X49315Y19289D01*
G01X49311Y19313D01*
G01X49307Y19338D01*
G01X49302Y19361D01*
G01X49296Y19384D01*
G01X49289Y19405D01*
G01X49282Y19427D01*
G01X49274Y19448D01*
G01X49266Y19468D01*
G01X49256Y19487D01*
G01X49247Y19506D01*
G01X49236Y19523D01*
G01X49225Y19541D01*
G01X49201Y19573D01*
G01X49188Y19588D01*
G01X49174Y19602D01*
G01X49160Y19615D01*
G01X49144Y19627D01*
G01X49129Y19639D01*
G01X49113Y19650D01*
G01X49096Y19659D01*
G01X49078Y19668D01*
G01X49060Y19676D01*
G01X49041Y19684D01*
G01X49022Y19690D01*
G01X49001Y19695D01*
G01X48981Y19700D01*
G01X48959Y19703D01*
G01X48915Y19707D01*
G01X48868Y19707D01*
G01X48822Y19701D01*
G01X48776Y19689D01*
G01X48754Y19681D01*
G01X48731Y19672D01*
G01X48709Y19662D01*
G01X48687Y19651D01*
G01X48666Y19639D01*
G01X48644Y19626D01*
G01X48623Y19612D01*
G01X48603Y19598D01*
G01X48583Y19583D01*
G01X48563Y19567D01*
G01X48543Y19552D01*
G01X48552Y19750D01*
G01X48552Y20192D01*
G37*

%LPC*%
G36*
G01X48880Y19569D02*
G01X48836Y19569D01*
G01X48818Y19567D01*
G01X48800Y19564D01*
G01X48764Y19554D01*
G01X48745Y19547D01*
G01X48727Y19539D01*
G01X48708Y19530D01*
G01X48670Y19508D01*
G01X48651Y19495D01*
G01X48631Y19481D01*
G01X48611Y19466D01*
G01X48592Y19450D01*
G01X48572Y19432D01*
G01X48552Y19413D01*
G01X48552Y18830D01*
G01X48576Y18809D01*
G01X48601Y18790D01*
G01X48626Y18774D01*
G01X48650Y18760D01*
G01X48675Y18748D01*
G01X48698Y18738D01*
G01X48722Y18729D01*
G01X48745Y18723D01*
G01X48767Y18717D01*
G01X48788Y18714D01*
G01X48808Y18712D01*
G01X48827Y18711D01*
G01X48847Y18712D01*
G01X48867Y18714D01*
G01X48886Y18717D01*
G01X48905Y18722D01*
G01X48923Y18727D01*
G01X48941Y18734D01*
G01X48958Y18742D01*
G01X48990Y18762D01*
G01X49006Y18773D01*
G01X49021Y18786D01*
G01X49035Y18800D01*
G01X49048Y18815D01*
G01X49061Y18831D01*
G01X49073Y18848D01*
G01X49084Y18866D01*
G01X49095Y18885D01*
G01X49105Y18905D01*
G01X49114Y18926D01*
G01X49122Y18948D01*
G01X49129Y18971D01*
G01X49135Y18994D01*
G01X49141Y19019D01*
G01X49149Y19071D01*
G01X49152Y19098D01*
G01X49153Y19127D01*
G01X49154Y19155D01*
G01X49153Y19186D01*
G01X49152Y19215D01*
G01X49150Y19243D01*
G01X49146Y19271D01*
G01X49142Y19298D01*
G01X49137Y19323D01*
G01X49131Y19348D01*
G01X49124Y19371D01*
G01X49115Y19394D01*
G01X49106Y19415D01*
G01X49096Y19435D01*
G01X49085Y19454D01*
G01X49072Y19472D01*
G01X49058Y19488D01*
G01X49043Y19503D01*
G01X49027Y19516D01*
G01X49010Y19528D01*
G01X48992Y19539D01*
G01X48972Y19548D01*
G01X48951Y19556D01*
G01X48929Y19562D01*
G01X48905Y19566D01*
G01X48880Y19569D01*
G37*

%LPD*%
G36*
G01X46677Y19707D02*
G01X46631Y19707D01*
G01X46610Y19705D01*
G01X46590Y19703D01*
G01X46570Y19700D01*
G01X46530Y19690D01*
G01X46510Y19683D01*
G01X46491Y19676D01*
G01X46472Y19668D01*
G01X46453Y19659D01*
G01X46434Y19649D01*
G01X46416Y19638D01*
G01X46399Y19626D01*
G01X46381Y19613D01*
G01X46365Y19600D01*
G01X46348Y19586D01*
G01X46333Y19571D01*
G01X46318Y19555D01*
G01X46303Y19538D01*
G01X46289Y19520D01*
G01X46276Y19502D01*
G01X46263Y19482D01*
G01X46251Y19463D01*
G01X46239Y19442D01*
G01X46219Y19398D01*
G01X46210Y19375D01*
G01X46194Y19327D01*
G01X46188Y19302D01*
G01X46182Y19276D01*
G01X46178Y19250D01*
G01X46174Y19223D01*
G01X46170Y19167D01*
G01X46169Y19138D01*
G01X46170Y19108D01*
G01X46174Y19052D01*
G01X46182Y18998D01*
G01X46194Y18948D01*
G01X46201Y18923D01*
G01X46210Y18900D01*
G01X46218Y18877D01*
G01X46229Y18855D01*
G01X46239Y18834D01*
G01X46251Y18813D01*
G01X46263Y18794D01*
G01X46276Y18775D01*
G01X46289Y18757D01*
G01X46304Y18739D01*
G01X46319Y18723D01*
G01X46335Y18707D01*
G01X46351Y18692D01*
G01X46368Y18678D01*
G01X46386Y18665D01*
G01X46422Y18641D01*
G01X46442Y18630D01*
G01X46461Y18621D01*
G01X46482Y18612D01*
G01X46502Y18604D01*
G01X46523Y18597D01*
G01X46545Y18591D01*
G01X46589Y18581D01*
G01X46612Y18578D01*
G01X46658Y18574D01*
G01X46681Y18573D01*
G01X46709Y18574D01*
G01X46736Y18576D01*
G01X46762Y18578D01*
G01X46787Y18582D01*
G01X46835Y18592D01*
G01X46857Y18599D01*
G01X46880Y18606D01*
G01X46922Y18622D01*
G01X46942Y18632D01*
G01X46962Y18641D01*
G01X47000Y18661D01*
G01X47018Y18672D01*
G01X47035Y18684D01*
G01X46976Y18792D01*
G01X46955Y18778D01*
G01X46935Y18766D01*
G01X46914Y18755D01*
G01X46893Y18745D01*
G01X46871Y18736D01*
G01X46848Y18727D01*
G01X46825Y18720D01*
G01X46802Y18714D01*
G01X46778Y18710D01*
G01X46753Y18706D01*
G01X46728Y18704D01*
G01X46702Y18703D01*
G01X46679Y18704D01*
G01X46656Y18706D01*
G01X46635Y18709D01*
G01X46614Y18713D01*
G01X46593Y18718D01*
G01X46573Y18725D01*
G01X46554Y18732D01*
G01X46535Y18741D01*
G01X46501Y18761D01*
G01X46484Y18773D01*
G01X46468Y18785D01*
G01X46454Y18799D01*
G01X46439Y18813D01*
G01X46413Y18845D01*
G01X46391Y18881D01*
G01X46381Y18900D01*
G01X46372Y18919D01*
G01X46363Y18940D01*
G01X46356Y18961D01*
G01X46349Y18983D01*
G01X46339Y19029D01*
G01X46336Y19053D01*
G01X46333Y19078D01*
G01X46331Y19103D01*
G01X47069Y19103D01*
G01X47073Y19125D01*
G01X47076Y19149D01*
G01X47077Y19175D01*
G01X47077Y19230D01*
G01X47076Y19259D01*
G01X47070Y19313D01*
G01X47066Y19339D01*
G01X47061Y19364D01*
G01X47056Y19388D01*
G01X47049Y19412D01*
G01X47042Y19435D01*
G01X47033Y19457D01*
G01X47024Y19478D01*
G01X47014Y19499D01*
G01X46992Y19537D01*
G01X46979Y19555D01*
G01X46966Y19571D01*
G01X46952Y19588D01*
G01X46937Y19603D01*
G01X46921Y19617D01*
G01X46905Y19630D01*
G01X46888Y19642D01*
G01X46870Y19653D01*
G01X46851Y19663D01*
G01X46832Y19672D01*
G01X46812Y19680D01*
G01X46791Y19688D01*
G01X46769Y19694D01*
G01X46747Y19698D01*
G01X46724Y19703D01*
G01X46701Y19705D01*
G01X46677Y19707D01*
G37*

%LPC*%
G36*
G01X46675Y19575D02*
G01X46654Y19576D01*
G01X46634Y19575D01*
G01X46614Y19573D01*
G01X46594Y19569D01*
G01X46576Y19565D01*
G01X46557Y19559D01*
G01X46539Y19552D01*
G01X46503Y19534D01*
G01X46486Y19523D01*
G01X46470Y19510D01*
G01X46455Y19497D01*
G01X46440Y19482D01*
G01X46426Y19467D01*
G01X46412Y19450D01*
G01X46400Y19432D01*
G01X46388Y19413D01*
G01X46377Y19393D01*
G01X46367Y19371D01*
G01X46358Y19349D01*
G01X46350Y19326D01*
G01X46343Y19301D01*
G01X46338Y19276D01*
G01X46333Y19249D01*
G01X46330Y19221D01*
G01X46934Y19221D01*
G01X46933Y19250D01*
G01X46931Y19277D01*
G01X46929Y19303D01*
G01X46925Y19328D01*
G01X46920Y19352D01*
G01X46914Y19375D01*
G01X46908Y19396D01*
G01X46900Y19416D01*
G01X46891Y19436D01*
G01X46882Y19453D01*
G01X46871Y19470D01*
G01X46860Y19486D01*
G01X46847Y19500D01*
G01X46834Y19513D01*
G01X46819Y19525D01*
G01X46804Y19535D01*
G01X46788Y19545D01*
G01X46772Y19553D01*
G01X46754Y19560D01*
G01X46716Y19570D01*
G01X46696Y19573D01*
G01X46675Y19575D01*
G37*

%LPD*%
G36*
G01X52368Y19707D02*
G01X52345Y19707D01*
G01X52322Y19703D01*
G01X52300Y19698D01*
G01X52279Y19691D01*
G01X52257Y19682D01*
G01X52236Y19672D01*
G01X52216Y19659D01*
G01X52197Y19646D01*
G01X52177Y19630D01*
G01X52159Y19613D01*
G01X52141Y19594D01*
G01X52123Y19574D01*
G01X52107Y19553D01*
G01X52091Y19530D01*
G01X52076Y19507D01*
G01X52061Y19482D01*
G01X52056Y19482D01*
G01X52039Y19680D01*
G01X51907Y19680D01*
G01X51907Y18600D01*
G01X52069Y18600D01*
G01X52069Y19303D01*
G01X52084Y19337D01*
G01X52099Y19369D01*
G01X52115Y19397D01*
G01X52131Y19423D01*
G01X52148Y19446D01*
G01X52166Y19467D01*
G01X52184Y19486D01*
G01X52202Y19502D01*
G01X52220Y19516D01*
G01X52239Y19528D01*
G01X52257Y19538D01*
G01X52276Y19546D01*
G01X52294Y19552D01*
G01X52312Y19556D01*
G01X52330Y19559D01*
G01X52347Y19559D01*
G01X52376Y19558D01*
G01X52401Y19555D01*
G01X52424Y19549D01*
G01X52450Y19542D01*
G01X52481Y19684D01*
G01X52455Y19695D01*
G01X52428Y19702D01*
G01X52400Y19706D01*
G01X52368Y19707D01*
G37*

%LPD*%
G36*
G01X45169Y20063D02*
G01X45004Y20063D01*
G01X45004Y18600D01*
G01X45169Y18600D01*
G01X45169Y19071D01*
G01X45431Y19380D01*
G01X45880Y18600D01*
G01X46065Y18600D01*
G01X45538Y19509D01*
G01X45997Y20063D01*
G01X45807Y20063D01*
G01X45173Y19309D01*
G01X45169Y19309D01*
G01X45169Y20063D01*
G37*

%LPD*%
G36*
G01X56192Y22592D02*
G01X56030Y22592D01*
G01X56030Y22167D01*
G01X56038Y21980D01*
G01X56019Y21994D01*
G01X56001Y22008D01*
G01X55984Y22021D01*
G01X55948Y22045D01*
G01X55912Y22065D01*
G01X55894Y22073D01*
G01X55875Y22081D01*
G01X55856Y22088D01*
G01X55836Y22094D01*
G01X55816Y22099D01*
G01X55795Y22103D01*
G01X55751Y22107D01*
G01X55707Y22107D01*
G01X55686Y22105D01*
G01X55666Y22103D01*
G01X55646Y22100D01*
G01X55606Y22090D01*
G01X55568Y22076D01*
G01X55550Y22068D01*
G01X55531Y22059D01*
G01X55513Y22048D01*
G01X55496Y22038D01*
G01X55478Y22026D01*
G01X55461Y22013D01*
G01X55445Y22000D01*
G01X55430Y21985D01*
G01X55414Y21970D01*
G01X55400Y21954D01*
G01X55385Y21937D01*
G01X55359Y21901D01*
G01X55347Y21882D01*
G01X55335Y21861D01*
G01X55324Y21841D01*
G01X55314Y21819D01*
G01X55305Y21797D01*
G01X55296Y21774D01*
G01X55288Y21751D01*
G01X55281Y21726D01*
G01X55275Y21701D01*
G01X55270Y21676D01*
G01X55265Y21649D01*
G01X55262Y21622D01*
G01X55260Y21595D01*
G01X55258Y21566D01*
G01X55257Y21538D01*
G01X55258Y21508D01*
G01X55259Y21479D01*
G01X55261Y21451D01*
G01X55264Y21423D01*
G01X55267Y21397D01*
G01X55272Y21371D01*
G01X55282Y21321D01*
G01X55296Y21275D01*
G01X55304Y21253D01*
G01X55313Y21231D01*
G01X55322Y21211D01*
G01X55332Y21191D01*
G01X55343Y21172D01*
G01X55354Y21154D01*
G01X55366Y21137D01*
G01X55392Y21105D01*
G01X55406Y21090D01*
G01X55420Y21076D01*
G01X55435Y21063D01*
G01X55451Y21051D01*
G01X55467Y21040D01*
G01X55484Y21029D01*
G01X55501Y21020D01*
G01X55519Y21011D01*
G01X55538Y21003D01*
G01X55556Y20996D01*
G01X55576Y20990D01*
G01X55596Y20985D01*
G01X55617Y20981D01*
G01X55659Y20975D01*
G01X55681Y20974D01*
G01X55704Y20973D01*
G01X55728Y20974D01*
G01X55776Y20980D01*
G01X55822Y20992D01*
G01X55844Y21000D01*
G01X55866Y21009D01*
G01X55888Y21019D01*
G01X55909Y21030D01*
G01X55929Y21042D01*
G01X55948Y21055D01*
G01X55968Y21069D01*
G01X55986Y21083D01*
G01X56004Y21098D01*
G01X56021Y21113D01*
G01X56038Y21130D01*
G01X56042Y21130D01*
G01X56057Y21000D01*
G01X56192Y21000D01*
G01X56192Y22592D01*
G37*

%LPC*%
G36*
G01X55777Y21969D02*
G01X55734Y21969D01*
G01X55715Y21967D01*
G01X55677Y21959D01*
G01X55660Y21953D01*
G01X55642Y21946D01*
G01X55625Y21938D01*
G01X55593Y21918D01*
G01X55577Y21906D01*
G01X55562Y21893D01*
G01X55548Y21880D01*
G01X55534Y21865D01*
G01X55522Y21849D01*
G01X55509Y21832D01*
G01X55498Y21815D01*
G01X55487Y21796D01*
G01X55477Y21777D01*
G01X55468Y21756D01*
G01X55460Y21735D01*
G01X55452Y21713D01*
G01X55440Y21667D01*
G01X55436Y21643D01*
G01X55432Y21618D01*
G01X55428Y21566D01*
G01X55427Y21540D01*
G01X55428Y21511D01*
G01X55429Y21484D01*
G01X55431Y21458D01*
G01X55434Y21432D01*
G01X55438Y21407D01*
G01X55443Y21383D01*
G01X55448Y21361D01*
G01X55454Y21338D01*
G01X55461Y21317D01*
G01X55469Y21297D01*
G01X55487Y21259D01*
G01X55497Y21242D01*
G01X55508Y21226D01*
G01X55532Y21196D01*
G01X55546Y21183D01*
G01X55560Y21171D01*
G01X55574Y21160D01*
G01X55589Y21150D01*
G01X55606Y21141D01*
G01X55622Y21133D01*
G01X55658Y21121D01*
G01X55677Y21117D01*
G01X55696Y21114D01*
G01X55717Y21112D01*
G01X55738Y21111D01*
G01X55763Y21113D01*
G01X55789Y21116D01*
G01X55814Y21121D01*
G01X55838Y21129D01*
G01X55863Y21138D01*
G01X55886Y21150D01*
G01X55910Y21164D01*
G01X55934Y21180D01*
G01X55958Y21198D01*
G01X55982Y21219D01*
G01X56006Y21241D01*
G01X56030Y21265D01*
G01X56030Y21850D01*
G01X56005Y21870D01*
G01X55981Y21888D01*
G01X55958Y21905D01*
G01X55935Y21919D01*
G01X55913Y21931D01*
G01X55890Y21942D01*
G01X55868Y21951D01*
G01X55822Y21963D01*
G01X55800Y21967D01*
G01X55777Y21969D01*
G37*

%LPD*%
G36*
G01X54664Y22107D02*
G01X54619Y22107D01*
G01X54598Y22105D01*
G01X54578Y22103D01*
G01X54558Y22100D01*
G01X54518Y22090D01*
G01X54498Y22083D01*
G01X54479Y22076D01*
G01X54460Y22068D01*
G01X54441Y22059D01*
G01X54422Y22049D01*
G01X54404Y22038D01*
G01X54387Y22026D01*
G01X54369Y22013D01*
G01X54353Y22000D01*
G01X54336Y21986D01*
G01X54321Y21971D01*
G01X54306Y21955D01*
G01X54291Y21938D01*
G01X54277Y21920D01*
G01X54264Y21902D01*
G01X54251Y21882D01*
G01X54239Y21863D01*
G01X54227Y21842D01*
G01X54207Y21798D01*
G01X54198Y21775D01*
G01X54182Y21727D01*
G01X54176Y21702D01*
G01X54166Y21650D01*
G01X54162Y21623D01*
G01X54158Y21567D01*
G01X54157Y21538D01*
G01X54158Y21508D01*
G01X54162Y21452D01*
G01X54170Y21398D01*
G01X54182Y21348D01*
G01X54189Y21323D01*
G01X54197Y21300D01*
G01X54206Y21277D01*
G01X54217Y21255D01*
G01X54227Y21234D01*
G01X54239Y21213D01*
G01X54251Y21194D01*
G01X54264Y21175D01*
G01X54277Y21157D01*
G01X54292Y21139D01*
G01X54307Y21123D01*
G01X54323Y21107D01*
G01X54339Y21092D01*
G01X54356Y21078D01*
G01X54374Y21065D01*
G01X54410Y21041D01*
G01X54430Y21030D01*
G01X54470Y21012D01*
G01X54490Y21004D01*
G01X54511Y20997D01*
G01X54533Y20991D01*
G01X54577Y20981D01*
G01X54600Y20978D01*
G01X54646Y20974D01*
G01X54669Y20973D01*
G01X54697Y20974D01*
G01X54724Y20976D01*
G01X54750Y20978D01*
G01X54775Y20982D01*
G01X54823Y20992D01*
G01X54846Y20999D01*
G01X54868Y21006D01*
G01X54910Y21022D01*
G01X54930Y21032D01*
G01X54950Y21041D01*
G01X54988Y21061D01*
G01X55006Y21072D01*
G01X55023Y21084D01*
G01X54964Y21192D01*
G01X54943Y21178D01*
G01X54923Y21166D01*
G01X54902Y21155D01*
G01X54881Y21145D01*
G01X54859Y21136D01*
G01X54836Y21127D01*
G01X54813Y21120D01*
G01X54790Y21114D01*
G01X54766Y21110D01*
G01X54741Y21106D01*
G01X54716Y21104D01*
G01X54689Y21103D01*
G01X54667Y21104D01*
G01X54644Y21106D01*
G01X54623Y21109D01*
G01X54602Y21113D01*
G01X54581Y21118D01*
G01X54561Y21125D01*
G01X54542Y21132D01*
G01X54523Y21141D01*
G01X54489Y21161D01*
G01X54472Y21173D01*
G01X54456Y21185D01*
G01X54442Y21199D01*
G01X54427Y21213D01*
G01X54401Y21245D01*
G01X54389Y21263D01*
G01X54379Y21281D01*
G01X54369Y21300D01*
G01X54360Y21319D01*
G01X54351Y21340D01*
G01X54344Y21361D01*
G01X54337Y21383D01*
G01X54327Y21429D01*
G01X54324Y21453D01*
G01X54321Y21478D01*
G01X54319Y21503D01*
G01X55057Y21503D01*
G01X55061Y21525D01*
G01X55064Y21549D01*
G01X55065Y21575D01*
G01X55065Y21630D01*
G01X55064Y21659D01*
G01X55058Y21713D01*
G01X55054Y21739D01*
G01X55049Y21764D01*
G01X55037Y21812D01*
G01X55030Y21835D01*
G01X55021Y21857D01*
G01X55012Y21878D01*
G01X55002Y21899D01*
G01X54980Y21937D01*
G01X54967Y21955D01*
G01X54954Y21971D01*
G01X54940Y21988D01*
G01X54925Y22003D01*
G01X54909Y22017D01*
G01X54893Y22030D01*
G01X54876Y22042D01*
G01X54858Y22053D01*
G01X54839Y22063D01*
G01X54820Y22072D01*
G01X54800Y22080D01*
G01X54779Y22088D01*
G01X54757Y22094D01*
G01X54735Y22098D01*
G01X54712Y22103D01*
G01X54689Y22105D01*
G01X54664Y22107D01*
G37*

%LPC*%
G36*
G01X54663Y21975D02*
G01X54642Y21976D01*
G01X54622Y21975D01*
G01X54602Y21973D01*
G01X54582Y21969D01*
G01X54564Y21965D01*
G01X54545Y21959D01*
G01X54527Y21952D01*
G01X54491Y21934D01*
G01X54475Y21923D01*
G01X54458Y21910D01*
G01X54443Y21897D01*
G01X54428Y21882D01*
G01X54414Y21867D01*
G01X54400Y21850D01*
G01X54388Y21832D01*
G01X54376Y21813D01*
G01X54365Y21793D01*
G01X54355Y21771D01*
G01X54346Y21749D01*
G01X54338Y21726D01*
G01X54331Y21701D01*
G01X54326Y21676D01*
G01X54321Y21649D01*
G01X54318Y21621D01*
G01X54922Y21621D01*
G01X54921Y21650D01*
G01X54919Y21677D01*
G01X54917Y21703D01*
G01X54913Y21728D01*
G01X54908Y21752D01*
G01X54902Y21775D01*
G01X54896Y21796D01*
G01X54888Y21816D01*
G01X54879Y21836D01*
G01X54870Y21853D01*
G01X54859Y21870D01*
G01X54847Y21886D01*
G01X54835Y21900D01*
G01X54822Y21913D01*
G01X54807Y21925D01*
G01X54792Y21935D01*
G01X54776Y21945D01*
G01X54760Y21953D01*
G01X54742Y21960D01*
G01X54704Y21970D01*
G01X54684Y21973D01*
G01X54663Y21975D01*
G37*

%LPD*%
G36*
G01X53864Y22592D02*
G01X53702Y22592D01*
G01X53702Y22167D01*
G01X53710Y21980D01*
G01X53691Y21994D01*
G01X53673Y22008D01*
G01X53656Y22021D01*
G01X53620Y22045D01*
G01X53584Y22065D01*
G01X53566Y22073D01*
G01X53547Y22081D01*
G01X53528Y22088D01*
G01X53508Y22094D01*
G01X53488Y22099D01*
G01X53467Y22103D01*
G01X53446Y22105D01*
G01X53423Y22107D01*
G01X53379Y22107D01*
G01X53359Y22105D01*
G01X53338Y22103D01*
G01X53318Y22100D01*
G01X53298Y22095D01*
G01X53279Y22090D01*
G01X53259Y22083D01*
G01X53240Y22076D01*
G01X53222Y22068D01*
G01X53203Y22059D01*
G01X53185Y22048D01*
G01X53168Y22038D01*
G01X53150Y22026D01*
G01X53134Y22013D01*
G01X53117Y22000D01*
G01X53102Y21985D01*
G01X53086Y21970D01*
G01X53072Y21954D01*
G01X53057Y21937D01*
G01X53031Y21901D01*
G01X53019Y21882D01*
G01X53007Y21861D01*
G01X52996Y21841D01*
G01X52986Y21819D01*
G01X52977Y21797D01*
G01X52968Y21774D01*
G01X52960Y21751D01*
G01X52953Y21726D01*
G01X52947Y21701D01*
G01X52942Y21676D01*
G01X52934Y21622D01*
G01X52931Y21595D01*
G01X52930Y21566D01*
G01X52930Y21508D01*
G01X52931Y21479D01*
G01X52933Y21451D01*
G01X52936Y21423D01*
G01X52939Y21397D01*
G01X52944Y21371D01*
G01X52949Y21346D01*
G01X52955Y21321D01*
G01X52961Y21298D01*
G01X52968Y21275D01*
G01X52976Y21253D01*
G01X52985Y21231D01*
G01X52994Y21211D01*
G01X53004Y21191D01*
G01X53015Y21172D01*
G01X53026Y21154D01*
G01X53038Y21137D01*
G01X53064Y21105D01*
G01X53077Y21090D01*
G01X53092Y21076D01*
G01X53107Y21063D01*
G01X53123Y21051D01*
G01X53139Y21040D01*
G01X53156Y21029D01*
G01X53173Y21020D01*
G01X53191Y21011D01*
G01X53210Y21003D01*
G01X53229Y20996D01*
G01X53248Y20990D01*
G01X53268Y20985D01*
G01X53289Y20981D01*
G01X53331Y20975D01*
G01X53353Y20974D01*
G01X53376Y20973D01*
G01X53400Y20974D01*
G01X53448Y20980D01*
G01X53494Y20992D01*
G01X53517Y21000D01*
G01X53538Y21009D01*
G01X53560Y21019D01*
G01X53581Y21030D01*
G01X53601Y21042D01*
G01X53621Y21055D01*
G01X53639Y21069D01*
G01X53658Y21083D01*
G01X53676Y21098D01*
G01X53693Y21113D01*
G01X53710Y21130D01*
G01X53714Y21130D01*
G01X53730Y21000D01*
G01X53864Y21000D01*
G01X53864Y22592D01*
G37*

%LPC*%
G36*
G01X53449Y21969D02*
G01X53406Y21969D01*
G01X53387Y21967D01*
G01X53368Y21963D01*
G01X53350Y21959D01*
G01X53331Y21953D01*
G01X53314Y21946D01*
G01X53297Y21938D01*
G01X53281Y21928D01*
G01X53264Y21918D01*
G01X53249Y21906D01*
G01X53234Y21893D01*
G01X53220Y21880D01*
G01X53206Y21865D01*
G01X53193Y21849D01*
G01X53181Y21832D01*
G01X53170Y21815D01*
G01X53159Y21796D01*
G01X53149Y21777D01*
G01X53140Y21756D01*
G01X53132Y21735D01*
G01X53125Y21713D01*
G01X53118Y21690D01*
G01X53113Y21667D01*
G01X53108Y21643D01*
G01X53104Y21618D01*
G01X53100Y21566D01*
G01X53100Y21511D01*
G01X53101Y21484D01*
G01X53103Y21458D01*
G01X53106Y21432D01*
G01X53110Y21407D01*
G01X53115Y21383D01*
G01X53120Y21361D01*
G01X53126Y21338D01*
G01X53133Y21317D01*
G01X53141Y21297D01*
G01X53159Y21259D01*
G01X53169Y21242D01*
G01X53180Y21226D01*
G01X53204Y21196D01*
G01X53218Y21183D01*
G01X53231Y21171D01*
G01X53246Y21160D01*
G01X53261Y21150D01*
G01X53277Y21141D01*
G01X53294Y21133D01*
G01X53330Y21121D01*
G01X53349Y21117D01*
G01X53368Y21114D01*
G01X53389Y21112D01*
G01X53410Y21111D01*
G01X53435Y21113D01*
G01X53460Y21116D01*
G01X53485Y21121D01*
G01X53510Y21129D01*
G01X53535Y21138D01*
G01X53559Y21150D01*
G01X53582Y21164D01*
G01X53606Y21180D01*
G01X53630Y21198D01*
G01X53654Y21219D01*
G01X53677Y21241D01*
G01X53702Y21265D01*
G01X53702Y21850D01*
G01X53677Y21870D01*
G01X53654Y21888D01*
G01X53630Y21905D01*
G01X53607Y21919D01*
G01X53585Y21931D01*
G01X53562Y21942D01*
G01X53539Y21951D01*
G01X53517Y21957D01*
G01X53494Y21963D01*
G01X53472Y21967D01*
G01X53449Y21969D01*
G37*

%LPD*%
G36*
G01X51107Y22107D02*
G01X51054Y22107D01*
G01X51028Y22105D01*
G01X51003Y22103D01*
G01X50978Y22099D01*
G01X50954Y22094D01*
G01X50906Y22082D01*
G01X50884Y22075D01*
G01X50861Y22068D01*
G01X50839Y22060D01*
G01X50818Y22051D01*
G01X50778Y22033D01*
G01X50759Y22023D01*
G01X50740Y22014D01*
G01X50722Y22004D01*
G01X50706Y21994D01*
G01X50689Y21984D01*
G01X50674Y21975D01*
G01X50660Y21965D01*
G01X50726Y21852D01*
G01X50741Y21863D01*
G01X50758Y21873D01*
G01X50775Y21884D01*
G01X50793Y21895D01*
G01X50831Y21915D01*
G01X50851Y21924D01*
G01X50893Y21942D01*
G01X50914Y21949D01*
G01X50936Y21955D01*
G01X50959Y21961D01*
G01X50982Y21965D01*
G01X51006Y21969D01*
G01X51029Y21971D01*
G01X51080Y21971D01*
G01X51105Y21967D01*
G01X51128Y21962D01*
G01X51149Y21955D01*
G01X51168Y21947D01*
G01X51185Y21936D01*
G01X51201Y21925D01*
G01X51215Y21911D01*
G01X51228Y21897D01*
G01X51239Y21881D01*
G01X51249Y21865D01*
G01X51257Y21847D01*
G01X51264Y21828D01*
G01X51270Y21809D01*
G01X51275Y21788D01*
G01X51278Y21768D01*
G01X51281Y21746D01*
G01X51282Y21725D01*
G01X51284Y21703D01*
G01X51284Y21682D01*
G01X51246Y21677D01*
G01X51209Y21672D01*
G01X51173Y21667D01*
G01X51138Y21662D01*
G01X51105Y21656D01*
G01X51073Y21650D01*
G01X51042Y21644D01*
G01X51012Y21637D01*
G01X50983Y21630D01*
G01X50929Y21614D01*
G01X50879Y21598D01*
G01X50856Y21588D01*
G01X50834Y21579D01*
G01X50813Y21569D01*
G01X50793Y21559D01*
G01X50775Y21548D01*
G01X50757Y21538D01*
G01X50740Y21526D01*
G01X50710Y21502D01*
G01X50684Y21476D01*
G01X50662Y21448D01*
G01X50644Y21418D01*
G01X50637Y21402D01*
G01X50631Y21386D01*
G01X50621Y21352D01*
G01X50615Y21316D01*
G01X50614Y21297D01*
G01X50614Y21249D01*
G01X50618Y21221D01*
G01X50622Y21195D01*
G01X50629Y21171D01*
G01X50638Y21147D01*
G01X50648Y21126D01*
G01X50660Y21105D01*
G01X50673Y21086D01*
G01X50688Y21068D01*
G01X50704Y21052D01*
G01X50721Y21037D01*
G01X50740Y21024D01*
G01X50760Y21012D01*
G01X50781Y21002D01*
G01X50803Y20994D01*
G01X50827Y20986D01*
G01X50851Y20981D01*
G01X50876Y20977D01*
G01X50901Y20974D01*
G01X50927Y20973D01*
G01X50953Y20974D01*
G01X51003Y20980D01*
G01X51051Y20992D01*
G01X51075Y21000D01*
G01X51098Y21009D01*
G01X51122Y21019D01*
G01X51144Y21031D01*
G01X51167Y21043D01*
G01X51188Y21056D01*
G01X51210Y21070D01*
G01X51231Y21084D01*
G01X51252Y21100D01*
G01X51272Y21115D01*
G01X51292Y21132D01*
G01X51297Y21132D01*
G01X51311Y21000D01*
G01X51446Y21000D01*
G01X51446Y21669D01*
G01X51445Y21697D01*
G01X51444Y21724D01*
G01X51442Y21750D01*
G01X51439Y21776D01*
G01X51435Y21800D01*
G01X51431Y21825D01*
G01X51425Y21848D01*
G01X51419Y21870D01*
G01X51411Y21892D01*
G01X51403Y21912D01*
G01X51394Y21932D01*
G01X51384Y21951D01*
G01X51373Y21969D01*
G01X51361Y21986D01*
G01X51348Y22002D01*
G01X51334Y22017D01*
G01X51318Y22031D01*
G01X51302Y22044D01*
G01X51285Y22055D01*
G01X51267Y22066D01*
G01X51247Y22076D01*
G01X51227Y22084D01*
G01X51205Y22091D01*
G01X51182Y22097D01*
G01X51158Y22102D01*
G01X51133Y22105D01*
G01X51107Y22107D01*
G37*

%LPC*%
G36*
G01X51284Y21255D02*
G01X51284Y21571D01*
G01X51243Y21567D01*
G01X51206Y21561D01*
G01X51169Y21556D01*
G01X51135Y21550D01*
G01X51102Y21543D01*
G01X51042Y21529D01*
G01X51015Y21522D01*
G01X50989Y21514D01*
G01X50965Y21506D01*
G01X50943Y21497D01*
G01X50922Y21488D01*
G01X50884Y21469D01*
G01X50868Y21458D01*
G01X50853Y21448D01*
G01X50839Y21436D01*
G01X50827Y21425D01*
G01X50816Y21413D01*
G01X50806Y21401D01*
G01X50798Y21388D01*
G01X50791Y21375D01*
G01X50785Y21361D01*
G01X50780Y21348D01*
G01X50776Y21333D01*
G01X50773Y21318D01*
G01X50772Y21303D01*
G01X50772Y21288D01*
G01X50773Y21257D01*
G01X50779Y21229D01*
G01X50787Y21204D01*
G01X50799Y21182D01*
G01X50813Y21164D01*
G01X50830Y21148D01*
G01X50850Y21134D01*
G01X50871Y21124D01*
G01X50894Y21116D01*
G01X50918Y21110D01*
G01X50944Y21107D01*
G01X50972Y21105D01*
G01X50992Y21106D01*
G01X51012Y21108D01*
G01X51032Y21111D01*
G01X51051Y21115D01*
G01X51071Y21121D01*
G01X51089Y21127D01*
G01X51109Y21135D01*
G01X51147Y21154D01*
G01X51165Y21165D01*
G01X51185Y21177D01*
G01X51223Y21205D01*
G01X51243Y21221D01*
G01X51263Y21238D01*
G01X51284Y21255D01*
G37*

%LPD*%
G36*
G01X48097Y22107D02*
G01X48051Y22107D01*
G01X48030Y22105D01*
G01X48010Y22103D01*
G01X47990Y22100D01*
G01X47969Y22095D01*
G01X47950Y22090D01*
G01X47930Y22083D01*
G01X47911Y22076D01*
G01X47892Y22068D01*
G01X47873Y22059D01*
G01X47854Y22049D01*
G01X47836Y22038D01*
G01X47819Y22026D01*
G01X47785Y22000D01*
G01X47768Y21986D01*
G01X47753Y21971D01*
G01X47738Y21955D01*
G01X47723Y21938D01*
G01X47709Y21920D01*
G01X47696Y21902D01*
G01X47683Y21882D01*
G01X47671Y21863D01*
G01X47659Y21842D01*
G01X47639Y21798D01*
G01X47630Y21775D01*
G01X47614Y21727D01*
G01X47608Y21702D01*
G01X47602Y21676D01*
G01X47598Y21650D01*
G01X47594Y21623D01*
G01X47590Y21567D01*
G01X47589Y21538D01*
G01X47590Y21508D01*
G01X47594Y21452D01*
G01X47602Y21398D01*
G01X47614Y21348D01*
G01X47621Y21323D01*
G01X47639Y21277D01*
G01X47648Y21255D01*
G01X47659Y21234D01*
G01X47671Y21213D01*
G01X47683Y21194D01*
G01X47696Y21175D01*
G01X47724Y21139D01*
G01X47739Y21123D01*
G01X47755Y21107D01*
G01X47771Y21092D01*
G01X47788Y21078D01*
G01X47806Y21065D01*
G01X47824Y21053D01*
G01X47843Y21041D01*
G01X47862Y21030D01*
G01X47881Y21021D01*
G01X47902Y21012D01*
G01X47922Y21004D01*
G01X47943Y20997D01*
G01X47965Y20991D01*
G01X48009Y20981D01*
G01X48032Y20978D01*
G01X48078Y20974D01*
G01X48102Y20973D01*
G01X48129Y20974D01*
G01X48156Y20976D01*
G01X48182Y20978D01*
G01X48207Y20982D01*
G01X48255Y20992D01*
G01X48277Y20999D01*
G01X48300Y21006D01*
G01X48342Y21022D01*
G01X48362Y21032D01*
G01X48382Y21041D01*
G01X48401Y21051D01*
G01X48419Y21061D01*
G01X48438Y21072D01*
G01X48456Y21084D01*
G01X48396Y21192D01*
G01X48375Y21178D01*
G01X48355Y21166D01*
G01X48334Y21155D01*
G01X48313Y21145D01*
G01X48291Y21136D01*
G01X48268Y21127D01*
G01X48245Y21120D01*
G01X48222Y21114D01*
G01X48198Y21110D01*
G01X48173Y21106D01*
G01X48148Y21104D01*
G01X48122Y21103D01*
G01X48099Y21104D01*
G01X48076Y21106D01*
G01X48055Y21109D01*
G01X48034Y21113D01*
G01X48013Y21118D01*
G01X47993Y21125D01*
G01X47974Y21132D01*
G01X47956Y21141D01*
G01X47938Y21151D01*
G01X47921Y21161D01*
G01X47904Y21173D01*
G01X47888Y21185D01*
G01X47873Y21199D01*
G01X47859Y21213D01*
G01X47833Y21245D01*
G01X47811Y21281D01*
G01X47801Y21300D01*
G01X47792Y21319D01*
G01X47783Y21340D01*
G01X47776Y21361D01*
G01X47769Y21383D01*
G01X47759Y21429D01*
G01X47756Y21453D01*
G01X47753Y21478D01*
G01X47752Y21503D01*
G01X48489Y21503D01*
G01X48493Y21525D01*
G01X48496Y21549D01*
G01X48497Y21575D01*
G01X48497Y21630D01*
G01X48496Y21659D01*
G01X48490Y21713D01*
G01X48486Y21739D01*
G01X48481Y21764D01*
G01X48476Y21788D01*
G01X48469Y21812D01*
G01X48461Y21835D01*
G01X48453Y21857D01*
G01X48444Y21878D01*
G01X48434Y21899D01*
G01X48423Y21918D01*
G01X48411Y21937D01*
G01X48399Y21955D01*
G01X48386Y21971D01*
G01X48372Y21988D01*
G01X48357Y22003D01*
G01X48341Y22017D01*
G01X48325Y22030D01*
G01X48308Y22042D01*
G01X48290Y22053D01*
G01X48271Y22063D01*
G01X48252Y22072D01*
G01X48232Y22080D01*
G01X48211Y22088D01*
G01X48189Y22094D01*
G01X48167Y22098D01*
G01X48144Y22103D01*
G01X48121Y22105D01*
G01X48097Y22107D01*
G37*

%LPC*%
G36*
G01X48095Y21975D02*
G01X48073Y21976D01*
G01X48054Y21975D01*
G01X48034Y21973D01*
G01X48014Y21969D01*
G01X47996Y21965D01*
G01X47977Y21959D01*
G01X47959Y21952D01*
G01X47923Y21934D01*
G01X47906Y21923D01*
G01X47890Y21910D01*
G01X47875Y21897D01*
G01X47860Y21882D01*
G01X47846Y21867D01*
G01X47832Y21850D01*
G01X47819Y21832D01*
G01X47808Y21813D01*
G01X47797Y21793D01*
G01X47787Y21771D01*
G01X47778Y21749D01*
G01X47770Y21726D01*
G01X47763Y21701D01*
G01X47757Y21676D01*
G01X47753Y21649D01*
G01X47750Y21621D01*
G01X48354Y21621D01*
G01X48353Y21650D01*
G01X48351Y21677D01*
G01X48349Y21703D01*
G01X48345Y21728D01*
G01X48340Y21752D01*
G01X48335Y21775D01*
G01X48328Y21796D01*
G01X48320Y21816D01*
G01X48311Y21836D01*
G01X48302Y21853D01*
G01X48291Y21870D01*
G01X48280Y21886D01*
G01X48267Y21900D01*
G01X48254Y21913D01*
G01X48239Y21925D01*
G01X48224Y21935D01*
G01X48208Y21945D01*
G01X48192Y21953D01*
G01X48174Y21960D01*
G01X48136Y21970D01*
G01X48116Y21973D01*
G01X48095Y21975D01*
G37*

%LPD*%
G36*
G01X45581Y22488D02*
G01X45535Y22490D01*
G01X45491Y22488D01*
G01X45447Y22484D01*
G01X45405Y22476D01*
G01X45384Y22471D01*
G01X45364Y22466D01*
G01X45344Y22460D01*
G01X45325Y22453D01*
G01X45305Y22446D01*
G01X45286Y22438D01*
G01X45268Y22429D01*
G01X45232Y22409D01*
G01X45214Y22398D01*
G01X45197Y22386D01*
G01X45181Y22375D01*
G01X45165Y22362D01*
G01X45149Y22348D01*
G01X45134Y22334D01*
G01X45119Y22319D01*
G01X45105Y22304D01*
G01X45077Y22272D01*
G01X45064Y22255D01*
G01X45040Y22219D01*
G01X45029Y22200D01*
G01X45007Y22160D01*
G01X44997Y22140D01*
G01X44988Y22119D01*
G01X44979Y22097D01*
G01X44971Y22075D01*
G01X44963Y22052D01*
G01X44956Y22028D01*
G01X44950Y22004D01*
G01X44943Y21980D01*
G01X44933Y21930D01*
G01X44929Y21904D01*
G01X44923Y21850D01*
G01X44921Y21823D01*
G01X44919Y21795D01*
G01X44918Y21766D01*
G01X44918Y21709D01*
G01X44919Y21680D01*
G01X44923Y21624D01*
G01X44929Y21570D01*
G01X44933Y21544D01*
G01X44938Y21519D01*
G01X44943Y21493D01*
G01X44950Y21469D01*
G01X44956Y21444D01*
G01X44963Y21421D01*
G01X44979Y21375D01*
G01X44988Y21353D01*
G01X44997Y21332D01*
G01X45007Y21311D01*
G01X45018Y21290D01*
G01X45029Y21270D01*
G01X45040Y21251D01*
G01X45052Y21232D01*
G01X45064Y21214D01*
G01X45077Y21197D01*
G01X45091Y21180D01*
G01X45119Y21148D01*
G01X45134Y21133D01*
G01X45149Y21119D01*
G01X45165Y21105D01*
G01X45197Y21079D01*
G01X45214Y21067D01*
G01X45232Y21057D01*
G01X45250Y21046D01*
G01X45268Y21036D01*
G01X45286Y21027D01*
G01X45305Y21019D01*
G01X45325Y21011D01*
G01X45344Y21004D01*
G01X45384Y20992D01*
G01X45405Y20987D01*
G01X45426Y20983D01*
G01X45447Y20980D01*
G01X45469Y20977D01*
G01X45491Y20975D01*
G01X45535Y20973D01*
G01X45581Y20975D01*
G01X45602Y20977D01*
G01X45646Y20983D01*
G01X45667Y20987D01*
G01X45688Y20992D01*
G01X45728Y21004D01*
G01X45747Y21011D01*
G01X45767Y21019D01*
G01X45786Y21027D01*
G01X45805Y21036D01*
G01X45823Y21046D01*
G01X45840Y21057D01*
G01X45858Y21067D01*
G01X45875Y21079D01*
G01X45892Y21092D01*
G01X45908Y21105D01*
G01X45923Y21119D01*
G01X45939Y21133D01*
G01X45954Y21148D01*
G01X45982Y21180D01*
G01X45996Y21197D01*
G01X46009Y21214D01*
G01X46021Y21232D01*
G01X46033Y21251D01*
G01X46044Y21270D01*
G01X46055Y21290D01*
G01X46066Y21311D01*
G01X46076Y21332D01*
G01X46085Y21353D01*
G01X46094Y21375D01*
G01X46110Y21421D01*
G01X46117Y21444D01*
G01X46123Y21469D01*
G01X46130Y21493D01*
G01X46135Y21519D01*
G01X46140Y21544D01*
G01X46144Y21570D01*
G01X46150Y21624D01*
G01X46154Y21680D01*
G01X46156Y21738D01*
G01X46155Y21766D01*
G01X46154Y21795D01*
G01X46152Y21823D01*
G01X46150Y21850D01*
G01X46144Y21904D01*
G01X46140Y21930D01*
G01X46130Y21980D01*
G01X46123Y22004D01*
G01X46117Y22028D01*
G01X46110Y22052D01*
G01X46102Y22075D01*
G01X46094Y22097D01*
G01X46085Y22119D01*
G01X46076Y22140D01*
G01X46066Y22160D01*
G01X46044Y22200D01*
G01X46033Y22219D01*
G01X46009Y22255D01*
G01X45996Y22272D01*
G01X45968Y22304D01*
G01X45954Y22319D01*
G01X45939Y22334D01*
G01X45923Y22348D01*
G01X45908Y22362D01*
G01X45892Y22375D01*
G01X45875Y22386D01*
G01X45858Y22398D01*
G01X45840Y22409D01*
G01X45823Y22419D01*
G01X45805Y22429D01*
G01X45786Y22438D01*
G01X45767Y22446D01*
G01X45747Y22453D01*
G01X45728Y22460D01*
G01X45708Y22466D01*
G01X45688Y22471D01*
G01X45667Y22476D01*
G01X45646Y22480D01*
G01X45624Y22484D01*
G01X45602Y22486D01*
G01X45581Y22488D01*
G37*

%LPC*%
G36*
G01X45558Y22343D02*
G01X45535Y22344D01*
G01X45513Y22343D01*
G01X45491Y22341D01*
G01X45470Y22339D01*
G01X45449Y22335D01*
G01X45409Y22325D01*
G01X45389Y22318D01*
G01X45370Y22310D01*
G01X45352Y22302D01*
G01X45334Y22292D01*
G01X45316Y22281D01*
G01X45299Y22269D01*
G01X45283Y22257D01*
G01X45267Y22244D01*
G01X45252Y22229D01*
G01X45238Y22214D01*
G01X45224Y22198D01*
G01X45210Y22181D01*
G01X45197Y22163D01*
G01X45185Y22144D01*
G01X45174Y22125D01*
G01X45163Y22104D01*
G01X45153Y22083D01*
G01X45144Y22061D01*
G01X45135Y22038D01*
G01X45119Y21990D01*
G01X45113Y21965D01*
G01X45107Y21939D01*
G01X45097Y21885D01*
G01X45094Y21857D01*
G01X45091Y21828D01*
G01X45089Y21798D01*
G01X45088Y21768D01*
G01X45088Y21707D01*
G01X45089Y21676D01*
G01X45091Y21646D01*
G01X45094Y21617D01*
G01X45097Y21589D01*
G01X45102Y21561D01*
G01X45107Y21534D01*
G01X45119Y21482D01*
G01X45127Y21457D01*
G01X45135Y21434D01*
G01X45144Y21410D01*
G01X45153Y21388D01*
G01X45163Y21366D01*
G01X45174Y21345D01*
G01X45185Y21325D01*
G01X45197Y21306D01*
G01X45210Y21288D01*
G01X45224Y21270D01*
G01X45238Y21253D01*
G01X45252Y21238D01*
G01X45267Y21223D01*
G01X45283Y21209D01*
G01X45299Y21196D01*
G01X45316Y21184D01*
G01X45334Y21173D01*
G01X45352Y21163D01*
G01X45370Y21154D01*
G01X45389Y21146D01*
G01X45409Y21139D01*
G01X45429Y21133D01*
G01X45449Y21128D01*
G01X45491Y21122D01*
G01X45513Y21120D01*
G01X45535Y21119D01*
G01X45558Y21120D01*
G01X45580Y21122D01*
G01X45602Y21125D01*
G01X45622Y21128D01*
G01X45643Y21133D01*
G01X45663Y21139D01*
G01X45683Y21146D01*
G01X45702Y21154D01*
G01X45721Y21163D01*
G01X45739Y21173D01*
G01X45756Y21184D01*
G01X45773Y21196D01*
G01X45789Y21209D01*
G01X45805Y21223D01*
G01X45821Y21238D01*
G01X45835Y21253D01*
G01X45849Y21270D01*
G01X45863Y21288D01*
G01X45875Y21306D01*
G01X45887Y21325D01*
G01X45899Y21345D01*
G01X45910Y21366D01*
G01X45920Y21388D01*
G01X45929Y21410D01*
G01X45938Y21434D01*
G01X45946Y21457D01*
G01X45954Y21482D01*
G01X45966Y21534D01*
G01X45971Y21561D01*
G01X45976Y21589D01*
G01X45979Y21617D01*
G01X45982Y21646D01*
G01X45984Y21676D01*
G01X45985Y21707D01*
G01X45985Y21768D01*
G01X45984Y21798D01*
G01X45982Y21828D01*
G01X45979Y21857D01*
G01X45976Y21885D01*
G01X45966Y21939D01*
G01X45960Y21965D01*
G01X45954Y21990D01*
G01X45938Y22038D01*
G01X45929Y22061D01*
G01X45920Y22083D01*
G01X45910Y22104D01*
G01X45899Y22125D01*
G01X45875Y22163D01*
G01X45863Y22181D01*
G01X45849Y22198D01*
G01X45835Y22214D01*
G01X45821Y22229D01*
G01X45805Y22244D01*
G01X45789Y22257D01*
G01X45773Y22269D01*
G01X45756Y22281D01*
G01X45739Y22292D01*
G01X45721Y22302D01*
G01X45683Y22318D01*
G01X45663Y22325D01*
G01X45643Y22330D01*
G01X45622Y22335D01*
G01X45602Y22339D01*
G01X45558Y22343D01*
G37*

%LPD*%
G36*
G01X52343Y22107D02*
G01X52292Y22107D01*
G01X52266Y22104D01*
G01X52240Y22099D01*
G01X52215Y22093D01*
G01X52190Y22085D01*
G01X52167Y22076D01*
G01X52143Y22065D01*
G01X52121Y22053D01*
G01X52099Y22040D01*
G01X52077Y22025D01*
G01X52056Y22010D01*
G01X52035Y21994D01*
G01X52015Y21977D01*
G01X51995Y21959D01*
G01X51975Y21940D01*
G01X51956Y21921D01*
G01X51950Y21921D01*
G01X51934Y22080D01*
G01X51802Y22080D01*
G01X51802Y21000D01*
G01X51964Y21000D01*
G01X51964Y21790D01*
G01X51984Y21811D01*
G01X52024Y21849D01*
G01X52043Y21866D01*
G01X52062Y21882D01*
G01X52080Y21896D01*
G01X52098Y21909D01*
G01X52117Y21921D01*
G01X52135Y21931D01*
G01X52154Y21940D01*
G01X52172Y21948D01*
G01X52191Y21954D01*
G01X52210Y21959D01*
G01X52230Y21963D01*
G01X52251Y21965D01*
G01X52293Y21965D01*
G01X52314Y21963D01*
G01X52333Y21959D01*
G01X52351Y21954D01*
G01X52368Y21948D01*
G01X52384Y21940D01*
G01X52398Y21931D01*
G01X52412Y21920D01*
G01X52424Y21907D01*
G01X52435Y21894D01*
G01X52445Y21878D01*
G01X52453Y21861D01*
G01X52461Y21842D01*
G01X52468Y21822D01*
G01X52473Y21800D01*
G01X52478Y21777D01*
G01X52484Y21725D01*
G01X52485Y21696D01*
G01X52485Y21000D01*
G01X52650Y21000D01*
G01X52650Y21686D01*
G01X52649Y21715D01*
G01X52648Y21743D01*
G01X52646Y21770D01*
G01X52643Y21796D01*
G01X52639Y21821D01*
G01X52635Y21845D01*
G01X52630Y21868D01*
G01X52624Y21890D01*
G01X52617Y21911D01*
G01X52609Y21931D01*
G01X52600Y21950D01*
G01X52591Y21967D01*
G01X52581Y21984D01*
G01X52569Y22000D01*
G01X52557Y22015D01*
G01X52531Y22041D01*
G01X52516Y22052D01*
G01X52500Y22063D01*
G01X52484Y22072D01*
G01X52467Y22080D01*
G01X52448Y22088D01*
G01X52429Y22094D01*
G01X52409Y22099D01*
G01X52388Y22103D01*
G01X52366Y22105D01*
G01X52343Y22107D01*
G37*

%LPD*%
G36*
G01X49642Y22592D02*
G01X49480Y22592D01*
G01X49480Y21000D01*
G01X49642Y21000D01*
G01X49642Y21790D01*
G01X49662Y21811D01*
G01X49702Y21849D01*
G01X49721Y21866D01*
G01X49740Y21882D01*
G01X49758Y21896D01*
G01X49777Y21909D01*
G01X49795Y21921D01*
G01X49813Y21931D01*
G01X49831Y21940D01*
G01X49850Y21948D01*
G01X49869Y21954D01*
G01X49888Y21959D01*
G01X49908Y21963D01*
G01X49929Y21965D01*
G01X49971Y21965D01*
G01X49992Y21963D01*
G01X50011Y21959D01*
G01X50029Y21954D01*
G01X50046Y21948D01*
G01X50062Y21940D01*
G01X50076Y21931D01*
G01X50090Y21920D01*
G01X50102Y21907D01*
G01X50113Y21894D01*
G01X50123Y21878D01*
G01X50131Y21861D01*
G01X50139Y21842D01*
G01X50146Y21822D01*
G01X50151Y21800D01*
G01X50156Y21777D01*
G01X50159Y21751D01*
G01X50161Y21725D01*
G01X50163Y21696D01*
G01X50164Y21665D01*
G01X50164Y21000D01*
G01X50327Y21000D01*
G01X50327Y21715D01*
G01X50326Y21743D01*
G01X50324Y21770D01*
G01X50321Y21796D01*
G01X50318Y21821D01*
G01X50313Y21845D01*
G01X50308Y21868D01*
G01X50302Y21890D01*
G01X50295Y21911D01*
G01X50287Y21931D01*
G01X50278Y21950D01*
G01X50269Y21967D01*
G01X50259Y21984D01*
G01X50247Y22000D01*
G01X50235Y22015D01*
G01X50209Y22041D01*
G01X50194Y22052D01*
G01X50178Y22063D01*
G01X50162Y22072D01*
G01X50126Y22088D01*
G01X50107Y22094D01*
G01X50087Y22099D01*
G01X50066Y22103D01*
G01X50044Y22105D01*
G01X50021Y22107D01*
G01X49970Y22107D01*
G01X49944Y22104D01*
G01X49918Y22099D01*
G01X49893Y22093D01*
G01X49869Y22085D01*
G01X49845Y22076D01*
G01X49822Y22065D01*
G01X49800Y22053D01*
G01X49778Y22040D01*
G01X49757Y22026D01*
G01X49736Y22011D01*
G01X49715Y21994D01*
G01X49695Y21978D01*
G01X49655Y21942D01*
G01X49635Y21923D01*
G01X49642Y22150D01*
G01X49642Y22592D01*
G37*

%LPD*%
G36*
G01X47005Y22107D02*
G01X46954Y22107D01*
G01X46928Y22104D01*
G01X46902Y22099D01*
G01X46877Y22093D01*
G01X46852Y22085D01*
G01X46829Y22076D01*
G01X46806Y22065D01*
G01X46783Y22053D01*
G01X46761Y22040D01*
G01X46739Y22025D01*
G01X46718Y22010D01*
G01X46697Y21994D01*
G01X46677Y21977D01*
G01X46657Y21959D01*
G01X46637Y21940D01*
G01X46618Y21921D01*
G01X46611Y21921D01*
G01X46596Y22080D01*
G01X46464Y22080D01*
G01X46464Y21000D01*
G01X46626Y21000D01*
G01X46626Y21790D01*
G01X46646Y21811D01*
G01X46686Y21849D01*
G01X46705Y21866D01*
G01X46724Y21882D01*
G01X46742Y21896D01*
G01X46760Y21909D01*
G01X46779Y21921D01*
G01X46797Y21931D01*
G01X46815Y21940D01*
G01X46834Y21948D01*
G01X46853Y21954D01*
G01X46872Y21959D01*
G01X46892Y21963D01*
G01X46913Y21965D01*
G01X46955Y21965D01*
G01X46976Y21963D01*
G01X46995Y21959D01*
G01X47013Y21954D01*
G01X47030Y21948D01*
G01X47046Y21940D01*
G01X47060Y21931D01*
G01X47074Y21920D01*
G01X47086Y21907D01*
G01X47097Y21894D01*
G01X47107Y21878D01*
G01X47115Y21861D01*
G01X47123Y21842D01*
G01X47130Y21822D01*
G01X47135Y21800D01*
G01X47140Y21777D01*
G01X47146Y21725D01*
G01X47147Y21696D01*
G01X47147Y21000D01*
G01X47311Y21000D01*
G01X47311Y21715D01*
G01X47310Y21743D01*
G01X47308Y21770D01*
G01X47305Y21796D01*
G01X47302Y21821D01*
G01X47297Y21845D01*
G01X47292Y21868D01*
G01X47286Y21890D01*
G01X47279Y21911D01*
G01X47271Y21931D01*
G01X47262Y21950D01*
G01X47253Y21967D01*
G01X47243Y21984D01*
G01X47231Y22000D01*
G01X47219Y22015D01*
G01X47193Y22041D01*
G01X47178Y22052D01*
G01X47162Y22063D01*
G01X47146Y22072D01*
G01X47129Y22080D01*
G01X47110Y22088D01*
G01X47091Y22094D01*
G01X47071Y22099D01*
G01X47050Y22103D01*
G01X47028Y22105D01*
G01X47005Y22107D01*
G37*

%LPD*%
G36*
G01X49202Y21621D02*
G01X48696Y21621D01*
G01X48696Y21494D01*
G01X49202Y21494D01*
G01X49202Y21621D01*
G37*

%LPD*%
G36*
G01X58435Y24888D02*
G01X58389Y24890D01*
G01X58345Y24888D01*
G01X58301Y24884D01*
G01X58259Y24876D01*
G01X58238Y24871D01*
G01X58218Y24866D01*
G01X58198Y24860D01*
G01X58179Y24853D01*
G01X58159Y24846D01*
G01X58140Y24838D01*
G01X58122Y24829D01*
G01X58086Y24809D01*
G01X58068Y24798D01*
G01X58052Y24786D01*
G01X58035Y24775D01*
G01X58019Y24762D01*
G01X58003Y24748D01*
G01X57988Y24734D01*
G01X57973Y24719D01*
G01X57959Y24704D01*
G01X57931Y24672D01*
G01X57918Y24655D01*
G01X57894Y24619D01*
G01X57882Y24600D01*
G01X57872Y24580D01*
G01X57861Y24560D01*
G01X57851Y24540D01*
G01X57842Y24519D01*
G01X57833Y24497D01*
G01X57825Y24475D01*
G01X57817Y24452D01*
G01X57810Y24428D01*
G01X57804Y24404D01*
G01X57797Y24380D01*
G01X57787Y24330D01*
G01X57783Y24304D01*
G01X57777Y24250D01*
G01X57775Y24223D01*
G01X57773Y24195D01*
G01X57772Y24166D01*
G01X57772Y24109D01*
G01X57773Y24080D01*
G01X57777Y24024D01*
G01X57783Y23970D01*
G01X57787Y23944D01*
G01X57792Y23919D01*
G01X57797Y23893D01*
G01X57804Y23869D01*
G01X57810Y23844D01*
G01X57817Y23821D01*
G01X57833Y23775D01*
G01X57842Y23753D01*
G01X57851Y23732D01*
G01X57861Y23711D01*
G01X57872Y23690D01*
G01X57882Y23670D01*
G01X57906Y23632D01*
G01X57918Y23614D01*
G01X57931Y23597D01*
G01X57945Y23580D01*
G01X57973Y23548D01*
G01X57988Y23533D01*
G01X58003Y23519D01*
G01X58019Y23505D01*
G01X58035Y23492D01*
G01X58052Y23479D01*
G01X58068Y23467D01*
G01X58086Y23457D01*
G01X58104Y23446D01*
G01X58122Y23436D01*
G01X58140Y23427D01*
G01X58159Y23419D01*
G01X58179Y23411D01*
G01X58198Y23404D01*
G01X58238Y23392D01*
G01X58259Y23387D01*
G01X58280Y23383D01*
G01X58301Y23380D01*
G01X58323Y23377D01*
G01X58345Y23375D01*
G01X58389Y23373D01*
G01X58435Y23375D01*
G01X58456Y23377D01*
G01X58500Y23383D01*
G01X58521Y23387D01*
G01X58542Y23392D01*
G01X58582Y23404D01*
G01X58602Y23411D01*
G01X58640Y23427D01*
G01X58659Y23436D01*
G01X58677Y23446D01*
G01X58694Y23457D01*
G01X58712Y23467D01*
G01X58729Y23479D01*
G01X58746Y23492D01*
G01X58762Y23505D01*
G01X58777Y23519D01*
G01X58793Y23533D01*
G01X58808Y23548D01*
G01X58836Y23580D01*
G01X58850Y23597D01*
G01X58863Y23614D01*
G01X58875Y23632D01*
G01X58887Y23651D01*
G01X58898Y23670D01*
G01X58909Y23690D01*
G01X58920Y23711D01*
G01X58930Y23732D01*
G01X58939Y23753D01*
G01X58948Y23775D01*
G01X58964Y23821D01*
G01X58971Y23844D01*
G01X58977Y23869D01*
G01X58984Y23893D01*
G01X58989Y23919D01*
G01X58994Y23944D01*
G01X58998Y23970D01*
G01X59004Y24024D01*
G01X59008Y24080D01*
G01X59010Y24138D01*
G01X59009Y24166D01*
G01X59008Y24195D01*
G01X59006Y24223D01*
G01X59004Y24250D01*
G01X58998Y24304D01*
G01X58994Y24330D01*
G01X58984Y24380D01*
G01X58977Y24404D01*
G01X58971Y24428D01*
G01X58964Y24452D01*
G01X58956Y24475D01*
G01X58948Y24497D01*
G01X58939Y24519D01*
G01X58930Y24540D01*
G01X58920Y24560D01*
G01X58898Y24600D01*
G01X58887Y24619D01*
G01X58863Y24655D01*
G01X58850Y24672D01*
G01X58822Y24704D01*
G01X58808Y24719D01*
G01X58793Y24734D01*
G01X58777Y24748D01*
G01X58762Y24762D01*
G01X58746Y24775D01*
G01X58729Y24786D01*
G01X58712Y24798D01*
G01X58694Y24809D01*
G01X58677Y24819D01*
G01X58659Y24829D01*
G01X58640Y24838D01*
G01X58621Y24846D01*
G01X58602Y24853D01*
G01X58582Y24860D01*
G01X58562Y24866D01*
G01X58542Y24871D01*
G01X58521Y24876D01*
G01X58500Y24880D01*
G01X58478Y24884D01*
G01X58456Y24886D01*
G01X58435Y24888D01*
G37*

%LPC*%
G36*
G01X58412Y24743D02*
G01X58389Y24744D01*
G01X58367Y24743D01*
G01X58345Y24741D01*
G01X58324Y24739D01*
G01X58303Y24735D01*
G01X58282Y24730D01*
G01X58263Y24725D01*
G01X58243Y24718D01*
G01X58224Y24710D01*
G01X58206Y24702D01*
G01X58188Y24692D01*
G01X58170Y24681D01*
G01X58153Y24669D01*
G01X58137Y24657D01*
G01X58121Y24644D01*
G01X58106Y24629D01*
G01X58092Y24614D01*
G01X58078Y24598D01*
G01X58064Y24581D01*
G01X58052Y24563D01*
G01X58039Y24544D01*
G01X58028Y24525D01*
G01X58017Y24504D01*
G01X58007Y24483D01*
G01X57998Y24461D01*
G01X57989Y24438D01*
G01X57973Y24390D01*
G01X57967Y24365D01*
G01X57961Y24339D01*
G01X57956Y24312D01*
G01X57952Y24285D01*
G01X57948Y24257D01*
G01X57945Y24228D01*
G01X57943Y24198D01*
G01X57942Y24168D01*
G01X57942Y24107D01*
G01X57943Y24076D01*
G01X57945Y24046D01*
G01X57948Y24017D01*
G01X57956Y23961D01*
G01X57961Y23934D01*
G01X57973Y23882D01*
G01X57981Y23857D01*
G01X57989Y23834D01*
G01X57998Y23810D01*
G01X58007Y23788D01*
G01X58017Y23766D01*
G01X58028Y23745D01*
G01X58039Y23725D01*
G01X58052Y23706D01*
G01X58064Y23688D01*
G01X58078Y23670D01*
G01X58092Y23653D01*
G01X58106Y23638D01*
G01X58121Y23623D01*
G01X58137Y23609D01*
G01X58153Y23596D01*
G01X58170Y23584D01*
G01X58188Y23573D01*
G01X58206Y23563D01*
G01X58224Y23554D01*
G01X58243Y23546D01*
G01X58263Y23539D01*
G01X58282Y23533D01*
G01X58303Y23528D01*
G01X58345Y23522D01*
G01X58367Y23520D01*
G01X58389Y23519D01*
G01X58412Y23520D01*
G01X58434Y23522D01*
G01X58456Y23525D01*
G01X58477Y23528D01*
G01X58497Y23533D01*
G01X58517Y23539D01*
G01X58537Y23546D01*
G01X58556Y23554D01*
G01X58575Y23563D01*
G01X58593Y23573D01*
G01X58610Y23584D01*
G01X58627Y23596D01*
G01X58643Y23609D01*
G01X58659Y23623D01*
G01X58675Y23638D01*
G01X58689Y23653D01*
G01X58703Y23670D01*
G01X58717Y23688D01*
G01X58729Y23706D01*
G01X58741Y23725D01*
G01X58753Y23745D01*
G01X58764Y23766D01*
G01X58774Y23788D01*
G01X58783Y23810D01*
G01X58792Y23834D01*
G01X58800Y23857D01*
G01X58807Y23882D01*
G01X58814Y23908D01*
G01X58820Y23934D01*
G01X58825Y23961D01*
G01X58830Y23989D01*
G01X58833Y24017D01*
G01X58836Y24046D01*
G01X58838Y24076D01*
G01X58839Y24107D01*
G01X58839Y24168D01*
G01X58838Y24198D01*
G01X58836Y24228D01*
G01X58833Y24257D01*
G01X58830Y24285D01*
G01X58820Y24339D01*
G01X58814Y24365D01*
G01X58807Y24390D01*
G01X58800Y24414D01*
G01X58792Y24438D01*
G01X58783Y24461D01*
G01X58774Y24483D01*
G01X58764Y24504D01*
G01X58753Y24525D01*
G01X58729Y24563D01*
G01X58717Y24581D01*
G01X58703Y24598D01*
G01X58689Y24614D01*
G01X58675Y24629D01*
G01X58659Y24644D01*
G01X58643Y24657D01*
G01X58627Y24669D01*
G01X58610Y24681D01*
G01X58593Y24692D01*
G01X58575Y24702D01*
G01X58537Y24718D01*
G01X58517Y24725D01*
G01X58477Y24735D01*
G01X58456Y24739D01*
G01X58412Y24743D01*
G37*

%LPD*%
G36*
G01X54072Y24863D02*
G01X53906Y24863D01*
G01X53906Y23959D01*
G01X53907Y23926D01*
G01X53909Y23894D01*
G01X53912Y23863D01*
G01X53916Y23833D01*
G01X53921Y23804D01*
G01X53926Y23777D01*
G01X53932Y23750D01*
G01X53946Y23700D01*
G01X53954Y23677D01*
G01X53963Y23654D01*
G01X53972Y23632D01*
G01X53983Y23612D01*
G01X53993Y23592D01*
G01X54017Y23556D01*
G01X54043Y23524D01*
G01X54056Y23509D01*
G01X54071Y23495D01*
G01X54101Y23469D01*
G01X54117Y23457D01*
G01X54133Y23447D01*
G01X54150Y23437D01*
G01X54167Y23428D01*
G01X54185Y23419D01*
G01X54221Y23405D01*
G01X54259Y23393D01*
G01X54279Y23388D01*
G01X54298Y23384D01*
G01X54318Y23381D01*
G01X54339Y23378D01*
G01X54360Y23376D01*
G01X54423Y23373D01*
G01X54445Y23374D01*
G01X54487Y23376D01*
G01X54508Y23378D01*
G01X54529Y23381D01*
G01X54549Y23384D01*
G01X54568Y23388D01*
G01X54588Y23393D01*
G01X54626Y23405D01*
G01X54662Y23419D01*
G01X54680Y23428D01*
G01X54697Y23437D01*
G01X54714Y23447D01*
G01X54730Y23457D01*
G01X54746Y23469D01*
G01X54776Y23495D01*
G01X54790Y23509D01*
G01X54804Y23524D01*
G01X54818Y23540D01*
G01X54830Y23556D01*
G01X54854Y23592D01*
G01X54864Y23612D01*
G01X54875Y23632D01*
G01X54884Y23654D01*
G01X54893Y23677D01*
G01X54901Y23700D01*
G01X54909Y23725D01*
G01X54915Y23750D01*
G01X54927Y23804D01*
G01X54931Y23833D01*
G01X54935Y23863D01*
G01X54938Y23894D01*
G01X54940Y23926D01*
G01X54941Y23959D01*
G01X54942Y23994D01*
G01X54942Y24863D01*
G01X54784Y24863D01*
G01X54784Y23992D01*
G01X54783Y23959D01*
G01X54782Y23927D01*
G01X54779Y23897D01*
G01X54776Y23868D01*
G01X54772Y23840D01*
G01X54767Y23814D01*
G01X54755Y23766D01*
G01X54748Y23744D01*
G01X54740Y23723D01*
G01X54731Y23703D01*
G01X54722Y23684D01*
G01X54712Y23667D01*
G01X54701Y23650D01*
G01X54690Y23635D01*
G01X54678Y23621D01*
G01X54665Y23607D01*
G01X54652Y23595D01*
G01X54639Y23584D01*
G01X54625Y23574D01*
G01X54610Y23565D01*
G01X54595Y23557D01*
G01X54579Y23549D01*
G01X54547Y23537D01*
G01X54530Y23532D01*
G01X54513Y23528D01*
G01X54496Y23525D01*
G01X54460Y23521D01*
G01X54442Y23520D01*
G01X54423Y23519D01*
G01X54403Y23520D01*
G01X54382Y23521D01*
G01X54362Y23523D01*
G01X54342Y23527D01*
G01X54323Y23531D01*
G01X54304Y23536D01*
G01X54268Y23550D01*
G01X54251Y23559D01*
G01X54234Y23569D01*
G01X54218Y23580D01*
G01X54203Y23592D01*
G01X54188Y23605D01*
G01X54174Y23621D01*
G01X54161Y23637D01*
G01X54148Y23655D01*
G01X54137Y23674D01*
G01X54126Y23694D01*
G01X54116Y23717D01*
G01X54107Y23740D01*
G01X54099Y23766D01*
G01X54092Y23793D01*
G01X54086Y23821D01*
G01X54081Y23852D01*
G01X54077Y23884D01*
G01X54074Y23918D01*
G01X54072Y23954D01*
G01X54072Y24863D01*
G37*

%LPD*%
G36*
G01X50660Y24889D02*
G01X50634Y24890D01*
G01X50606Y24889D01*
G01X50579Y24887D01*
G01X50552Y24884D01*
G01X50527Y24880D01*
G01X50502Y24875D01*
G01X50477Y24869D01*
G01X50453Y24861D01*
G01X50430Y24853D01*
G01X50386Y24833D01*
G01X50366Y24821D01*
G01X50347Y24809D01*
G01X50328Y24796D01*
G01X50310Y24782D01*
G01X50293Y24767D01*
G01X50277Y24751D01*
G01X50249Y24717D01*
G01X50237Y24699D01*
G01X50215Y24661D01*
G01X50207Y24641D01*
G01X50199Y24620D01*
G01X50193Y24598D01*
G01X50188Y24577D01*
G01X50184Y24554D01*
G01X50182Y24531D01*
G01X50181Y24507D01*
G01X50182Y24481D01*
G01X50185Y24456D01*
G01X50189Y24432D01*
G01X50194Y24410D01*
G01X50201Y24388D01*
G01X50209Y24367D01*
G01X50218Y24348D01*
G01X50229Y24329D01*
G01X50240Y24311D01*
G01X50252Y24294D01*
G01X50265Y24278D01*
G01X50294Y24249D01*
G01X50310Y24235D01*
G01X50326Y24222D01*
G01X50342Y24210D01*
G01X50376Y24188D01*
G01X50410Y24168D01*
G01X50428Y24159D01*
G01X50462Y24143D01*
G01X50480Y24136D01*
G01X50692Y24042D01*
G01X50717Y24030D01*
G01X50743Y24019D01*
G01X50767Y24007D01*
G01X50790Y23995D01*
G01X50832Y23971D01*
G01X50851Y23957D01*
G01X50869Y23942D01*
G01X50885Y23927D01*
G01X50899Y23910D01*
G01X50912Y23892D01*
G01X50922Y23872D01*
G01X50931Y23850D01*
G01X50936Y23826D01*
G01X50940Y23800D01*
G01X50942Y23771D01*
G01X50940Y23749D01*
G01X50938Y23728D01*
G01X50934Y23707D01*
G01X50927Y23688D01*
G01X50919Y23669D01*
G01X50910Y23651D01*
G01X50898Y23634D01*
G01X50886Y23618D01*
G01X50871Y23603D01*
G01X50856Y23589D01*
G01X50838Y23577D01*
G01X50819Y23565D01*
G01X50799Y23555D01*
G01X50777Y23546D01*
G01X50754Y23538D01*
G01X50730Y23531D01*
G01X50704Y23526D01*
G01X50677Y23523D01*
G01X50649Y23520D01*
G01X50619Y23519D01*
G01X50596Y23520D01*
G01X50550Y23524D01*
G01X50527Y23528D01*
G01X50505Y23532D01*
G01X50482Y23538D01*
G01X50438Y23552D01*
G01X50396Y23570D01*
G01X50375Y23580D01*
G01X50355Y23591D01*
G01X50315Y23615D01*
G01X50296Y23628D01*
G01X50278Y23642D01*
G01X50260Y23657D01*
G01X50226Y23689D01*
G01X50210Y23705D01*
G01X50110Y23592D01*
G01X50126Y23575D01*
G01X50142Y23559D01*
G01X50159Y23544D01*
G01X50177Y23529D01*
G01X50194Y23515D01*
G01X50213Y23501D01*
G01X50232Y23488D01*
G01X50251Y23476D01*
G01X50271Y23464D01*
G01X50291Y23453D01*
G01X50312Y23442D01*
G01X50333Y23432D01*
G01X50354Y23423D01*
G01X50398Y23407D01*
G01X50421Y23400D01*
G01X50444Y23394D01*
G01X50492Y23384D01*
G01X50516Y23380D01*
G01X50541Y23377D01*
G01X50566Y23375D01*
G01X50618Y23373D01*
G01X50646Y23374D01*
G01X50700Y23378D01*
G01X50725Y23382D01*
G01X50751Y23386D01*
G01X50799Y23398D01*
G01X50822Y23405D01*
G01X50844Y23413D01*
G01X50865Y23422D01*
G01X50886Y23432D01*
G01X50906Y23442D01*
G01X50925Y23454D01*
G01X50943Y23466D01*
G01X50977Y23492D01*
G01X50992Y23507D01*
G01X51007Y23521D01*
G01X51021Y23537D01*
G01X51034Y23553D01*
G01X51045Y23569D01*
G01X51056Y23586D01*
G01X51066Y23604D01*
G01X51075Y23623D01*
G01X51083Y23641D01*
G01X51090Y23660D01*
G01X51096Y23680D01*
G01X51101Y23700D01*
G01X51105Y23720D01*
G01X51109Y23762D01*
G01X51110Y23784D01*
G01X51109Y23810D01*
G01X51107Y23836D01*
G01X51103Y23860D01*
G01X51099Y23883D01*
G01X51093Y23905D01*
G01X51086Y23926D01*
G01X51077Y23946D01*
G01X51068Y23965D01*
G01X51058Y23984D01*
G01X51034Y24018D01*
G01X51021Y24034D01*
G01X51006Y24048D01*
G01X50991Y24063D01*
G01X50976Y24077D01*
G01X50959Y24090D01*
G01X50942Y24102D01*
G01X50924Y24114D01*
G01X50886Y24136D01*
G01X50867Y24146D01*
G01X50847Y24157D01*
G01X50826Y24166D01*
G01X50806Y24176D01*
G01X50593Y24265D01*
G01X50572Y24275D01*
G01X50551Y24284D01*
G01X50529Y24294D01*
G01X50508Y24304D01*
G01X50487Y24315D01*
G01X50467Y24328D01*
G01X50448Y24340D01*
G01X50430Y24354D01*
G01X50413Y24369D01*
G01X50397Y24386D01*
G01X50384Y24404D01*
G01X50372Y24423D01*
G01X50363Y24444D01*
G01X50355Y24467D01*
G01X50351Y24492D01*
G01X50350Y24519D01*
G01X50350Y24540D01*
G01X50353Y24559D01*
G01X50357Y24578D01*
G01X50363Y24596D01*
G01X50370Y24613D01*
G01X50379Y24629D01*
G01X50389Y24644D01*
G01X50401Y24658D01*
G01X50414Y24671D01*
G01X50428Y24683D01*
G01X50443Y24694D01*
G01X50460Y24704D01*
G01X50478Y24713D01*
G01X50497Y24721D01*
G01X50518Y24728D01*
G01X50539Y24734D01*
G01X50561Y24738D01*
G01X50584Y24741D01*
G01X50609Y24743D01*
G01X50634Y24744D01*
G01X50659Y24743D01*
G01X50685Y24741D01*
G01X50709Y24738D01*
G01X50733Y24734D01*
G01X50756Y24728D01*
G01X50778Y24722D01*
G01X50800Y24714D01*
G01X50821Y24706D01*
G01X50842Y24696D01*
G01X50862Y24686D01*
G01X50881Y24674D01*
G01X50901Y24662D01*
G01X50937Y24634D01*
G01X50955Y24619D01*
G01X50972Y24603D01*
G01X51060Y24709D01*
G01X51044Y24725D01*
G01X51028Y24740D01*
G01X51011Y24755D01*
G01X50994Y24769D01*
G01X50976Y24782D01*
G01X50957Y24795D01*
G01X50917Y24819D01*
G01X50875Y24839D01*
G01X50831Y24857D01*
G01X50808Y24864D01*
G01X50784Y24871D01*
G01X50736Y24881D01*
G01X50711Y24885D01*
G01X50685Y24887D01*
G01X50660Y24889D01*
G37*

%LPD*%
G36*
G01X48988Y24507D02*
G01X48943Y24507D01*
G01X48922Y24505D01*
G01X48900Y24503D01*
G01X48879Y24500D01*
G01X48858Y24496D01*
G01X48837Y24490D01*
G01X48817Y24484D01*
G01X48797Y24477D01*
G01X48757Y24461D01*
G01X48738Y24451D01*
G01X48719Y24440D01*
G01X48702Y24429D01*
G01X48684Y24416D01*
G01X48667Y24403D01*
G01X48650Y24389D01*
G01X48634Y24374D01*
G01X48618Y24358D01*
G01X48604Y24342D01*
G01X48589Y24324D01*
G01X48576Y24306D01*
G01X48563Y24287D01*
G01X48551Y24267D01*
G01X48539Y24246D01*
G01X48529Y24225D01*
G01X48519Y24202D01*
G01X48510Y24179D01*
G01X48494Y24131D01*
G01X48482Y24079D01*
G01X48474Y24025D01*
G01X48470Y23967D01*
G01X48469Y23938D01*
G01X48470Y23908D01*
G01X48474Y23852D01*
G01X48478Y23824D01*
G01X48482Y23798D01*
G01X48488Y23772D01*
G01X48494Y23747D01*
G01X48510Y23699D01*
G01X48519Y23676D01*
G01X48529Y23654D01*
G01X48539Y23633D01*
G01X48563Y23593D01*
G01X48576Y23574D01*
G01X48589Y23556D01*
G01X48604Y23538D01*
G01X48618Y23522D01*
G01X48634Y23506D01*
G01X48650Y23492D01*
G01X48684Y23464D01*
G01X48702Y23452D01*
G01X48719Y23441D01*
G01X48738Y23430D01*
G01X48757Y23420D01*
G01X48777Y23411D01*
G01X48837Y23390D01*
G01X48858Y23385D01*
G01X48879Y23381D01*
G01X48900Y23378D01*
G01X48922Y23376D01*
G01X48943Y23374D01*
G01X48965Y23373D01*
G01X48988Y23374D01*
G01X49009Y23376D01*
G01X49031Y23378D01*
G01X49052Y23381D01*
G01X49073Y23385D01*
G01X49094Y23390D01*
G01X49114Y23397D01*
G01X49135Y23404D01*
G01X49155Y23411D01*
G01X49174Y23420D01*
G01X49193Y23430D01*
G01X49212Y23441D01*
G01X49230Y23452D01*
G01X49248Y23464D01*
G01X49282Y23492D01*
G01X49298Y23506D01*
G01X49314Y23522D01*
G01X49329Y23538D01*
G01X49343Y23556D01*
G01X49356Y23574D01*
G01X49369Y23593D01*
G01X49393Y23633D01*
G01X49404Y23654D01*
G01X49414Y23676D01*
G01X49423Y23699D01*
G01X49439Y23747D01*
G01X49445Y23772D01*
G01X49451Y23798D01*
G01X49455Y23824D01*
G01X49459Y23852D01*
G01X49463Y23908D01*
G01X49464Y23938D01*
G01X49463Y23967D01*
G01X49459Y24025D01*
G01X49451Y24079D01*
G01X49439Y24131D01*
G01X49423Y24179D01*
G01X49414Y24202D01*
G01X49404Y24225D01*
G01X49393Y24246D01*
G01X49381Y24267D01*
G01X49369Y24287D01*
G01X49356Y24306D01*
G01X49343Y24324D01*
G01X49329Y24342D01*
G01X49314Y24358D01*
G01X49298Y24374D01*
G01X49282Y24389D01*
G01X49265Y24403D01*
G01X49248Y24416D01*
G01X49230Y24429D01*
G01X49212Y24440D01*
G01X49193Y24451D01*
G01X49174Y24461D01*
G01X49155Y24469D01*
G01X49135Y24477D01*
G01X49114Y24484D01*
G01X49094Y24490D01*
G01X49073Y24496D01*
G01X49052Y24500D01*
G01X49031Y24503D01*
G01X49009Y24505D01*
G01X48988Y24507D01*
G37*

%LPC*%
G36*
G01X48986Y24369D02*
G01X48945Y24369D01*
G01X48925Y24367D01*
G01X48905Y24364D01*
G01X48886Y24359D01*
G01X48868Y24353D01*
G01X48850Y24346D01*
G01X48832Y24338D01*
G01X48816Y24329D01*
G01X48800Y24319D01*
G01X48784Y24307D01*
G01X48769Y24294D01*
G01X48755Y24281D01*
G01X48742Y24266D01*
G01X48729Y24250D01*
G01X48717Y24234D01*
G01X48706Y24216D01*
G01X48695Y24197D01*
G01X48685Y24178D01*
G01X48677Y24157D01*
G01X48668Y24136D01*
G01X48661Y24114D01*
G01X48655Y24091D01*
G01X48650Y24067D01*
G01X48646Y24043D01*
G01X48642Y24017D01*
G01X48639Y23992D01*
G01X48638Y23965D01*
G01X48638Y23910D01*
G01X48639Y23884D01*
G01X48642Y23858D01*
G01X48646Y23833D01*
G01X48650Y23809D01*
G01X48655Y23785D01*
G01X48661Y23763D01*
G01X48668Y23741D01*
G01X48677Y23720D01*
G01X48685Y23699D01*
G01X48695Y23680D01*
G01X48706Y23661D01*
G01X48717Y23644D01*
G01X48729Y23628D01*
G01X48742Y23612D01*
G01X48755Y23597D01*
G01X48769Y23584D01*
G01X48784Y23571D01*
G01X48800Y23560D01*
G01X48832Y23540D01*
G01X48850Y23532D01*
G01X48886Y23520D01*
G01X48905Y23515D01*
G01X48925Y23512D01*
G01X48945Y23510D01*
G01X48965Y23509D01*
G01X48986Y23510D01*
G01X49006Y23512D01*
G01X49026Y23515D01*
G01X49045Y23520D01*
G01X49064Y23526D01*
G01X49081Y23532D01*
G01X49099Y23540D01*
G01X49116Y23550D01*
G01X49132Y23560D01*
G01X49148Y23571D01*
G01X49163Y23584D01*
G01X49177Y23597D01*
G01X49190Y23612D01*
G01X49203Y23628D01*
G01X49215Y23644D01*
G01X49227Y23661D01*
G01X49247Y23699D01*
G01X49256Y23720D01*
G01X49264Y23741D01*
G01X49271Y23763D01*
G01X49277Y23785D01*
G01X49283Y23809D01*
G01X49288Y23833D01*
G01X49291Y23858D01*
G01X49295Y23910D01*
G01X49296Y23938D01*
G01X49295Y23965D01*
G01X49293Y23992D01*
G01X49291Y24017D01*
G01X49288Y24043D01*
G01X49283Y24067D01*
G01X49277Y24091D01*
G01X49271Y24114D01*
G01X49264Y24136D01*
G01X49256Y24157D01*
G01X49247Y24178D01*
G01X49227Y24216D01*
G01X49215Y24234D01*
G01X49203Y24250D01*
G01X49190Y24266D01*
G01X49177Y24281D01*
G01X49163Y24294D01*
G01X49148Y24307D01*
G01X49132Y24319D01*
G01X49116Y24329D01*
G01X49099Y24338D01*
G01X49081Y24346D01*
G01X49064Y24353D01*
G01X49045Y24359D01*
G01X49026Y24364D01*
G01X49006Y24367D01*
G01X48986Y24369D01*
G37*

%LPD*%
G36*
G01X57450Y24863D02*
G01X57284Y24863D01*
G01X57284Y23400D01*
G01X57450Y23400D01*
G01X57450Y24863D01*
G37*

%LPD*%
G36*
G01X56303Y24863D02*
G01X55918Y24863D01*
G01X55918Y23400D01*
G01X56309Y23400D01*
G01X56334Y23401D01*
G01X56358Y23402D01*
G01X56382Y23404D01*
G01X56406Y23407D01*
G01X56429Y23411D01*
G01X56451Y23414D01*
G01X56495Y23424D01*
G01X56537Y23436D01*
G01X56577Y23450D01*
G01X56596Y23458D01*
G01X56615Y23467D01*
G01X56651Y23485D01*
G01X56668Y23496D01*
G01X56685Y23506D01*
G01X56701Y23517D01*
G01X56717Y23529D01*
G01X56732Y23542D01*
G01X56747Y23554D01*
G01X56762Y23568D01*
G01X56776Y23582D01*
G01X56789Y23596D01*
G01X56802Y23611D01*
G01X56814Y23626D01*
G01X56826Y23642D01*
G01X56838Y23659D01*
G01X56848Y23676D01*
G01X56859Y23693D01*
G01X56869Y23711D01*
G01X56878Y23729D01*
G01X56896Y23767D01*
G01X56904Y23787D01*
G01X56911Y23807D01*
G01X56925Y23849D01*
G01X56930Y23871D01*
G01X56936Y23893D01*
G01X56940Y23915D01*
G01X56945Y23938D01*
G01X56949Y23962D01*
G01X56955Y24010D01*
G01X56959Y24060D01*
G01X56960Y24085D01*
G01X56961Y24111D01*
G01X56961Y24164D01*
G01X56960Y24190D01*
G01X56959Y24215D01*
G01X56955Y24265D01*
G01X56949Y24313D01*
G01X56945Y24336D01*
G01X56940Y24359D01*
G01X56936Y24381D01*
G01X56930Y24403D01*
G01X56918Y24445D01*
G01X56911Y24465D01*
G01X56904Y24486D01*
G01X56896Y24505D01*
G01X56887Y24524D01*
G01X56878Y24542D01*
G01X56869Y24561D01*
G01X56859Y24578D01*
G01X56837Y24612D01*
G01X56826Y24628D01*
G01X56814Y24643D01*
G01X56801Y24659D01*
G01X56775Y24687D01*
G01X56761Y24701D01*
G01X56746Y24714D01*
G01X56716Y24738D01*
G01X56700Y24750D01*
G01X56683Y24761D01*
G01X56667Y24771D01*
G01X56649Y24781D01*
G01X56613Y24799D01*
G01X56594Y24807D01*
G01X56574Y24815D01*
G01X56554Y24822D01*
G01X56534Y24828D01*
G01X56492Y24840D01*
G01X56470Y24845D01*
G01X56447Y24849D01*
G01X56425Y24853D01*
G01X56377Y24859D01*
G01X56353Y24861D01*
G01X56329Y24862D01*
G01X56303Y24863D01*
G37*

%LPC*%
G36*
G01X56264Y24728D02*
G01X56084Y24728D01*
G01X56084Y23536D01*
G01X56290Y23536D01*
G01X56315Y23537D01*
G01X56340Y23539D01*
G01X56365Y23542D01*
G01X56388Y23546D01*
G01X56434Y23556D01*
G01X56455Y23562D01*
G01X56476Y23569D01*
G01X56496Y23577D01*
G01X56516Y23586D01*
G01X56535Y23595D01*
G01X56553Y23605D01*
G01X56587Y23627D01*
G01X56619Y23653D01*
G01X56634Y23667D01*
G01X56647Y23681D01*
G01X56661Y23696D01*
G01X56674Y23712D01*
G01X56686Y23729D01*
G01X56697Y23746D01*
G01X56708Y23764D01*
G01X56728Y23802D01*
G01X56736Y23822D01*
G01X56745Y23842D01*
G01X56759Y23886D01*
G01X56765Y23908D01*
G01X56771Y23931D01*
G01X56776Y23955D01*
G01X56780Y23979D01*
G01X56784Y24004D01*
G01X56786Y24030D01*
G01X56789Y24056D01*
G01X56790Y24082D01*
G01X56792Y24138D01*
G01X56789Y24219D01*
G01X56786Y24245D01*
G01X56784Y24270D01*
G01X56780Y24295D01*
G01X56776Y24319D01*
G01X56771Y24342D01*
G01X56759Y24388D01*
G01X56745Y24430D01*
G01X56736Y24450D01*
G01X56728Y24470D01*
G01X56718Y24488D01*
G01X56708Y24507D01*
G01X56686Y24541D01*
G01X56674Y24557D01*
G01X56661Y24573D01*
G01X56647Y24588D01*
G01X56634Y24602D01*
G01X56619Y24615D01*
G01X56603Y24628D01*
G01X56587Y24640D01*
G01X56570Y24651D01*
G01X56553Y24661D01*
G01X56535Y24671D01*
G01X56516Y24680D01*
G01X56496Y24688D01*
G01X56476Y24695D01*
G01X56455Y24702D01*
G01X56434Y24708D01*
G01X56411Y24713D01*
G01X56365Y24721D01*
G01X56340Y24724D01*
G01X56315Y24726D01*
G01X56290Y24727D01*
G01X56264Y24728D01*
G37*

%LPD*%
G36*
G01X55510Y24863D02*
G01X55343Y24863D01*
G01X55343Y23400D01*
G01X55510Y23400D01*
G01X55510Y24863D01*
G37*

%LPD*%
G36*
G01X52931Y24863D02*
G01X52546Y24863D01*
G01X52546Y23400D01*
G01X52937Y23400D01*
G01X52962Y23401D01*
G01X52986Y23402D01*
G01X53010Y23404D01*
G01X53034Y23407D01*
G01X53057Y23411D01*
G01X53079Y23414D01*
G01X53102Y23419D01*
G01X53123Y23424D01*
G01X53165Y23436D01*
G01X53205Y23450D01*
G01X53224Y23458D01*
G01X53243Y23467D01*
G01X53279Y23485D01*
G01X53296Y23496D01*
G01X53313Y23506D01*
G01X53329Y23517D01*
G01X53345Y23529D01*
G01X53360Y23542D01*
G01X53375Y23554D01*
G01X53390Y23568D01*
G01X53404Y23582D01*
G01X53417Y23596D01*
G01X53430Y23611D01*
G01X53442Y23626D01*
G01X53454Y23642D01*
G01X53466Y23659D01*
G01X53477Y23676D01*
G01X53487Y23693D01*
G01X53497Y23711D01*
G01X53506Y23729D01*
G01X53524Y23767D01*
G01X53532Y23787D01*
G01X53539Y23807D01*
G01X53546Y23828D01*
G01X53552Y23849D01*
G01X53564Y23893D01*
G01X53568Y23915D01*
G01X53573Y23938D01*
G01X53577Y23962D01*
G01X53583Y24010D01*
G01X53589Y24085D01*
G01X53589Y24190D01*
G01X53583Y24265D01*
G01X53577Y24313D01*
G01X53573Y24336D01*
G01X53568Y24359D01*
G01X53564Y24381D01*
G01X53558Y24403D01*
G01X53546Y24445D01*
G01X53539Y24465D01*
G01X53531Y24486D01*
G01X53515Y24524D01*
G01X53506Y24542D01*
G01X53497Y24561D01*
G01X53487Y24578D01*
G01X53465Y24612D01*
G01X53454Y24628D01*
G01X53442Y24643D01*
G01X53429Y24659D01*
G01X53403Y24687D01*
G01X53389Y24701D01*
G01X53374Y24714D01*
G01X53344Y24738D01*
G01X53328Y24750D01*
G01X53311Y24761D01*
G01X53277Y24781D01*
G01X53259Y24790D01*
G01X53240Y24799D01*
G01X53222Y24807D01*
G01X53202Y24815D01*
G01X53182Y24822D01*
G01X53162Y24828D01*
G01X53120Y24840D01*
G01X53098Y24845D01*
G01X53076Y24849D01*
G01X53053Y24853D01*
G01X53029Y24856D01*
G01X53006Y24859D01*
G01X52981Y24861D01*
G01X52931Y24863D01*
G37*

%LPC*%
G36*
G01X52892Y24728D02*
G01X52711Y24728D01*
G01X52711Y23536D01*
G01X52918Y23536D01*
G01X52943Y23537D01*
G01X52968Y23539D01*
G01X52993Y23542D01*
G01X53016Y23546D01*
G01X53039Y23551D01*
G01X53061Y23556D01*
G01X53083Y23562D01*
G01X53104Y23569D01*
G01X53124Y23577D01*
G01X53144Y23586D01*
G01X53163Y23595D01*
G01X53181Y23605D01*
G01X53215Y23627D01*
G01X53247Y23653D01*
G01X53261Y23667D01*
G01X53276Y23681D01*
G01X53289Y23696D01*
G01X53302Y23712D01*
G01X53314Y23729D01*
G01X53325Y23746D01*
G01X53336Y23764D01*
G01X53356Y23802D01*
G01X53364Y23822D01*
G01X53373Y23842D01*
G01X53387Y23886D01*
G01X53393Y23908D01*
G01X53399Y23931D01*
G01X53404Y23955D01*
G01X53408Y23979D01*
G01X53411Y24004D01*
G01X53417Y24056D01*
G01X53418Y24082D01*
G01X53419Y24110D01*
G01X53419Y24165D01*
G01X53417Y24219D01*
G01X53414Y24245D01*
G01X53408Y24295D01*
G01X53404Y24319D01*
G01X53399Y24342D01*
G01X53387Y24388D01*
G01X53373Y24430D01*
G01X53364Y24450D01*
G01X53356Y24470D01*
G01X53346Y24488D01*
G01X53336Y24507D01*
G01X53314Y24541D01*
G01X53302Y24557D01*
G01X53289Y24573D01*
G01X53276Y24588D01*
G01X53261Y24602D01*
G01X53247Y24615D01*
G01X53231Y24628D01*
G01X53215Y24640D01*
G01X53198Y24651D01*
G01X53181Y24661D01*
G01X53163Y24671D01*
G01X53144Y24680D01*
G01X53124Y24688D01*
G01X53104Y24695D01*
G01X53083Y24702D01*
G01X53061Y24708D01*
G01X53039Y24713D01*
G01X52993Y24721D01*
G01X52968Y24724D01*
G01X52943Y24726D01*
G01X52918Y24727D01*
G01X52892Y24728D01*
G37*

%LPD*%
G36*
G01X52280Y24863D02*
G01X51218Y24863D01*
G01X51218Y24723D01*
G01X51664Y24723D01*
G01X51664Y23400D01*
G01X51831Y23400D01*
G01X51831Y24723D01*
G01X52280Y24723D01*
G01X52280Y24863D01*
G37*

%LPD*%
G36*
G01X47236Y24507D02*
G01X47182Y24507D01*
G01X47159Y24504D01*
G01X47136Y24499D01*
G01X47113Y24493D01*
G01X47091Y24485D01*
G01X47069Y24476D01*
G01X47047Y24465D01*
G01X47026Y24453D01*
G01X46984Y24425D01*
G01X46944Y24393D01*
G01X46925Y24376D01*
G01X46906Y24357D01*
G01X46887Y24339D01*
G01X46869Y24319D01*
G01X46864Y24319D01*
G01X46847Y24480D01*
G01X46715Y24480D01*
G01X46715Y23400D01*
G01X46877Y23400D01*
G01X46877Y24190D01*
G01X46897Y24211D01*
G01X46915Y24231D01*
G01X46934Y24250D01*
G01X46953Y24267D01*
G01X46971Y24283D01*
G01X46989Y24297D01*
G01X47007Y24310D01*
G01X47025Y24322D01*
G01X47043Y24332D01*
G01X47060Y24341D01*
G01X47094Y24355D01*
G01X47111Y24359D01*
G01X47127Y24363D01*
G01X47144Y24365D01*
G01X47181Y24365D01*
G01X47201Y24363D01*
G01X47220Y24359D01*
G01X47238Y24354D01*
G01X47254Y24348D01*
G01X47270Y24340D01*
G01X47284Y24331D01*
G01X47297Y24320D01*
G01X47309Y24307D01*
G01X47320Y24294D01*
G01X47330Y24278D01*
G01X47339Y24261D01*
G01X47347Y24242D01*
G01X47353Y24222D01*
G01X47359Y24200D01*
G01X47364Y24177D01*
G01X47367Y24151D01*
G01X47369Y24125D01*
G01X47371Y24096D01*
G01X47372Y24065D01*
G01X47372Y23400D01*
G01X47534Y23400D01*
G01X47534Y24190D01*
G01X47553Y24211D01*
G01X47572Y24231D01*
G01X47591Y24250D01*
G01X47609Y24267D01*
G01X47628Y24283D01*
G01X47646Y24297D01*
G01X47664Y24310D01*
G01X47681Y24322D01*
G01X47699Y24332D01*
G01X47716Y24341D01*
G01X47734Y24348D01*
G01X47751Y24355D01*
G01X47768Y24359D01*
G01X47784Y24363D01*
G01X47801Y24365D01*
G01X47839Y24365D01*
G01X47858Y24363D01*
G01X47877Y24359D01*
G01X47895Y24354D01*
G01X47911Y24348D01*
G01X47926Y24340D01*
G01X47940Y24331D01*
G01X47954Y24320D01*
G01X47966Y24307D01*
G01X47977Y24294D01*
G01X47986Y24278D01*
G01X47995Y24261D01*
G01X48003Y24242D01*
G01X48009Y24222D01*
G01X48015Y24200D01*
G01X48019Y24177D01*
G01X48023Y24151D01*
G01X48026Y24125D01*
G01X48027Y24096D01*
G01X48027Y23400D01*
G01X48192Y23400D01*
G01X48192Y24086D01*
G01X48191Y24115D01*
G01X48190Y24143D01*
G01X48188Y24170D01*
G01X48185Y24196D01*
G01X48181Y24221D01*
G01X48177Y24245D01*
G01X48171Y24268D01*
G01X48165Y24290D01*
G01X48158Y24311D01*
G01X48150Y24331D01*
G01X48141Y24350D01*
G01X48132Y24367D01*
G01X48121Y24384D01*
G01X48110Y24400D01*
G01X48098Y24415D01*
G01X48085Y24428D01*
G01X48071Y24441D01*
G01X48041Y24463D01*
G01X48025Y24472D01*
G01X47989Y24488D01*
G01X47971Y24494D01*
G01X47951Y24499D01*
G01X47930Y24503D01*
G01X47909Y24505D01*
G01X47887Y24507D01*
G01X47839Y24507D01*
G01X47815Y24503D01*
G01X47792Y24499D01*
G01X47769Y24492D01*
G01X47746Y24484D01*
G01X47723Y24474D01*
G01X47701Y24462D01*
G01X47678Y24449D01*
G01X47634Y24419D01*
G01X47590Y24383D01*
G01X47569Y24363D01*
G01X47547Y24342D01*
G01X47525Y24320D01*
G01X47504Y24298D01*
G01X47495Y24321D01*
G01X47475Y24365D01*
G01X47463Y24384D01*
G01X47450Y24403D01*
G01X47435Y24420D01*
G01X47419Y24436D01*
G01X47402Y24451D01*
G01X47383Y24463D01*
G01X47363Y24475D01*
G01X47341Y24484D01*
G01X47317Y24493D01*
G01X47292Y24499D01*
G01X47265Y24504D01*
G01X47236Y24507D01*
G37*

%LPD*%
G36*
G01X46339Y24480D02*
G01X46177Y24480D01*
G01X46177Y23400D01*
G01X46339Y23400D01*
G01X46339Y24480D01*
G37*

%LPD*%
G36*
G01X45926Y24863D02*
G01X44864Y24863D01*
G01X44864Y24723D01*
G01X45310Y24723D01*
G01X45310Y23400D01*
G01X45477Y23400D01*
G01X45477Y24723D01*
G01X45926Y24723D01*
G01X45926Y24863D01*
G37*

%LPD*%
G36*
G01X46283Y24932D02*
G01X46260Y24934D01*
G01X46235Y24932D01*
G01X46212Y24926D01*
G01X46192Y24917D01*
G01X46175Y24904D01*
G01X46161Y24888D01*
G01X46150Y24869D01*
G01X46144Y24846D01*
G01X46142Y24821D01*
G01X46144Y24798D01*
G01X46150Y24777D01*
G01X46161Y24759D01*
G01X46175Y24742D01*
G01X46192Y24730D01*
G01X46212Y24720D01*
G01X46235Y24714D01*
G01X46260Y24711D01*
G01X46283Y24714D01*
G01X46305Y24720D01*
G01X46325Y24730D01*
G01X46343Y24742D01*
G01X46357Y24759D01*
G01X46368Y24777D01*
G01X46375Y24798D01*
G01X46377Y24821D01*
G01X46375Y24846D01*
G01X46368Y24869D01*
G01X46357Y24888D01*
G01X46343Y24904D01*
G01X46325Y24917D01*
G01X46305Y24926D01*
G01X46283Y24932D01*
G37*

%LPD*%
G54D26*
G01X9750Y38579D02*
G01X9750Y38273D01*
G01X9769Y38211D01*
G01X9810Y38169D01*
G01X9872Y38150D01*
G01X9914Y38150D01*
G01X9975Y38169D01*
G01X10015Y38211D01*
G01X10035Y38273D01*
G01X10035Y38579D01*
G01X10171Y38498D02*
G01X10211Y38517D01*
G01X10273Y38579D01*
G01X10273Y38150D01*
G01X3532Y26527D02*
G01X3573Y26513D01*
G01X3600Y26486D01*
G01X3613Y26444D01*
G01X3613Y26432D01*
G01X3600Y26390D01*
G01X3573Y26363D01*
G01X3532Y26350D01*
G01X3517Y26350D01*
G01X3476Y26363D01*
G01X3450Y26390D01*
G01X3436Y26432D01*
G01X3436Y26444D01*
G01X3450Y26486D01*
G01X3476Y26513D01*
G01X3532Y26527D01*
G01X3600Y26527D01*
G01X3667Y26513D01*
G01X3709Y26486D01*
G01X3723Y26444D01*
G01X3723Y26417D01*
G01X3709Y26377D01*
G01X3682Y26363D01*
G01X3436Y27417D02*
G01X3450Y27377D01*
G01X3476Y27363D01*
G01X3505Y27363D01*
G01X3532Y27377D01*
G01X3544Y27405D01*
G01X3559Y27459D01*
G01X3573Y27500D01*
G01X3600Y27527D01*
G01X3626Y27540D01*
G01X3667Y27540D01*
G01X3694Y27527D01*
G01X3709Y27513D01*
G01X3723Y27473D01*
G01X3723Y27417D01*
G01X3709Y27377D01*
G01X3694Y27363D01*
G01X3667Y27350D01*
G01X3626Y27350D01*
G01X3600Y27363D01*
G01X3573Y27390D01*
G01X3559Y27432D01*
G01X3544Y27486D01*
G01X3532Y27513D01*
G01X3505Y27527D01*
G01X3476Y27527D01*
G01X3450Y27513D01*
G01X3436Y27473D01*
G01X3436Y27417D01*
G01X3436Y28540D02*
G01X3723Y28405D01*
G01X3436Y28350D02*
G01X3436Y28540D01*
G01X3476Y29513D02*
G01X3450Y29500D01*
G01X3436Y29459D01*
G01X3436Y29432D01*
G01X3450Y29390D01*
G01X3490Y29363D01*
G01X3559Y29350D01*
G01X3626Y29350D01*
G01X3682Y29363D01*
G01X3709Y29390D01*
G01X3723Y29432D01*
G01X3723Y29444D01*
G01X3709Y29486D01*
G01X3682Y29513D01*
G01X3640Y29527D01*
G01X3626Y29527D01*
G01X3586Y29513D01*
G01X3559Y29486D01*
G01X3544Y29444D01*
G01X3544Y29432D01*
G01X3559Y29390D01*
G01X3586Y29363D01*
G01X3626Y29350D01*
G01X3436Y30513D02*
G01X3436Y30377D01*
G01X3559Y30363D01*
G01X3544Y30377D01*
G01X3532Y30417D01*
G01X3532Y30459D01*
G01X3544Y30500D01*
G01X3573Y30527D01*
G01X3613Y30540D01*
G01X3640Y30540D01*
G01X3682Y30527D01*
G01X3709Y30500D01*
G01X3723Y30459D01*
G01X3723Y30417D01*
G01X3709Y30377D01*
G01X3694Y30363D01*
G01X3667Y30350D01*
G01X3436Y31486D02*
G01X3626Y31350D01*
G01X3626Y31555D01*
G01X3436Y31486D02*
G01X3723Y31486D01*
G01X3436Y32377D02*
G01X3436Y32527D01*
G01X3544Y32444D01*
G01X3544Y32486D01*
G01X3559Y32513D01*
G01X3573Y32527D01*
G01X3613Y32540D01*
G01X3640Y32540D01*
G01X3682Y32527D01*
G01X3709Y32500D01*
G01X3723Y32459D01*
G01X3723Y32417D01*
G01X3709Y32377D01*
G01X3694Y32363D01*
G01X3667Y32350D01*
G01X3463Y33413D02*
G01X3450Y33413D01*
G01X3423Y33427D01*
G01X3409Y33440D01*
G01X3394Y33467D01*
G01X3394Y33523D01*
G01X3409Y33550D01*
G01X3423Y33563D01*
G01X3450Y33577D01*
G01X3476Y33577D01*
G01X3503Y33563D01*
G01X3544Y33536D01*
G01X3682Y33400D01*
G01X3682Y33590D01*
G01X3530Y34350D02*
G01X3509Y34340D01*
G01X3490Y34319D01*
G01X3480Y34300D01*
G01X3480Y34259D01*
G01X3490Y34240D01*
G01X3509Y34219D01*
G01X3530Y34209D01*
G01X3559Y34200D01*
G01X3609Y34200D01*
G01X3640Y34209D01*
G01X3659Y34219D01*
G01X3680Y34240D01*
G01X3690Y34259D01*
G01X3690Y34300D01*
G01X3680Y34319D01*
G01X3659Y34340D01*
G01X3640Y34350D01*
G01X3609Y34350D01*
G01X3609Y34300D02*
G01X3609Y34350D01*
G01X3480Y34415D02*
G01X3690Y34415D01*
G01X3480Y34415D02*
G01X3690Y34555D01*
G01X3480Y34555D02*
G01X3690Y34555D01*
G01X3480Y34621D02*
G01X3690Y34621D01*
G01X3480Y34621D02*
G01X3480Y34692D01*
G01X3490Y34721D01*
G01X3509Y34742D01*
G01X3530Y34752D01*
G01X3559Y34761D01*
G01X3609Y34761D01*
G01X3640Y34752D01*
G01X3659Y34742D01*
G01X3680Y34721D01*
G01X3690Y34692D01*
G01X3690Y34621D01*
G01X3530Y35350D02*
G01X3509Y35340D01*
G01X3490Y35319D01*
G01X3480Y35300D01*
G01X3480Y35259D01*
G01X3490Y35240D01*
G01X3509Y35219D01*
G01X3530Y35209D01*
G01X3559Y35200D01*
G01X3609Y35200D01*
G01X3640Y35209D01*
G01X3659Y35219D01*
G01X3680Y35240D01*
G01X3690Y35259D01*
G01X3690Y35300D01*
G01X3680Y35319D01*
G01X3659Y35340D01*
G01X3640Y35350D01*
G01X3609Y35350D01*
G01X3609Y35300D02*
G01X3609Y35350D01*
G01X3480Y35415D02*
G01X3690Y35415D01*
G01X3480Y35415D02*
G01X3690Y35555D01*
G01X3480Y35555D02*
G01X3690Y35555D01*
G01X3480Y35621D02*
G01X3690Y35621D01*
G01X3480Y35621D02*
G01X3480Y35692D01*
G01X3490Y35721D01*
G01X3509Y35742D01*
G01X3530Y35752D01*
G01X3559Y35761D01*
G01X3609Y35761D01*
G01X3640Y35752D01*
G01X3659Y35742D01*
G01X3680Y35721D01*
G01X3690Y35692D01*
G01X3690Y35621D01*
G01X3480Y36300D02*
G01X3690Y36300D01*
G01X3480Y36300D02*
G01X3480Y36390D01*
G01X3490Y36419D01*
G01X3500Y36430D01*
G01X3519Y36440D01*
G01X3540Y36440D01*
G01X3559Y36430D01*
G01X3569Y36419D01*
G01X3580Y36390D01*
G01X3580Y36300D01*
G01X3580Y36369D02*
G01X3690Y36440D01*
G01X3480Y36505D02*
G01X3690Y36646D01*
G01X3480Y36646D02*
G01X3690Y36505D01*
G01X3480Y36711D02*
G01X3690Y36711D01*
G01X3480Y37269D02*
G01X3690Y37269D01*
G01X3480Y37200D02*
G01X3480Y37340D01*
G01X3480Y37405D02*
G01X3690Y37546D01*
G01X3480Y37546D02*
G01X3690Y37405D01*
G01X3480Y37671D02*
G01X3490Y37652D01*
G01X3509Y37632D01*
G01X3530Y37621D01*
G01X3559Y37611D01*
G01X3609Y37611D01*
G01X3640Y37621D01*
G01X3659Y37632D01*
G01X3680Y37652D01*
G01X3690Y37671D01*
G01X3690Y37711D01*
G01X3680Y37732D01*
G01X3659Y37752D01*
G01X3640Y37761D01*
G01X3609Y37771D01*
G01X3559Y37771D01*
G01X3530Y37761D01*
G01X3509Y37752D01*
G01X3490Y37732D01*
G01X3480Y37711D01*
G01X3480Y37671D01*
G01X7780Y37200D02*
G01X7989Y37200D01*
G01X7780Y37200D02*
G01X7780Y37290D01*
G01X7789Y37319D01*
G01X7800Y37330D01*
G01X7819Y37340D01*
G01X7839Y37340D01*
G01X7860Y37330D01*
G01X7869Y37319D01*
G01X7880Y37290D01*
G01X7880Y37200D01*
G01X7880Y37269D02*
G01X7989Y37340D01*
G01X7780Y37486D02*
G01X7989Y37405D01*
G01X7780Y37486D02*
G01X7989Y37565D01*
G01X7919Y37436D02*
G01X7919Y37536D01*
G01X7780Y37632D02*
G01X7989Y37682D01*
G01X7780Y37732D02*
G01X7989Y37682D01*
G01X7780Y37732D02*
G01X7989Y37782D01*
G01X7780Y37832D02*
G01X7989Y37782D01*
G01X7830Y36350D02*
G01X7810Y36340D01*
G01X7789Y36319D01*
G01X7780Y36300D01*
G01X7780Y36259D01*
G01X7789Y36240D01*
G01X7810Y36219D01*
G01X7830Y36209D01*
G01X7860Y36200D01*
G01X7910Y36200D01*
G01X7939Y36209D01*
G01X7960Y36219D01*
G01X7980Y36240D01*
G01X7989Y36259D01*
G01X7989Y36300D01*
G01X7980Y36319D01*
G01X7960Y36340D01*
G01X7939Y36350D01*
G01X7910Y36350D01*
G01X7910Y36300D02*
G01X7910Y36350D01*
G01X7780Y36415D02*
G01X7989Y36415D01*
G01X7780Y36415D02*
G01X7989Y36555D01*
G01X7780Y36555D02*
G01X7989Y36555D01*
G01X7780Y36621D02*
G01X7989Y36621D01*
G01X7780Y36621D02*
G01X7780Y36692D01*
G01X7789Y36721D01*
G01X7810Y36742D01*
G01X7830Y36752D01*
G01X7860Y36761D01*
G01X7910Y36761D01*
G01X7939Y36752D01*
G01X7960Y36742D01*
G01X7980Y36721D01*
G01X7989Y36692D01*
G01X7989Y36621D01*
G01X6780Y35650D02*
G01X6989Y35650D01*
G01X6780Y35650D02*
G01X6780Y35740D01*
G01X6789Y35769D01*
G01X6800Y35780D01*
G01X6819Y35790D01*
G01X6839Y35790D01*
G01X6860Y35780D01*
G01X6869Y35769D01*
G01X6880Y35740D01*
G01X6880Y35650D01*
G01X6880Y35719D02*
G01X6989Y35790D01*
G01X6810Y35996D02*
G01X6789Y35976D01*
G01X6780Y35946D01*
G01X6780Y35905D01*
G01X6789Y35876D01*
G01X6810Y35855D01*
G01X6830Y35855D01*
G01X6850Y35865D01*
G01X6860Y35876D01*
G01X6869Y35896D01*
G01X6889Y35955D01*
G01X6900Y35976D01*
G01X6910Y35986D01*
G01X6930Y35996D01*
G01X6960Y35996D01*
G01X6980Y35976D01*
G01X6989Y35946D01*
G01X6989Y35905D01*
G01X6980Y35876D01*
G01X6960Y35855D01*
G01X6780Y36132D02*
G01X6989Y36132D01*
G01X6780Y36061D02*
G01X6780Y36202D01*
G01X7780Y34200D02*
G01X7989Y34280D01*
G01X7780Y34359D02*
G01X7989Y34280D01*
G01X7830Y34576D02*
G01X7810Y34565D01*
G01X7789Y34546D01*
G01X7780Y34526D01*
G01X7780Y34486D01*
G01X7789Y34465D01*
G01X7810Y34446D01*
G01X7830Y34436D01*
G01X7860Y34426D01*
G01X7910Y34426D01*
G01X7939Y34436D01*
G01X7960Y34446D01*
G01X7980Y34465D01*
G01X7989Y34486D01*
G01X7989Y34526D01*
G01X7980Y34546D01*
G01X7960Y34565D01*
G01X7939Y34576D01*
G01X7830Y34792D02*
G01X7810Y34782D01*
G01X7789Y34761D01*
G01X7780Y34742D01*
G01X7780Y34702D01*
G01X7789Y34682D01*
G01X7810Y34661D01*
G01X7830Y34652D01*
G01X7860Y34642D01*
G01X7910Y34642D01*
G01X7939Y34652D01*
G01X7960Y34661D01*
G01X7980Y34682D01*
G01X7989Y34702D01*
G01X7989Y34742D01*
G01X7980Y34761D01*
G01X7960Y34782D01*
G01X7939Y34792D01*
G01X7735Y33309D02*
G01X8022Y33200D01*
G01X7735Y33309D02*
G01X8022Y33417D01*
G01X7927Y33240D02*
G01X7927Y33377D01*
G01X7735Y33534D02*
G01X7735Y33684D01*
G01X7844Y33604D01*
G01X7844Y33644D01*
G01X7859Y33671D01*
G01X7872Y33684D01*
G01X7914Y33698D01*
G01X7940Y33698D01*
G01X7981Y33684D01*
G01X8009Y33657D01*
G01X8022Y33617D01*
G01X8022Y33576D01*
G01X8009Y33534D01*
G01X7994Y33521D01*
G01X7968Y33507D01*
G01X7735Y32309D02*
G01X8022Y32200D01*
G01X7735Y32309D02*
G01X8022Y32417D01*
G01X7927Y32240D02*
G01X7927Y32377D01*
G01X7805Y32521D02*
G01X7790Y32521D01*
G01X7764Y32534D01*
G01X7750Y32548D01*
G01X7735Y32576D01*
G01X7735Y32630D01*
G01X7750Y32657D01*
G01X7764Y32671D01*
G01X7790Y32684D01*
G01X7818Y32684D01*
G01X7844Y32671D01*
G01X7885Y32644D01*
G01X8022Y32507D01*
G01X8022Y32698D01*
G01X7735Y31409D02*
G01X8022Y31300D01*
G01X7735Y31409D02*
G01X8022Y31517D01*
G01X7927Y31340D02*
G01X7927Y31477D01*
G01X7790Y31607D02*
G01X7777Y31634D01*
G01X7735Y31676D01*
G01X8022Y31676D01*
G01X7735Y30409D02*
G01X8022Y30300D01*
G01X7735Y30409D02*
G01X8022Y30517D01*
G01X7927Y30340D02*
G01X7927Y30477D01*
G01X7735Y30690D02*
G01X7750Y30648D01*
G01X7790Y30621D01*
G01X7859Y30607D01*
G01X7900Y30607D01*
G01X7968Y30621D01*
G01X8009Y30648D01*
G01X8022Y30690D01*
G01X8022Y30717D01*
G01X8009Y30757D01*
G01X7968Y30784D01*
G01X7900Y30798D01*
G01X7859Y30798D01*
G01X7790Y30784D01*
G01X7750Y30757D01*
G01X7735Y30717D01*
G01X7735Y30690D01*
G01X7790Y29300D02*
G01X7777Y29327D01*
G01X7735Y29367D01*
G01X8022Y29367D01*
G01X7735Y29621D02*
G01X7735Y29484D01*
G01X7859Y29471D01*
G01X7844Y29484D01*
G01X7831Y29526D01*
G01X7831Y29567D01*
G01X7844Y29607D01*
G01X7872Y29634D01*
G01X7914Y29648D01*
G01X7940Y29648D01*
G01X7981Y29634D01*
G01X8009Y29607D01*
G01X8022Y29567D01*
G01X8022Y29526D01*
G01X8009Y29484D01*
G01X7994Y29471D01*
G01X7968Y29457D01*
G01X7790Y28300D02*
G01X7777Y28327D01*
G01X7735Y28367D01*
G01X8022Y28367D01*
G01X7735Y28594D02*
G01X7927Y28457D01*
G01X7927Y28663D01*
G01X7735Y28594D02*
G01X8022Y28594D01*
G01X7790Y27200D02*
G01X7777Y27227D01*
G01X7735Y27267D01*
G01X8022Y27267D01*
G01X7777Y27521D02*
G01X7750Y27507D01*
G01X7735Y27467D01*
G01X7735Y27440D01*
G01X7750Y27398D01*
G01X7790Y27371D01*
G01X7859Y27357D01*
G01X7927Y27357D01*
G01X7981Y27371D01*
G01X8009Y27398D01*
G01X8022Y27440D01*
G01X8022Y27453D01*
G01X8009Y27494D01*
G01X7981Y27521D01*
G01X7940Y27534D01*
G01X7927Y27534D01*
G01X7885Y27521D01*
G01X7859Y27494D01*
G01X7844Y27453D01*
G01X7844Y27440D01*
G01X7859Y27398D01*
G01X7885Y27371D01*
G01X7927Y27357D01*
G01X7790Y26300D02*
G01X7777Y26327D01*
G01X7735Y26367D01*
G01X8022Y26367D01*
G01X7735Y26540D02*
G01X7750Y26498D01*
G01X7790Y26471D01*
G01X7859Y26457D01*
G01X7900Y26457D01*
G01X7968Y26471D01*
G01X8009Y26498D01*
G01X8022Y26540D01*
G01X8022Y26567D01*
G01X8009Y26607D01*
G01X7968Y26634D01*
G01X7900Y26648D01*
G01X7859Y26648D01*
G01X7790Y26634D01*
G01X7750Y26607D01*
G01X7735Y26567D01*
G01X7735Y26540D01*
G01X14853Y38292D02*
G01X14853Y37863D01*
G01X15139Y38292D02*
G01X14853Y38005D01*
G01X14956Y38109D02*
G01X15139Y37863D01*
G01X15275Y38292D02*
G01X15275Y37863D01*
G01X15275Y38292D02*
G01X15540Y38292D01*
G01X15275Y38088D02*
G01X15439Y38088D01*
G01X15275Y37863D02*
G01X15540Y37863D01*
G01X15676Y38292D02*
G01X15839Y38088D01*
G01X15839Y37863D01*
G01X16003Y38292D02*
G01X15839Y38088D01*
G01X16139Y38211D02*
G01X16178Y38230D01*
G01X16240Y38292D01*
G01X16240Y37863D01*
G01X23503Y38292D02*
G01X23503Y37863D01*
G01X23789Y38292D02*
G01X23503Y38005D01*
G01X23606Y38109D02*
G01X23789Y37863D01*
G01X23925Y38292D02*
G01X23925Y37863D01*
G01X23925Y38292D02*
G01X24190Y38292D01*
G01X23925Y38088D02*
G01X24089Y38088D01*
G01X23925Y37863D02*
G01X24190Y37863D01*
G01X24326Y38292D02*
G01X24489Y38088D01*
G01X24489Y37863D01*
G01X24653Y38292D02*
G01X24489Y38088D01*
G01X24809Y38190D02*
G01X24809Y38211D01*
G01X24828Y38252D01*
G01X24850Y38271D01*
G01X24890Y38292D01*
G01X24972Y38292D01*
G01X25014Y38271D01*
G01X25034Y38252D01*
G01X25053Y38211D01*
G01X25053Y38169D01*
G01X25034Y38129D01*
G01X24993Y38067D01*
G01X24789Y37863D01*
G01X25075Y37863D01*
G01X31603Y38292D02*
G01X31603Y37863D01*
G01X31889Y38292D02*
G01X31603Y38005D01*
G01X31706Y38109D02*
G01X31889Y37863D01*
G01X32025Y38292D02*
G01X32025Y37863D01*
G01X32025Y38292D02*
G01X32290Y38292D01*
G01X32025Y38088D02*
G01X32189Y38088D01*
G01X32025Y37863D02*
G01X32290Y37863D01*
G01X32426Y38292D02*
G01X32589Y38088D01*
G01X32589Y37863D01*
G01X32753Y38292D02*
G01X32589Y38088D01*
G01X32929Y38292D02*
G01X33154Y38292D01*
G01X33031Y38129D01*
G01X33093Y38129D01*
G01X33134Y38109D01*
G01X33154Y38088D01*
G01X33175Y38027D01*
G01X33175Y37986D01*
G01X33154Y37923D01*
G01X33114Y37884D01*
G01X33052Y37863D01*
G01X32990Y37863D01*
G01X32929Y37884D01*
G01X32909Y37904D01*
G01X32889Y37944D01*
G01X40054Y38292D02*
G01X40054Y37863D01*
G01X40339Y38292D02*
G01X40054Y38005D01*
G01X40156Y38109D02*
G01X40339Y37863D01*
G01X40475Y38292D02*
G01X40475Y37863D01*
G01X40475Y38292D02*
G01X40740Y38292D01*
G01X40475Y38088D02*
G01X40639Y38088D01*
G01X40475Y37863D02*
G01X40740Y37863D01*
G01X40876Y38292D02*
G01X41039Y38088D01*
G01X41039Y37863D01*
G01X41204Y38292D02*
G01X41039Y38088D01*
G01X41543Y38292D02*
G01X41339Y38005D01*
G01X41644Y38005D01*
G01X41543Y38292D02*
G01X41543Y37863D01*
G01X48454Y38342D02*
G01X48454Y37913D01*
G01X48739Y38342D02*
G01X48454Y38055D01*
G01X48556Y38159D02*
G01X48739Y37913D01*
G01X48875Y38342D02*
G01X48875Y37913D01*
G01X48875Y38342D02*
G01X49140Y38342D01*
G01X48875Y38138D02*
G01X49039Y38138D01*
G01X48875Y37913D02*
G01X49140Y37913D01*
G01X49276Y38342D02*
G01X49439Y38138D01*
G01X49439Y37913D01*
G01X49604Y38342D02*
G01X49439Y38138D01*
G01X49984Y38342D02*
G01X49779Y38342D01*
G01X49759Y38159D01*
G01X49779Y38179D01*
G01X49840Y38198D01*
G01X49902Y38198D01*
G01X49964Y38179D01*
G01X50004Y38138D01*
G01X50025Y38077D01*
G01X50025Y38036D01*
G01X50004Y37973D01*
G01X49964Y37934D01*
G01X49902Y37913D01*
G01X49840Y37913D01*
G01X49779Y37934D01*
G01X49759Y37954D01*
G01X49739Y37994D01*
G01X55004Y35492D02*
G01X55004Y35063D01*
G01X55289Y35492D02*
G01X55004Y35205D01*
G01X55106Y35309D02*
G01X55289Y35063D01*
G01X55425Y35492D02*
G01X55425Y35063D01*
G01X55425Y35492D02*
G01X55690Y35492D01*
G01X55425Y35288D02*
G01X55589Y35288D01*
G01X55425Y35063D02*
G01X55690Y35063D01*
G01X55826Y35492D02*
G01X55989Y35288D01*
G01X55989Y35063D01*
G01X56154Y35492D02*
G01X55989Y35288D01*
G01X56534Y35430D02*
G01X56514Y35471D01*
G01X56452Y35492D01*
G01X56410Y35492D01*
G01X56350Y35471D01*
G01X56309Y35411D01*
G01X56289Y35309D01*
G01X56289Y35205D01*
G01X56309Y35123D01*
G01X56350Y35084D01*
G01X56410Y35063D01*
G01X56431Y35063D01*
G01X56493Y35084D01*
G01X56534Y35123D01*
G01X56554Y35186D01*
G01X56554Y35205D01*
G01X56534Y35267D01*
G01X56493Y35309D01*
G01X56431Y35329D01*
G01X56410Y35329D01*
G01X56350Y35309D01*
G01X56309Y35267D01*
G01X56289Y35205D01*
G01X14703Y31292D02*
G01X14703Y30863D01*
G01X14989Y31292D02*
G01X14703Y31005D01*
G01X14806Y31109D02*
G01X14989Y30863D01*
G01X15125Y31292D02*
G01X15125Y30863D01*
G01X15125Y31292D02*
G01X15390Y31292D01*
G01X15125Y31088D02*
G01X15289Y31088D01*
G01X15125Y30863D02*
G01X15390Y30863D01*
G01X15526Y31292D02*
G01X15689Y31088D01*
G01X15689Y30863D01*
G01X15853Y31292D02*
G01X15689Y31088D01*
G01X16275Y31292D02*
G01X16069Y30863D01*
G01X15989Y31292D02*
G01X16275Y31292D01*
G01X23353Y31292D02*
G01X23353Y30863D01*
G01X23639Y31292D02*
G01X23353Y31005D01*
G01X23456Y31109D02*
G01X23639Y30863D01*
G01X23775Y31292D02*
G01X23775Y30863D01*
G01X23775Y31292D02*
G01X24040Y31292D01*
G01X23775Y31088D02*
G01X23939Y31088D01*
G01X23775Y30863D02*
G01X24040Y30863D01*
G01X24176Y31292D02*
G01X24339Y31088D01*
G01X24339Y30863D01*
G01X24503Y31292D02*
G01X24339Y31088D01*
G01X24740Y31292D02*
G01X24678Y31271D01*
G01X24659Y31230D01*
G01X24659Y31190D01*
G01X24678Y31148D01*
G01X24719Y31128D01*
G01X24802Y31109D01*
G01X24864Y31088D01*
G01X24903Y31046D01*
G01X24925Y31005D01*
G01X24925Y30944D01*
G01X24903Y30903D01*
G01X24884Y30884D01*
G01X24822Y30863D01*
G01X24740Y30863D01*
G01X24678Y30884D01*
G01X24659Y30903D01*
G01X24639Y30944D01*
G01X24639Y31005D01*
G01X24659Y31046D01*
G01X24700Y31088D01*
G01X24760Y31109D01*
G01X24843Y31128D01*
G01X24884Y31148D01*
G01X24903Y31190D01*
G01X24903Y31230D01*
G01X24884Y31271D01*
G01X24822Y31292D01*
G01X24740Y31292D01*
G01X31453Y31292D02*
G01X31453Y30863D01*
G01X31739Y31292D02*
G01X31453Y31005D01*
G01X31556Y31109D02*
G01X31739Y30863D01*
G01X31875Y31292D02*
G01X31875Y30863D01*
G01X31875Y31292D02*
G01X32140Y31292D01*
G01X31875Y31088D02*
G01X32039Y31088D01*
G01X31875Y30863D02*
G01X32140Y30863D01*
G01X32276Y31292D02*
G01X32439Y31088D01*
G01X32439Y30863D01*
G01X32603Y31292D02*
G01X32439Y31088D01*
G01X33004Y31148D02*
G01X32984Y31088D01*
G01X32943Y31046D01*
G01X32881Y31027D01*
G01X32860Y31027D01*
G01X32800Y31046D01*
G01X32759Y31088D01*
G01X32739Y31148D01*
G01X32739Y31169D01*
G01X32759Y31230D01*
G01X32800Y31271D01*
G01X32860Y31292D01*
G01X32881Y31292D01*
G01X32943Y31271D01*
G01X32984Y31230D01*
G01X33004Y31148D01*
G01X33004Y31046D01*
G01X32984Y30944D01*
G01X32943Y30884D01*
G01X32881Y30863D01*
G01X32840Y30863D01*
G01X32779Y30884D01*
G01X32759Y30923D01*
G01X39904Y31292D02*
G01X39904Y30863D01*
G01X40189Y31292D02*
G01X39904Y31005D01*
G01X40006Y31109D02*
G01X40189Y30863D01*
G01X40325Y31292D02*
G01X40325Y30863D01*
G01X40325Y31292D02*
G01X40590Y31292D01*
G01X40325Y31088D02*
G01X40489Y31088D01*
G01X40325Y30863D02*
G01X40590Y30863D01*
G01X40726Y31292D02*
G01X40889Y31088D01*
G01X40889Y30863D01*
G01X41054Y31292D02*
G01X40889Y31088D01*
G01X41189Y31211D02*
G01X41229Y31230D01*
G01X41290Y31292D01*
G01X41290Y30863D01*
G01X41548Y31292D02*
G01X41486Y31271D01*
G01X41446Y31211D01*
G01X41426Y31109D01*
G01X41426Y31046D01*
G01X41446Y30944D01*
G01X41486Y30884D01*
G01X41548Y30863D01*
G01X41589Y30863D01*
G01X41651Y30884D01*
G01X41692Y30944D01*
G01X41711Y31046D01*
G01X41711Y31109D01*
G01X41692Y31211D01*
G01X41651Y31271D01*
G01X41589Y31292D01*
G01X41548Y31292D01*
G01X48304Y31342D02*
G01X48304Y30913D01*
G01X48589Y31342D02*
G01X48304Y31055D01*
G01X48406Y31159D02*
G01X48589Y30913D01*
G01X48725Y31342D02*
G01X48725Y30913D01*
G01X48725Y31342D02*
G01X48990Y31342D01*
G01X48725Y31138D02*
G01X48889Y31138D01*
G01X48725Y30913D02*
G01X48990Y30913D01*
G01X49126Y31342D02*
G01X49289Y31138D01*
G01X49289Y30913D01*
G01X49454Y31342D02*
G01X49289Y31138D01*
G01X49589Y31261D02*
G01X49629Y31280D01*
G01X49690Y31342D01*
G01X49690Y30913D01*
G01X49826Y31261D02*
G01X49867Y31280D01*
G01X49927Y31342D01*
G01X49927Y30913D01*
G01X14703Y23717D02*
G01X14703Y23288D01*
G01X14989Y23717D02*
G01X14703Y23430D01*
G01X14806Y23534D02*
G01X14989Y23288D01*
G01X15125Y23717D02*
G01X15125Y23288D01*
G01X15125Y23717D02*
G01X15390Y23717D01*
G01X15125Y23513D02*
G01X15289Y23513D01*
G01X15125Y23288D02*
G01X15390Y23288D01*
G01X15526Y23717D02*
G01X15689Y23513D01*
G01X15689Y23288D01*
G01X15853Y23717D02*
G01X15689Y23513D01*
G01X15989Y23636D02*
G01X16028Y23655D01*
G01X16090Y23717D01*
G01X16090Y23288D01*
G01X16246Y23615D02*
G01X16246Y23636D01*
G01X16267Y23677D01*
G01X16286Y23696D01*
G01X16327Y23717D01*
G01X16410Y23717D01*
G01X16451Y23696D01*
G01X16471Y23677D01*
G01X16492Y23636D01*
G01X16492Y23594D01*
G01X16471Y23553D01*
G01X16430Y23492D01*
G01X16226Y23288D01*
G01X16511Y23288D01*
G01X23353Y23717D02*
G01X23353Y23288D01*
G01X23639Y23717D02*
G01X23353Y23430D01*
G01X23456Y23534D02*
G01X23639Y23288D01*
G01X23775Y23717D02*
G01X23775Y23288D01*
G01X23775Y23717D02*
G01X24040Y23717D01*
G01X23775Y23513D02*
G01X23939Y23513D01*
G01X23775Y23288D02*
G01X24040Y23288D01*
G01X24176Y23717D02*
G01X24339Y23513D01*
G01X24339Y23288D01*
G01X24503Y23717D02*
G01X24339Y23513D01*
G01X24639Y23636D02*
G01X24678Y23655D01*
G01X24740Y23717D01*
G01X24740Y23288D01*
G01X24917Y23717D02*
G01X25142Y23717D01*
G01X25018Y23553D01*
G01X25080Y23553D01*
G01X25121Y23534D01*
G01X25142Y23513D01*
G01X25161Y23452D01*
G01X25161Y23411D01*
G01X25142Y23348D01*
G01X25101Y23309D01*
G01X25039Y23288D01*
G01X24977Y23288D01*
G01X24917Y23309D01*
G01X24896Y23328D01*
G01X24876Y23369D01*
G01X31453Y23717D02*
G01X31453Y23288D01*
G01X31739Y23717D02*
G01X31453Y23430D01*
G01X31556Y23534D02*
G01X31739Y23288D01*
G01X31875Y23717D02*
G01X31875Y23288D01*
G01X31875Y23717D02*
G01X32140Y23717D01*
G01X31875Y23513D02*
G01X32039Y23513D01*
G01X31875Y23288D02*
G01X32140Y23288D01*
G01X32276Y23717D02*
G01X32439Y23513D01*
G01X32439Y23288D01*
G01X32603Y23717D02*
G01X32439Y23513D01*
G01X32739Y23636D02*
G01X32779Y23655D01*
G01X32840Y23717D01*
G01X32840Y23288D01*
G01X33180Y23717D02*
G01X32976Y23430D01*
G01X33282Y23430D01*
G01X33180Y23717D02*
G01X33180Y23288D01*
G01X39904Y23717D02*
G01X39904Y23288D01*
G01X40189Y23717D02*
G01X39904Y23430D01*
G01X40006Y23534D02*
G01X40189Y23288D01*
G01X40325Y23717D02*
G01X40325Y23288D01*
G01X40325Y23717D02*
G01X40590Y23717D01*
G01X40325Y23513D02*
G01X40489Y23513D01*
G01X40325Y23288D02*
G01X40590Y23288D01*
G01X40726Y23717D02*
G01X40889Y23513D01*
G01X40889Y23288D01*
G01X41054Y23717D02*
G01X40889Y23513D01*
G01X41189Y23636D02*
G01X41229Y23655D01*
G01X41290Y23717D01*
G01X41290Y23288D01*
G01X41671Y23717D02*
G01X41467Y23717D01*
G01X41446Y23534D01*
G01X41467Y23553D01*
G01X41527Y23573D01*
G01X41589Y23573D01*
G01X41651Y23553D01*
G01X41692Y23513D01*
G01X41711Y23452D01*
G01X41711Y23411D01*
G01X41692Y23348D01*
G01X41651Y23309D01*
G01X41589Y23288D01*
G01X41527Y23288D01*
G01X41467Y23309D01*
G01X41446Y23328D01*
G01X41426Y23369D01*
G01X6053Y14042D02*
G01X6053Y13613D01*
G01X6339Y14042D02*
G01X6053Y13755D01*
G01X6156Y13859D02*
G01X6339Y13613D01*
G01X6475Y14042D02*
G01X6475Y13613D01*
G01X6475Y14042D02*
G01X6740Y14042D01*
G01X6475Y13838D02*
G01X6639Y13838D01*
G01X6475Y13613D02*
G01X6740Y13613D01*
G01X6876Y14042D02*
G01X7039Y13838D01*
G01X7039Y13613D01*
G01X7203Y14042D02*
G01X7039Y13838D01*
G01X7339Y13961D02*
G01X7378Y13980D01*
G01X7440Y14042D01*
G01X7440Y13613D01*
G01X7821Y13980D02*
G01X7801Y14021D01*
G01X7739Y14042D01*
G01X7698Y14042D01*
G01X7636Y14021D01*
G01X7596Y13961D01*
G01X7576Y13859D01*
G01X7576Y13755D01*
G01X7596Y13673D01*
G01X7636Y13634D01*
G01X7698Y13613D01*
G01X7718Y13613D01*
G01X7780Y13634D01*
G01X7821Y13673D01*
G01X7842Y13736D01*
G01X7842Y13755D01*
G01X7821Y13817D01*
G01X7780Y13859D01*
G01X7718Y13878D01*
G01X7698Y13878D01*
G01X7636Y13859D01*
G01X7596Y13817D01*
G01X7576Y13755D01*
G01X6053Y7292D02*
G01X6053Y6863D01*
G01X6339Y7292D02*
G01X6053Y7005D01*
G01X6156Y7109D02*
G01X6339Y6863D01*
G01X6475Y7292D02*
G01X6475Y6863D01*
G01X6475Y7292D02*
G01X6740Y7292D01*
G01X6475Y7088D02*
G01X6639Y7088D01*
G01X6475Y6863D02*
G01X6740Y6863D01*
G01X6876Y7292D02*
G01X7039Y7088D01*
G01X7039Y6863D01*
G01X7203Y7292D02*
G01X7039Y7088D01*
G01X7339Y7211D02*
G01X7378Y7230D01*
G01X7440Y7292D01*
G01X7440Y6863D01*
G01X7861Y7292D02*
G01X7657Y6863D01*
G01X7576Y7292D02*
G01X7861Y7292D01*
G01X14703Y16092D02*
G01X14703Y15663D01*
G01X14989Y16092D02*
G01X14703Y15805D01*
G01X14806Y15909D02*
G01X14989Y15663D01*
G01X15125Y16092D02*
G01X15125Y15663D01*
G01X15125Y16092D02*
G01X15390Y16092D01*
G01X15125Y15888D02*
G01X15289Y15888D01*
G01X15125Y15663D02*
G01X15390Y15663D01*
G01X15526Y16092D02*
G01X15689Y15888D01*
G01X15689Y15663D01*
G01X15853Y16092D02*
G01X15689Y15888D01*
G01X15989Y16011D02*
G01X16028Y16030D01*
G01X16090Y16092D01*
G01X16090Y15663D01*
G01X16327Y16092D02*
G01X16267Y16071D01*
G01X16246Y16030D01*
G01X16246Y15990D01*
G01X16267Y15948D01*
G01X16307Y15928D01*
G01X16389Y15909D01*
G01X16451Y15888D01*
G01X16492Y15846D01*
G01X16511Y15805D01*
G01X16511Y15744D01*
G01X16492Y15703D01*
G01X16471Y15684D01*
G01X16410Y15663D01*
G01X16327Y15663D01*
G01X16267Y15684D01*
G01X16246Y15703D01*
G01X16226Y15744D01*
G01X16226Y15805D01*
G01X16246Y15846D01*
G01X16286Y15888D01*
G01X16348Y15909D01*
G01X16430Y15928D01*
G01X16471Y15948D01*
G01X16492Y15990D01*
G01X16492Y16030D01*
G01X16471Y16071D01*
G01X16410Y16092D01*
G01X16327Y16092D01*
G01X23353Y16092D02*
G01X23353Y15663D01*
G01X23639Y16092D02*
G01X23353Y15805D01*
G01X23456Y15909D02*
G01X23639Y15663D01*
G01X23775Y16092D02*
G01X23775Y15663D01*
G01X23775Y16092D02*
G01X24040Y16092D01*
G01X23775Y15888D02*
G01X23939Y15888D01*
G01X23775Y15663D02*
G01X24040Y15663D01*
G01X24176Y16092D02*
G01X24339Y15888D01*
G01X24339Y15663D01*
G01X24503Y16092D02*
G01X24339Y15888D01*
G01X24639Y16011D02*
G01X24678Y16030D01*
G01X24740Y16092D01*
G01X24740Y15663D01*
G01X25142Y15948D02*
G01X25121Y15888D01*
G01X25080Y15846D01*
G01X25018Y15826D01*
G01X24998Y15826D01*
G01X24936Y15846D01*
G01X24896Y15888D01*
G01X24876Y15948D01*
G01X24876Y15969D01*
G01X24896Y16030D01*
G01X24936Y16071D01*
G01X24998Y16092D01*
G01X25018Y16092D01*
G01X25080Y16071D01*
G01X25121Y16030D01*
G01X25142Y15948D01*
G01X25142Y15846D01*
G01X25121Y15744D01*
G01X25080Y15684D01*
G01X25018Y15663D01*
G01X24977Y15663D01*
G01X24917Y15684D01*
G01X24896Y15723D01*
G01X31453Y16092D02*
G01X31453Y15663D01*
G01X31739Y16092D02*
G01X31453Y15805D01*
G01X31556Y15909D02*
G01X31739Y15663D01*
G01X31875Y16092D02*
G01X31875Y15663D01*
G01X31875Y16092D02*
G01X32140Y16092D01*
G01X31875Y15888D02*
G01X32039Y15888D01*
G01X31875Y15663D02*
G01X32140Y15663D01*
G01X32276Y16092D02*
G01X32439Y15888D01*
G01X32439Y15663D01*
G01X32603Y16092D02*
G01X32439Y15888D01*
G01X32759Y15990D02*
G01X32759Y16011D01*
G01X32779Y16051D01*
G01X32800Y16071D01*
G01X32840Y16092D01*
G01X32922Y16092D01*
G01X32964Y16071D01*
G01X32984Y16051D01*
G01X33004Y16011D01*
G01X33004Y15969D01*
G01X32984Y15928D01*
G01X32943Y15867D01*
G01X32739Y15663D01*
G01X33025Y15663D01*
G01X33282Y16092D02*
G01X33221Y16071D01*
G01X33180Y16011D01*
G01X33160Y15909D01*
G01X33160Y15846D01*
G01X33180Y15744D01*
G01X33221Y15684D01*
G01X33282Y15663D01*
G01X33323Y15663D01*
G01X33385Y15684D01*
G01X33426Y15744D01*
G01X33446Y15846D01*
G01X33446Y15909D01*
G01X33426Y16011D01*
G01X33385Y16071D01*
G01X33323Y16092D01*
G01X33282Y16092D01*
G01X39904Y16092D02*
G01X39904Y15663D01*
G01X40189Y16092D02*
G01X39904Y15805D01*
G01X40006Y15909D02*
G01X40189Y15663D01*
G01X40325Y16092D02*
G01X40325Y15663D01*
G01X40325Y16092D02*
G01X40590Y16092D01*
G01X40325Y15888D02*
G01X40489Y15888D01*
G01X40325Y15663D02*
G01X40590Y15663D01*
G01X40726Y16092D02*
G01X40889Y15888D01*
G01X40889Y15663D01*
G01X41054Y16092D02*
G01X40889Y15888D01*
G01X41209Y15990D02*
G01X41209Y16011D01*
G01X41229Y16051D01*
G01X41250Y16071D01*
G01X41290Y16092D01*
G01X41372Y16092D01*
G01X41414Y16071D01*
G01X41434Y16051D01*
G01X41454Y16011D01*
G01X41454Y15969D01*
G01X41434Y15928D01*
G01X41393Y15867D01*
G01X41189Y15663D01*
G01X41475Y15663D01*
G01X41610Y16011D02*
G01X41651Y16030D01*
G01X41711Y16092D01*
G01X41711Y15663D01*
G01X14703Y8292D02*
G01X14703Y7863D01*
G01X14989Y8292D02*
G01X14703Y8005D01*
G01X14806Y8109D02*
G01X14989Y7863D01*
G01X15125Y8292D02*
G01X15125Y7863D01*
G01X15125Y8292D02*
G01X15390Y8292D01*
G01X15125Y8088D02*
G01X15289Y8088D01*
G01X15125Y7863D02*
G01X15390Y7863D01*
G01X15526Y8292D02*
G01X15689Y8088D01*
G01X15689Y7863D01*
G01X15853Y8292D02*
G01X15689Y8088D01*
G01X16009Y8190D02*
G01X16009Y8211D01*
G01X16028Y8251D01*
G01X16050Y8271D01*
G01X16090Y8292D01*
G01X16172Y8292D01*
G01X16214Y8271D01*
G01X16234Y8251D01*
G01X16253Y8211D01*
G01X16253Y8169D01*
G01X16234Y8128D01*
G01X16193Y8067D01*
G01X15989Y7863D01*
G01X16275Y7863D01*
G01X16430Y8190D02*
G01X16430Y8211D01*
G01X16451Y8251D01*
G01X16471Y8271D01*
G01X16511Y8292D01*
G01X16593Y8292D01*
G01X16635Y8271D01*
G01X16655Y8251D01*
G01X16676Y8211D01*
G01X16676Y8169D01*
G01X16655Y8128D01*
G01X16614Y8067D01*
G01X16410Y7863D01*
G01X16696Y7863D01*
G01X23353Y8292D02*
G01X23353Y7863D01*
G01X23639Y8292D02*
G01X23353Y8005D01*
G01X23456Y8109D02*
G01X23639Y7863D01*
G01X23775Y8292D02*
G01X23775Y7863D01*
G01X23775Y8292D02*
G01X24040Y8292D01*
G01X23775Y8088D02*
G01X23939Y8088D01*
G01X23775Y7863D02*
G01X24040Y7863D01*
G01X24176Y8292D02*
G01X24339Y8088D01*
G01X24339Y7863D01*
G01X24503Y8292D02*
G01X24339Y8088D01*
G01X24659Y8190D02*
G01X24659Y8211D01*
G01X24678Y8251D01*
G01X24700Y8271D01*
G01X24740Y8292D01*
G01X24822Y8292D01*
G01X24864Y8271D01*
G01X24884Y8251D01*
G01X24903Y8211D01*
G01X24903Y8169D01*
G01X24884Y8128D01*
G01X24843Y8067D01*
G01X24639Y7863D01*
G01X24925Y7863D01*
G01X25101Y8292D02*
G01X25326Y8292D01*
G01X25202Y8128D01*
G01X25264Y8128D01*
G01X25305Y8109D01*
G01X25326Y8088D01*
G01X25346Y8026D01*
G01X25346Y7986D01*
G01X25326Y7923D01*
G01X25285Y7884D01*
G01X25223Y7863D01*
G01X25161Y7863D01*
G01X25101Y7884D01*
G01X25080Y7903D01*
G01X25060Y7944D01*
G01X31453Y8292D02*
G01X31453Y7863D01*
G01X31739Y8292D02*
G01X31453Y8005D01*
G01X31556Y8109D02*
G01X31739Y7863D01*
G01X31875Y8292D02*
G01X31875Y7863D01*
G01X31875Y8292D02*
G01X32140Y8292D01*
G01X31875Y8088D02*
G01X32039Y8088D01*
G01X31875Y7863D02*
G01X32140Y7863D01*
G01X32276Y8292D02*
G01X32439Y8088D01*
G01X32439Y7863D01*
G01X32603Y8292D02*
G01X32439Y8088D01*
G01X32759Y8190D02*
G01X32759Y8211D01*
G01X32779Y8251D01*
G01X32800Y8271D01*
G01X32840Y8292D01*
G01X32922Y8292D01*
G01X32964Y8271D01*
G01X32984Y8251D01*
G01X33004Y8211D01*
G01X33004Y8169D01*
G01X32984Y8128D01*
G01X32943Y8067D01*
G01X32739Y7863D01*
G01X33025Y7863D01*
G01X33364Y8292D02*
G01X33160Y8005D01*
G01X33467Y8005D01*
G01X33364Y8292D02*
G01X33364Y7863D01*
G01X39904Y8292D02*
G01X39904Y7863D01*
G01X40189Y8292D02*
G01X39904Y8005D01*
G01X40006Y8109D02*
G01X40189Y7863D01*
G01X40325Y8292D02*
G01X40325Y7863D01*
G01X40325Y8292D02*
G01X40590Y8292D01*
G01X40325Y8088D02*
G01X40489Y8088D01*
G01X40325Y7863D02*
G01X40590Y7863D01*
G01X40726Y8292D02*
G01X40889Y8088D01*
G01X40889Y7863D01*
G01X41054Y8292D02*
G01X40889Y8088D01*
G01X41209Y8190D02*
G01X41209Y8211D01*
G01X41229Y8251D01*
G01X41250Y8271D01*
G01X41290Y8292D01*
G01X41372Y8292D01*
G01X41414Y8271D01*
G01X41434Y8251D01*
G01X41454Y8211D01*
G01X41454Y8169D01*
G01X41434Y8128D01*
G01X41393Y8067D01*
G01X41189Y7863D01*
G01X41475Y7863D01*
G01X41855Y8292D02*
G01X41651Y8292D01*
G01X41630Y8109D01*
G01X41651Y8128D01*
G01X41711Y8148D01*
G01X41773Y8148D01*
G01X41835Y8128D01*
G01X41876Y8088D01*
G01X41896Y8026D01*
G01X41896Y7986D01*
G01X41876Y7923D01*
G01X41835Y7884D01*
G01X41773Y7863D01*
G01X41711Y7863D01*
G01X41651Y7884D01*
G01X41630Y7903D01*
G01X41610Y7944D01*
G01X9921Y35401D02*
G01X10350Y35401D01*
G01X9921Y35401D02*
G01X9921Y35544D01*
G01X9940Y35606D01*
G01X9981Y35646D01*
G01X10022Y35667D01*
G01X10084Y35687D01*
G01X10185Y35687D01*
G01X10247Y35667D01*
G01X10289Y35646D01*
G01X10330Y35606D01*
G01X10350Y35544D01*
G01X10350Y35401D01*
G01X10002Y35822D02*
G01X9981Y35863D01*
G01X9921Y35925D01*
G01X10350Y35925D01*
G01X55050Y28461D02*
G01X55050Y28032D01*
G01X55050Y28461D02*
G01X55193Y28461D01*
G01X55255Y28440D01*
G01X55294Y28400D01*
G01X55315Y28359D01*
G01X55335Y28298D01*
G01X55335Y28196D01*
G01X55315Y28134D01*
G01X55294Y28092D01*
G01X55255Y28052D01*
G01X55193Y28032D01*
G01X55050Y28032D01*
G01X55492Y28359D02*
G01X55492Y28380D01*
G01X55511Y28421D01*
G01X55532Y28440D01*
G01X55573Y28461D01*
G01X55655Y28461D01*
G01X55696Y28440D01*
G01X55717Y28421D01*
G01X55736Y28380D01*
G01X55736Y28338D01*
G01X55717Y28298D01*
G01X55676Y28236D01*
G01X55471Y28032D01*
G01X55757Y28032D01*
G01X43121Y28575D02*
G01X43550Y28575D01*
G01X43121Y28575D02*
G01X43121Y28717D01*
G01X43140Y28780D01*
G01X43181Y28819D01*
G01X43222Y28840D01*
G01X43284Y28861D01*
G01X43385Y28861D01*
G01X43447Y28840D01*
G01X43489Y28819D01*
G01X43530Y28780D01*
G01X43550Y28717D01*
G01X43550Y28575D01*
G01X43121Y29036D02*
G01X43121Y29261D01*
G01X43284Y29140D01*
G01X43284Y29201D01*
G01X43305Y29242D01*
G01X43325Y29261D01*
G01X43385Y29282D01*
G01X43427Y29282D01*
G01X43489Y29261D01*
G01X43530Y29221D01*
G01X43550Y29159D01*
G01X43550Y29098D01*
G01X43530Y29036D01*
G01X43509Y29017D01*
G01X43468Y28996D01*
G01X821Y11598D02*
G01X1250Y11598D01*
G01X821Y11598D02*
G01X821Y11741D01*
G01X840Y11803D01*
G01X882Y11843D01*
G01X923Y11864D01*
G01X984Y11884D01*
G01X1086Y11884D01*
G01X1148Y11864D01*
G01X1188Y11843D01*
G01X1230Y11803D01*
G01X1250Y11741D01*
G01X1250Y11598D01*
G01X821Y12224D02*
G01X1107Y12019D01*
G01X1107Y12326D01*
G01X821Y12224D02*
G01X1250Y12224D01*
G01X34821Y13200D02*
G01X35250Y13200D01*
G01X34821Y13200D02*
G01X34821Y13342D01*
G01X34840Y13405D01*
G01X34881Y13444D01*
G01X34922Y13465D01*
G01X34984Y13486D01*
G01X35085Y13486D01*
G01X35147Y13465D01*
G01X35189Y13444D01*
G01X35230Y13405D01*
G01X35250Y13342D01*
G01X35250Y13200D01*
G01X34821Y13867D02*
G01X34821Y13661D01*
G01X35005Y13642D01*
G01X34984Y13661D01*
G01X34964Y13723D01*
G01X34964Y13784D01*
G01X34984Y13846D01*
G01X35025Y13886D01*
G01X35085Y13907D01*
G01X35127Y13907D01*
G01X35189Y13886D01*
G01X35230Y13846D01*
G01X35250Y13784D01*
G01X35250Y13723D01*
G01X35230Y13661D01*
G01X35209Y13642D01*
G01X35168Y13621D01*
G01X18371Y35401D02*
G01X18800Y35401D01*
G01X18371Y35401D02*
G01X18371Y35544D01*
G01X18390Y35606D01*
G01X18431Y35646D01*
G01X18472Y35667D01*
G01X18534Y35687D01*
G01X18635Y35687D01*
G01X18697Y35667D01*
G01X18739Y35646D01*
G01X18780Y35606D01*
G01X18800Y35544D01*
G01X18800Y35401D01*
G01X18431Y36068D02*
G01X18390Y36047D01*
G01X18371Y35986D01*
G01X18371Y35945D01*
G01X18390Y35884D01*
G01X18452Y35843D01*
G01X18555Y35822D01*
G01X18656Y35822D01*
G01X18739Y35843D01*
G01X18780Y35884D01*
G01X18800Y35945D01*
G01X18800Y35966D01*
G01X18780Y36027D01*
G01X18739Y36068D01*
G01X18677Y36088D01*
G01X18656Y36088D01*
G01X18596Y36068D01*
G01X18555Y36027D01*
G01X18534Y35966D01*
G01X18534Y35945D01*
G01X18555Y35884D01*
G01X18596Y35843D01*
G01X18656Y35822D01*
G01X9771Y28401D02*
G01X10200Y28401D01*
G01X9771Y28401D02*
G01X9771Y28544D01*
G01X9790Y28606D01*
G01X9831Y28646D01*
G01X9872Y28667D01*
G01X9934Y28687D01*
G01X10035Y28687D01*
G01X10097Y28667D01*
G01X10139Y28646D01*
G01X10180Y28606D01*
G01X10200Y28544D01*
G01X10200Y28401D01*
G01X9771Y29109D02*
G01X10200Y28904D01*
G01X9771Y28822D02*
G01X9771Y29109D01*
G01X9771Y20826D02*
G01X10200Y20826D01*
G01X9771Y20826D02*
G01X9771Y20969D01*
G01X9790Y21031D01*
G01X9831Y21071D01*
G01X9872Y21092D01*
G01X9934Y21112D01*
G01X10035Y21112D01*
G01X10097Y21092D01*
G01X10139Y21071D01*
G01X10180Y21031D01*
G01X10200Y20969D01*
G01X10200Y20826D01*
G01X9771Y21350D02*
G01X9790Y21288D01*
G01X9831Y21268D01*
G01X9872Y21268D01*
G01X9914Y21288D01*
G01X9934Y21329D01*
G01X9955Y21411D01*
G01X9975Y21472D01*
G01X10015Y21513D01*
G01X10056Y21534D01*
G01X10118Y21534D01*
G01X10159Y21513D01*
G01X10180Y21493D01*
G01X10200Y21431D01*
G01X10200Y21350D01*
G01X10180Y21288D01*
G01X10159Y21268D01*
G01X10118Y21247D01*
G01X10056Y21247D01*
G01X10015Y21268D01*
G01X9975Y21309D01*
G01X9955Y21370D01*
G01X9934Y21452D01*
G01X9914Y21493D01*
G01X9872Y21513D01*
G01X9831Y21513D01*
G01X9790Y21493D01*
G01X9771Y21431D01*
G01X9771Y21350D01*
G01X821Y4848D02*
G01X1250Y4848D01*
G01X821Y4848D02*
G01X821Y4991D01*
G01X840Y5053D01*
G01X882Y5093D01*
G01X923Y5114D01*
G01X984Y5134D01*
G01X1086Y5134D01*
G01X1148Y5114D01*
G01X1188Y5093D01*
G01X1230Y5053D01*
G01X1250Y4991D01*
G01X1250Y4848D01*
G01X963Y5535D02*
G01X1025Y5515D01*
G01X1065Y5474D01*
G01X1086Y5413D01*
G01X1086Y5392D01*
G01X1065Y5331D01*
G01X1025Y5290D01*
G01X963Y5269D01*
G01X942Y5269D01*
G01X882Y5290D01*
G01X840Y5331D01*
G01X821Y5392D01*
G01X821Y5413D01*
G01X840Y5474D01*
G01X882Y5515D01*
G01X963Y5535D01*
G01X1065Y5535D01*
G01X1167Y5515D01*
G01X1230Y5474D01*
G01X1250Y5413D01*
G01X1250Y5372D01*
G01X1230Y5310D01*
G01X1188Y5290D01*
G01X9771Y5401D02*
G01X10200Y5401D01*
G01X9771Y5401D02*
G01X9771Y5544D01*
G01X9790Y5606D01*
G01X9831Y5646D01*
G01X9872Y5667D01*
G01X9934Y5687D01*
G01X10035Y5687D01*
G01X10097Y5667D01*
G01X10139Y5646D01*
G01X10180Y5606D01*
G01X10200Y5544D01*
G01X10200Y5401D01*
G01X9852Y5822D02*
G01X9831Y5863D01*
G01X9771Y5925D01*
G01X10200Y5925D01*
G01X9771Y6182D02*
G01X9790Y6121D01*
G01X9852Y6080D01*
G01X9955Y6060D01*
G01X10015Y6060D01*
G01X10118Y6080D01*
G01X10180Y6121D01*
G01X10200Y6182D01*
G01X10200Y6223D01*
G01X10180Y6285D01*
G01X10118Y6326D01*
G01X10015Y6346D01*
G01X9955Y6346D01*
G01X9852Y6326D01*
G01X9790Y6285D01*
G01X9771Y6223D01*
G01X9771Y6182D01*
G01X26821Y35401D02*
G01X27250Y35401D01*
G01X26821Y35401D02*
G01X26821Y35544D01*
G01X26840Y35606D01*
G01X26881Y35646D01*
G01X26922Y35667D01*
G01X26984Y35687D01*
G01X27085Y35687D01*
G01X27147Y35667D01*
G01X27189Y35646D01*
G01X27230Y35606D01*
G01X27250Y35544D01*
G01X27250Y35401D01*
G01X26902Y35822D02*
G01X26881Y35863D01*
G01X26821Y35925D01*
G01X27250Y35925D01*
G01X26902Y36060D02*
G01X26881Y36101D01*
G01X26821Y36162D01*
G01X27250Y36162D01*
G01X18221Y28401D02*
G01X18650Y28401D01*
G01X18221Y28401D02*
G01X18221Y28544D01*
G01X18240Y28606D01*
G01X18281Y28646D01*
G01X18322Y28667D01*
G01X18384Y28687D01*
G01X18485Y28687D01*
G01X18547Y28667D01*
G01X18589Y28646D01*
G01X18630Y28606D01*
G01X18650Y28544D01*
G01X18650Y28401D01*
G01X18302Y28822D02*
G01X18281Y28863D01*
G01X18221Y28925D01*
G01X18650Y28925D01*
G01X18322Y29080D02*
G01X18302Y29080D01*
G01X18260Y29101D01*
G01X18240Y29121D01*
G01X18221Y29162D01*
G01X18221Y29244D01*
G01X18240Y29285D01*
G01X18260Y29305D01*
G01X18302Y29326D01*
G01X18343Y29326D01*
G01X18384Y29305D01*
G01X18446Y29264D01*
G01X18650Y29060D01*
G01X18650Y29346D01*
G01X18221Y20826D02*
G01X18650Y20826D01*
G01X18221Y20826D02*
G01X18221Y20969D01*
G01X18240Y21031D01*
G01X18281Y21071D01*
G01X18322Y21092D01*
G01X18384Y21112D01*
G01X18485Y21112D01*
G01X18547Y21092D01*
G01X18589Y21071D01*
G01X18630Y21031D01*
G01X18650Y20969D01*
G01X18650Y20826D01*
G01X18302Y21247D02*
G01X18281Y21288D01*
G01X18221Y21350D01*
G01X18650Y21350D01*
G01X18221Y21526D02*
G01X18221Y21751D01*
G01X18384Y21628D01*
G01X18384Y21689D01*
G01X18405Y21730D01*
G01X18425Y21751D01*
G01X18485Y21771D01*
G01X18527Y21771D01*
G01X18589Y21751D01*
G01X18630Y21710D01*
G01X18650Y21648D01*
G01X18650Y21587D01*
G01X18630Y21526D01*
G01X18609Y21505D01*
G01X18568Y21485D01*
G01X9771Y13263D02*
G01X10200Y13263D01*
G01X9771Y13263D02*
G01X9771Y13406D01*
G01X9790Y13468D01*
G01X9831Y13508D01*
G01X9872Y13529D01*
G01X9934Y13549D01*
G01X10035Y13549D01*
G01X10097Y13529D01*
G01X10139Y13508D01*
G01X10180Y13468D01*
G01X10200Y13406D01*
G01X10200Y13263D01*
G01X9852Y13684D02*
G01X9831Y13725D01*
G01X9771Y13787D01*
G01X10200Y13787D01*
G01X9771Y14126D02*
G01X10056Y13922D01*
G01X10056Y14228D01*
G01X9771Y14126D02*
G01X10200Y14126D01*
G01X18221Y5401D02*
G01X18650Y5401D01*
G01X18221Y5401D02*
G01X18221Y5544D01*
G01X18240Y5606D01*
G01X18281Y5646D01*
G01X18322Y5667D01*
G01X18384Y5687D01*
G01X18485Y5687D01*
G01X18547Y5667D01*
G01X18589Y5646D01*
G01X18630Y5606D01*
G01X18650Y5544D01*
G01X18650Y5401D01*
G01X18302Y5822D02*
G01X18281Y5863D01*
G01X18221Y5925D01*
G01X18650Y5925D01*
G01X18221Y6305D02*
G01X18221Y6101D01*
G01X18405Y6080D01*
G01X18384Y6101D01*
G01X18364Y6162D01*
G01X18364Y6223D01*
G01X18384Y6285D01*
G01X18425Y6326D01*
G01X18485Y6346D01*
G01X18527Y6346D01*
G01X18589Y6326D01*
G01X18630Y6285D01*
G01X18650Y6223D01*
G01X18650Y6162D01*
G01X18630Y6101D01*
G01X18609Y6080D01*
G01X18568Y6060D01*
G01X34971Y35400D02*
G01X35400Y35400D01*
G01X34971Y35400D02*
G01X34971Y35542D01*
G01X34990Y35605D01*
G01X35031Y35644D01*
G01X35072Y35665D01*
G01X35134Y35686D01*
G01X35235Y35686D01*
G01X35297Y35665D01*
G01X35339Y35644D01*
G01X35380Y35605D01*
G01X35400Y35542D01*
G01X35400Y35400D01*
G01X35052Y35821D02*
G01X35031Y35861D01*
G01X34971Y35923D01*
G01X35400Y35923D01*
G01X35031Y36304D02*
G01X34990Y36284D01*
G01X34971Y36221D01*
G01X34971Y36180D01*
G01X34990Y36119D01*
G01X35052Y36079D01*
G01X35155Y36059D01*
G01X35256Y36059D01*
G01X35339Y36079D01*
G01X35380Y36119D01*
G01X35400Y36180D01*
G01X35400Y36202D01*
G01X35380Y36263D01*
G01X35339Y36304D01*
G01X35277Y36325D01*
G01X35256Y36325D01*
G01X35196Y36304D01*
G01X35155Y36263D01*
G01X35134Y36202D01*
G01X35134Y36180D01*
G01X35155Y36119D01*
G01X35196Y36079D01*
G01X35256Y36059D01*
G01X26671Y28401D02*
G01X27100Y28401D01*
G01X26671Y28401D02*
G01X26671Y28544D01*
G01X26690Y28606D01*
G01X26731Y28646D01*
G01X26772Y28667D01*
G01X26834Y28687D01*
G01X26935Y28687D01*
G01X26997Y28667D01*
G01X27039Y28646D01*
G01X27080Y28606D01*
G01X27100Y28544D01*
G01X27100Y28401D01*
G01X26752Y28822D02*
G01X26731Y28863D01*
G01X26671Y28925D01*
G01X27100Y28925D01*
G01X26671Y29346D02*
G01X27100Y29141D01*
G01X26671Y29060D02*
G01X26671Y29346D01*
G01X26671Y20826D02*
G01X27100Y20826D01*
G01X26671Y20826D02*
G01X26671Y20969D01*
G01X26690Y21031D01*
G01X26731Y21071D01*
G01X26772Y21092D01*
G01X26834Y21112D01*
G01X26935Y21112D01*
G01X26997Y21092D01*
G01X27039Y21071D01*
G01X27080Y21031D01*
G01X27100Y20969D01*
G01X27100Y20826D01*
G01X26752Y21247D02*
G01X26731Y21288D01*
G01X26671Y21350D01*
G01X27100Y21350D01*
G01X26671Y21587D02*
G01X26690Y21526D01*
G01X26731Y21505D01*
G01X26772Y21505D01*
G01X26814Y21526D01*
G01X26834Y21566D01*
G01X26855Y21648D01*
G01X26875Y21710D01*
G01X26915Y21751D01*
G01X26956Y21771D01*
G01X27018Y21771D01*
G01X27059Y21751D01*
G01X27080Y21730D01*
G01X27100Y21669D01*
G01X27100Y21587D01*
G01X27080Y21526D01*
G01X27059Y21505D01*
G01X27018Y21485D01*
G01X26956Y21485D01*
G01X26915Y21505D01*
G01X26875Y21546D01*
G01X26855Y21607D01*
G01X26834Y21689D01*
G01X26814Y21730D01*
G01X26772Y21751D01*
G01X26731Y21751D01*
G01X26690Y21730D01*
G01X26671Y21669D01*
G01X26671Y21587D01*
G01X18221Y13201D02*
G01X18650Y13201D01*
G01X18221Y13201D02*
G01X18221Y13344D01*
G01X18240Y13406D01*
G01X18281Y13446D01*
G01X18322Y13467D01*
G01X18384Y13487D01*
G01X18485Y13487D01*
G01X18547Y13467D01*
G01X18589Y13446D01*
G01X18630Y13406D01*
G01X18650Y13344D01*
G01X18650Y13201D01*
G01X18302Y13622D02*
G01X18281Y13663D01*
G01X18221Y13725D01*
G01X18650Y13725D01*
G01X18364Y14126D02*
G01X18425Y14105D01*
G01X18465Y14064D01*
G01X18485Y14003D01*
G01X18485Y13982D01*
G01X18465Y13921D01*
G01X18425Y13880D01*
G01X18364Y13860D01*
G01X18343Y13860D01*
G01X18281Y13880D01*
G01X18240Y13921D01*
G01X18221Y13982D01*
G01X18221Y14003D01*
G01X18240Y14064D01*
G01X18281Y14105D01*
G01X18364Y14126D01*
G01X18465Y14126D01*
G01X18568Y14105D01*
G01X18630Y14064D01*
G01X18650Y14003D01*
G01X18650Y13962D01*
G01X18630Y13901D01*
G01X18589Y13880D01*
G01X26671Y5401D02*
G01X27100Y5401D01*
G01X26671Y5401D02*
G01X26671Y5544D01*
G01X26690Y5606D01*
G01X26731Y5646D01*
G01X26772Y5667D01*
G01X26834Y5687D01*
G01X26935Y5687D01*
G01X26997Y5667D01*
G01X27039Y5646D01*
G01X27080Y5606D01*
G01X27100Y5544D01*
G01X27100Y5401D01*
G01X26772Y5843D02*
G01X26752Y5843D01*
G01X26710Y5863D01*
G01X26690Y5884D01*
G01X26671Y5925D01*
G01X26671Y6006D01*
G01X26690Y6047D01*
G01X26710Y6068D01*
G01X26752Y6088D01*
G01X26793Y6088D01*
G01X26834Y6068D01*
G01X26896Y6027D01*
G01X27100Y5822D01*
G01X27100Y6109D01*
G01X26671Y6366D02*
G01X26690Y6305D01*
G01X26752Y6264D01*
G01X26855Y6244D01*
G01X26915Y6244D01*
G01X27018Y6264D01*
G01X27080Y6305D01*
G01X27100Y6366D01*
G01X27100Y6407D01*
G01X27080Y6469D01*
G01X27018Y6510D01*
G01X26915Y6530D01*
G01X26855Y6530D01*
G01X26752Y6510D01*
G01X26690Y6469D01*
G01X26671Y6407D01*
G01X26671Y6366D01*
G01X43321Y35575D02*
G01X43750Y35575D01*
G01X43321Y35575D02*
G01X43321Y35717D01*
G01X43340Y35780D01*
G01X43381Y35819D01*
G01X43422Y35840D01*
G01X43484Y35861D01*
G01X43585Y35861D01*
G01X43647Y35840D01*
G01X43689Y35819D01*
G01X43730Y35780D01*
G01X43750Y35717D01*
G01X43750Y35575D01*
G01X43422Y36017D02*
G01X43402Y36017D01*
G01X43360Y36036D01*
G01X43340Y36057D01*
G01X43321Y36098D01*
G01X43321Y36180D01*
G01X43340Y36221D01*
G01X43360Y36242D01*
G01X43402Y36261D01*
G01X43443Y36261D01*
G01X43484Y36242D01*
G01X43546Y36201D01*
G01X43750Y35996D01*
G01X43750Y36282D01*
G01X43402Y36417D02*
G01X43381Y36459D01*
G01X43321Y36519D01*
G01X43750Y36519D01*
G01X34821Y28400D02*
G01X35250Y28400D01*
G01X34821Y28400D02*
G01X34821Y28542D01*
G01X34840Y28605D01*
G01X34881Y28644D01*
G01X34922Y28665D01*
G01X34984Y28686D01*
G01X35085Y28686D01*
G01X35147Y28665D01*
G01X35189Y28644D01*
G01X35230Y28605D01*
G01X35250Y28542D01*
G01X35250Y28400D01*
G01X34922Y28842D02*
G01X34902Y28842D01*
G01X34860Y28861D01*
G01X34840Y28882D01*
G01X34821Y28923D01*
G01X34821Y29005D01*
G01X34840Y29046D01*
G01X34860Y29067D01*
G01X34902Y29086D01*
G01X34943Y29086D01*
G01X34984Y29067D01*
G01X35046Y29026D01*
G01X35250Y28821D01*
G01X35250Y29107D01*
G01X34922Y29263D02*
G01X34902Y29263D01*
G01X34860Y29284D01*
G01X34840Y29303D01*
G01X34821Y29344D01*
G01X34821Y29427D01*
G01X34840Y29467D01*
G01X34860Y29488D01*
G01X34902Y29509D01*
G01X34943Y29509D01*
G01X34984Y29488D01*
G01X35046Y29446D01*
G01X35250Y29242D01*
G01X35250Y29528D01*
G01X34821Y20825D02*
G01X35250Y20825D01*
G01X34821Y20825D02*
G01X34821Y20967D01*
G01X34840Y21030D01*
G01X34881Y21069D01*
G01X34922Y21090D01*
G01X34984Y21111D01*
G01X35085Y21111D01*
G01X35147Y21090D01*
G01X35189Y21069D01*
G01X35230Y21030D01*
G01X35250Y20967D01*
G01X35250Y20825D01*
G01X34922Y21267D02*
G01X34902Y21267D01*
G01X34860Y21286D01*
G01X34840Y21307D01*
G01X34821Y21348D01*
G01X34821Y21430D01*
G01X34840Y21471D01*
G01X34860Y21492D01*
G01X34902Y21511D01*
G01X34943Y21511D01*
G01X34984Y21492D01*
G01X35046Y21451D01*
G01X35250Y21246D01*
G01X35250Y21532D01*
G01X34821Y21709D02*
G01X34821Y21934D01*
G01X34984Y21811D01*
G01X34984Y21871D01*
G01X35005Y21913D01*
G01X35025Y21934D01*
G01X35085Y21953D01*
G01X35127Y21953D01*
G01X35189Y21934D01*
G01X35230Y21892D01*
G01X35250Y21830D01*
G01X35250Y21769D01*
G01X35230Y21709D01*
G01X35209Y21688D01*
G01X35168Y21667D01*
G01X26671Y13201D02*
G01X27100Y13201D01*
G01X26671Y13201D02*
G01X26671Y13344D01*
G01X26690Y13406D01*
G01X26731Y13446D01*
G01X26772Y13467D01*
G01X26834Y13487D01*
G01X26935Y13487D01*
G01X26997Y13467D01*
G01X27039Y13446D01*
G01X27080Y13406D01*
G01X27100Y13344D01*
G01X27100Y13201D01*
G01X26772Y13643D02*
G01X26752Y13643D01*
G01X26710Y13663D01*
G01X26690Y13684D01*
G01X26671Y13725D01*
G01X26671Y13806D01*
G01X26690Y13847D01*
G01X26710Y13868D01*
G01X26752Y13888D01*
G01X26793Y13888D01*
G01X26834Y13868D01*
G01X26896Y13827D01*
G01X27100Y13622D01*
G01X27100Y13909D01*
G01X26671Y14248D02*
G01X26956Y14044D01*
G01X26956Y14351D01*
G01X26671Y14248D02*
G01X27100Y14248D01*
G01X34821Y5400D02*
G01X35250Y5400D01*
G01X34821Y5400D02*
G01X34821Y5542D01*
G01X34840Y5605D01*
G01X34881Y5644D01*
G01X34922Y5665D01*
G01X34984Y5686D01*
G01X35085Y5686D01*
G01X35147Y5665D01*
G01X35189Y5644D01*
G01X35230Y5605D01*
G01X35250Y5542D01*
G01X35250Y5400D01*
G01X34922Y5842D02*
G01X34902Y5842D01*
G01X34860Y5861D01*
G01X34840Y5882D01*
G01X34821Y5923D01*
G01X34821Y6005D01*
G01X34840Y6046D01*
G01X34860Y6067D01*
G01X34902Y6086D01*
G01X34943Y6086D01*
G01X34984Y6067D01*
G01X35046Y6026D01*
G01X35250Y5821D01*
G01X35250Y6107D01*
G01X34821Y6488D02*
G01X34821Y6284D01*
G01X35005Y6263D01*
G01X34984Y6284D01*
G01X34964Y6344D01*
G01X34964Y6405D01*
G01X34984Y6467D01*
G01X35025Y6509D01*
G01X35085Y6528D01*
G01X35127Y6528D01*
G01X35189Y6509D01*
G01X35230Y6467D01*
G01X35250Y6405D01*
G01X35250Y6344D01*
G01X35230Y6284D01*
G01X35209Y6263D01*
G01X35168Y6242D01*
G01X51950Y3378D02*
G01X51950Y2950D01*
G01X51950Y3378D02*
G01X52134Y3378D01*
G01X52194Y3359D01*
G01X52215Y3338D01*
G01X52235Y3298D01*
G01X52235Y3236D01*
G01X52215Y3194D01*
G01X52194Y3175D01*
G01X52134Y3153D01*
G01X51950Y3153D01*
G01X52371Y3298D02*
G01X52411Y3317D01*
G01X52473Y3378D01*
G01X52473Y2950D01*
G01X6898Y21553D02*
G01X6857Y21511D01*
G01X6837Y21451D01*
G01X6837Y21369D01*
G01X6857Y21307D01*
G01X6898Y21267D01*
G01X6939Y21267D01*
G01X6980Y21286D01*
G01X7000Y21307D01*
G01X7021Y21348D01*
G01X7062Y21471D01*
G01X7082Y21511D01*
G01X7103Y21532D01*
G01X7144Y21553D01*
G01X7205Y21553D01*
G01X7246Y21511D01*
G01X7266Y21451D01*
G01X7266Y21369D01*
G01X7246Y21307D01*
G01X7205Y21267D01*
G01X6837Y21688D02*
G01X7266Y21790D01*
G01X6837Y21892D02*
G01X7266Y21790D01*
G01X6837Y21892D02*
G01X7266Y21994D01*
G01X6837Y22096D02*
G01X7266Y21994D01*
G01X6919Y22232D02*
G01X6898Y22273D01*
G01X6837Y22334D01*
G01X7266Y22334D01*
G01X6898Y17353D02*
G01X6857Y17311D01*
G01X6837Y17251D01*
G01X6837Y17169D01*
G01X6857Y17107D01*
G01X6898Y17067D01*
G01X6939Y17067D01*
G01X6980Y17086D01*
G01X7000Y17107D01*
G01X7021Y17148D01*
G01X7062Y17271D01*
G01X7082Y17311D01*
G01X7103Y17332D01*
G01X7144Y17353D01*
G01X7205Y17353D01*
G01X7246Y17311D01*
G01X7266Y17251D01*
G01X7266Y17169D01*
G01X7246Y17107D01*
G01X7205Y17067D01*
G01X6837Y17488D02*
G01X7266Y17590D01*
G01X6837Y17692D02*
G01X7266Y17590D01*
G01X6837Y17692D02*
G01X7266Y17794D01*
G01X6837Y17896D02*
G01X7266Y17794D01*
G01X6939Y18053D02*
G01X6919Y18053D01*
G01X6878Y18073D01*
G01X6857Y18094D01*
G01X6837Y18134D01*
G01X6837Y18217D01*
G01X6857Y18257D01*
G01X6878Y18278D01*
G01X6919Y18298D01*
G01X6960Y18298D01*
G01X7000Y18278D01*
G01X7062Y18236D01*
G01X7266Y18032D01*
G01X7266Y18319D01*
G01X6150Y25578D02*
G01X6150Y25150D01*
G01X6150Y25578D02*
G01X6334Y25578D01*
G01X6394Y25559D01*
G01X6415Y25538D01*
G01X6435Y25498D01*
G01X6435Y25457D01*
G01X6415Y25415D01*
G01X6394Y25394D01*
G01X6334Y25375D01*
G01X6150Y25375D01*
G01X6293Y25375D02*
G01X6435Y25150D01*
G01X6571Y25498D02*
G01X6611Y25517D01*
G01X6673Y25578D01*
G01X6673Y25150D01*
G01X7171Y19000D02*
G01X7600Y19000D01*
G01X7171Y19000D02*
G01X7171Y19184D01*
G01X7190Y19244D01*
G01X7210Y19265D01*
G01X7252Y19286D01*
G01X7293Y19286D01*
G01X7334Y19265D01*
G01X7355Y19244D01*
G01X7375Y19184D01*
G01X7375Y19000D01*
G01X7375Y19142D02*
G01X7600Y19286D01*
G01X7272Y19442D02*
G01X7252Y19442D01*
G01X7210Y19461D01*
G01X7190Y19482D01*
G01X7171Y19523D01*
G01X7171Y19605D01*
G01X7190Y19646D01*
G01X7210Y19667D01*
G01X7252Y19686D01*
G01X7293Y19686D01*
G01X7334Y19667D01*
G01X7396Y19626D01*
G01X7600Y19421D01*
G01X7600Y19707D01*
M00*
M02*
