G04 Layer: BottomSilkLayer*
G04 EasyEDA v6.1.33, Sat, 27 Apr 2019 13:28:37 GMT*
G04 c1ca82668c2d4d1491ff35bdc25fb94a,6a163e1b02164d1f80322a9964b4fc45,10*
G04 Gerber Generator version 0.2*
G04 Scale: 100 percent, Rotated: No, Reflected: No *
G04 Dimensions in inches *
G04 leading zeros omitted , absolute positions ,2 integer and 4 decimal *
%FSLAX24Y24*%
%MOIN*%
G90*
G70D02*

%ADD22C,0.008000*%

%LPD*%
G54D22*
G01X12678Y32650D02*
G01X12678Y32068D01*
G01X12714Y31959D01*
G01X12750Y31922D01*
G01X12823Y31886D01*
G01X12896Y31886D01*
G01X12969Y31922D01*
G01X13005Y31959D01*
G01X13041Y32068D01*
G01X13041Y32140D01*
G01X12438Y32650D02*
G01X12438Y31886D01*
G01X12438Y31886D02*
G01X12001Y31886D01*
G01X11216Y32468D02*
G01X11252Y32540D01*
G01X11325Y32613D01*
G01X11398Y32650D01*
G01X11543Y32650D01*
G01X11616Y32613D01*
G01X11689Y32540D01*
G01X11725Y32468D01*
G01X11761Y32359D01*
G01X11761Y32177D01*
G01X11725Y32068D01*
G01X11689Y31995D01*
G01X11616Y31922D01*
G01X11543Y31886D01*
G01X11398Y31886D01*
G01X11325Y31922D01*
G01X11252Y31995D01*
G01X11216Y32068D01*
G01X10612Y32650D02*
G01X10612Y32068D01*
G01X10649Y31959D01*
G01X10685Y31922D01*
G01X10758Y31886D01*
G01X10830Y31886D01*
G01X10903Y31922D01*
G01X10939Y31959D01*
G01X10976Y32068D01*
G01X10976Y32140D01*
G01X9827Y32468D02*
G01X9863Y32540D01*
G01X9936Y32613D01*
G01X10009Y32650D01*
G01X10154Y32650D01*
G01X10227Y32613D01*
G01X10300Y32540D01*
G01X10336Y32468D01*
G01X10372Y32359D01*
G01X10372Y32177D01*
G01X10336Y32068D01*
G01X10300Y31995D01*
G01X10227Y31922D01*
G01X10154Y31886D01*
G01X10009Y31886D01*
G01X9936Y31922D01*
G01X9863Y31995D01*
G01X9827Y32068D01*
G01X9587Y32650D02*
G01X9587Y31886D01*
G01X9587Y31886D02*
G01X9150Y31886D01*
G01X8547Y32650D02*
G01X8547Y32068D01*
G01X8583Y31959D01*
G01X8619Y31922D01*
G01X8692Y31886D01*
G01X8765Y31886D01*
G01X8838Y31922D01*
G01X8874Y31959D01*
G01X8910Y32068D01*
G01X8910Y32140D01*
G01X8307Y32650D02*
G01X8307Y31886D01*
G01X8307Y31886D02*
G01X7870Y31886D01*
G01X7085Y32468D02*
G01X7121Y32540D01*
G01X7194Y32613D01*
G01X7267Y32650D01*
G01X7412Y32650D01*
G01X7485Y32613D01*
G01X7558Y32540D01*
G01X7594Y32468D01*
G01X7630Y32359D01*
G01X7630Y32177D01*
G01X7594Y32068D01*
G01X7558Y31995D01*
G01X7485Y31922D01*
G01X7412Y31886D01*
G01X7267Y31886D01*
G01X7194Y31922D01*
G01X7121Y31995D01*
G01X7085Y32068D01*
G01X6481Y32650D02*
G01X6481Y32068D01*
G01X6518Y31959D01*
G01X6554Y31922D01*
G01X6627Y31886D01*
G01X6700Y31886D01*
G01X6772Y31922D01*
G01X6809Y31959D01*
G01X6845Y32068D01*
G01X6845Y32140D01*
G01X6241Y32650D02*
G01X6241Y31886D01*
G01X6241Y31886D02*
G01X5805Y31886D01*
G01X5019Y32468D02*
G01X5056Y32540D01*
G01X5129Y32613D01*
G01X5201Y32650D01*
G01X5347Y32650D01*
G01X5419Y32613D01*
G01X5492Y32540D01*
G01X5529Y32468D01*
G01X5565Y32359D01*
G01X5565Y32177D01*
G01X5529Y32068D01*
G01X5492Y31995D01*
G01X5419Y31922D01*
G01X5347Y31886D01*
G01X5201Y31886D01*
G01X5129Y31922D01*
G01X5056Y31995D01*
G01X5019Y32068D01*
M00*
M02*
