;Layer: Drill NPTH
;EasyEDA v6.1.33, Sat, 27 Apr 2019 13:28:37 GMT
;c1ca82668c2d4d1491ff35bdc25fb94a,6a163e1b02164d1f80322a9964b4fc45,10
;Gerber Generator version 0.2
M48
INCH,LZ,00.0000
;Holesize 1 = 0.075 INCH
T01C0.075
%
G05
G90
T01
X+014953Y+037173
X+014953Y+033629
X+023603Y+037173
X+023603Y+033629
X+031703Y+037173
X+031703Y+033629
X+040154Y+037173
X+040154Y+033629
X+048554Y+037223
X+048554Y+033679
X+055104Y+034373
X+055104Y+030828
X+014803Y+030173
X+014803Y+026628
X+023453Y+030173
X+023453Y+026628
X+031553Y+030173
X+031553Y+026628
X+040004Y+030173
X+040004Y+026628
X+048404Y+030223
X+048404Y+026678
X+014803Y+022598
X+014803Y+019053
X+023453Y+022598
X+023453Y+019053
X+031553Y+022598
X+031553Y+019053
X+040004Y+022598
X+040004Y+019053
X+006153Y+012923
X+006153Y+009378
X+006153Y+006173
X+006153Y+002628
X+014803Y+014973
X+014803Y+011428
X+023453Y+014973
X+023453Y+011428
X+031553Y+014973
X+031553Y+011428
X+040004Y+014973
X+040004Y+011428
X+014803Y+007173
X+014803Y+003628
X+023453Y+007173
X+023453Y+003628
X+031553Y+007173
X+031553Y+003628
X+040004Y+007173
X+040004Y+003628
M30
